<svg xmlns="http://www.w3.org/2000/svg" xmlns:xlink="http://www.w3.org/1999/xlink" width="172" height="225" viewBox="0 0 172 225">
    <defs>
        <path id="a" d="M.409.306H59.43V51.22H.41z"/>
    </defs>
    <g fill="none" fill-rule="evenodd">
        <path fill="#FFF" stroke="#FFF" stroke-width=".5" d="M28.439 144.916l1.438-23.031 2.014-14.62 2.964-15.398 2.373-11.42v-9.761l.876-17.865 2.728-11.545 2.678-8.32 3.135-6.335 1.6-2.47-.313-.552-5.037 1.314-6.497.54-3.878-1.303-1.644-2.803 2.277-7.77 5.673-7.121 3.205-1.914H44.9l4.059 1.56 2.138 2.44 2.162 3.87.515 1.585 1.569-.42 7.858-2.038 8.314-2.053L80.73 7.48l9.113-.582h9.516l9.306 1.646 8.966 2.467 5.227 3.441.785-.148 1.623-6.408 3.323-4.808 4.367-1.606h3.988l2.66 2.189.568 3.81.384 3.53 1.09 3.293 1.75 4.767-.619 2.62-3.172 1.652h-4.822l-6.194-1.652h-.605l-.387.64 3.603 6.637 3.983 12.969 3.315 10.885 2.37 12.921 2.215 25.476v27.865l.42 25.833z"/>
        <path fill="#231F20" d="M144.223 119.166c-.114-8.295.002-16.59-.206-24.884-.207-8.25-.639-16.5-1.561-24.703-.888-7.896-2.247-15.734-4.595-23.337-.646-2.092-1.413-4.137-2.117-6.209-.739-2.178-1.336-4.4-1.975-6.609-.61-2.11-1.264-4.175-2.222-6.157-.639-1.324-1.347-2.612-2.017-3.92a16.173 16.173 0 0 0 5.603 1.206c2.283.082 4.925-.158 6.984-1.23 1.329-.692 2.155-1.875 2.236-3.38.088-1.642-.55-3.304-1.094-4.823-.876-2.445-1.809-4.87-1.984-7.486-.134-2.004-.201-4.206-1.876-5.586-2.808-2.313-7.378-1.74-10.41-.2-1.998 1.014-3.541 2.882-4.423 4.917-.85 1.961-1.207 4.08-1.798 6.127-2.153-2.125-5.436-3.173-8.218-4.029-4.006-1.232-8.125-2.249-12.29-2.734-5.353-.623-10.76-.444-16.122-.05-2.684.198-5.4.352-8.063.744-2.496.368-4.928 1.052-7.348 1.753-2.751.797-5.496 1.499-8.31 2.045-2.71.525-5.434 1.06-8.003 2.099-1.469-3.883-3.96-7.636-8.129-8.888-3.55-1.065-6.93.615-9.403 3.126-2.639 2.679-4.52 6.148-5.756 9.677-1.04 2.974-2.038 7.143 1.473 8.862 2.045 1 4.547 1.016 6.768.896a33.568 33.568 0 0 0 6.849-1.091c-3.758 5.593-5.69 12.153-7.023 18.719-.753 3.707-1.455 7.452-1.969 11.2-.567 4.133-.837 8.297-.96 12.464a260.89 260.89 0 0 0-.1 6.364c-.01 2.046.028 4.091-.141 6.133-.339 4.086-1.3 8.084-2.263 12.06-.963 3.977-1.787 7.972-2.558 11.99-.786 4.102-1.519 8.217-1.995 12.367-.476 4.154-.562 8.34-.95 12.504-.391 4.213-.873 8.42-1.045 12.65a81.553 81.553 0 0 0-.067 3.163c-.001.832 1.292.833 1.294 0 .007-4.173.384-8.328.79-12.477.205-2.104.415-4.207.578-6.315.16-2.066.22-4.138.376-6.204.314-4.167.966-8.299 1.715-12.406.74-4.053 1.493-8.115 2.437-12.127.913-3.883 1.947-7.747 2.557-11.694.63-4.08.535-8.148.588-12.26.053-4.161.198-8.325.599-12.467.381-3.933 1.086-7.82 1.802-11.704 1.312-7.118 2.997-14.354 6.93-20.535.491-.77 1.015-1.52 1.566-2.249.21-.276.135-.549-.058-.726a.552.552 0 0 0-.672-.223 32.293 32.293 0 0 1-6.843 1.458c-2.046.209-4.223.306-6.242-.169-1.3-.305-2.61-.937-3.014-2.313-.433-1.477.073-3.14.51-4.562.977-3.19 2.55-6.323 4.683-8.9 1.938-2.34 4.653-4.532 7.875-4.236 4.634.424 7.404 4.937 8.787 8.902.132.376.488.491.792.424a.596.596 0 0 0 .271-.051c4.555-1.922 9.606-2.278 14.34-3.608 2.355-.662 4.691-1.4 7.081-1.931 2.559-.568 5.156-.755 7.762-.973 5.199-.435 10.428-.753 15.642-.414 4.43.288 8.708 1.217 12.975 2.392 1.96.539 3.92 1.134 5.786 1.947 1.567.684 3.329 1.54 4.385 2.94.358.475 1.04.27 1.205-.132a.667.667 0 0 0 .102-.193c1.234-3.701 1.453-7.88 4.785-10.46 1.194-.924 2.73-1.413 4.199-1.665 1.577-.271 3.365-.256 4.842.428.696.324 1.368.81 1.743 1.495.444.814.53 1.811.6 2.719.076.972.117 1.942.287 2.905.216 1.223.571 2.416.973 3.59.604 1.76 1.368 3.496 1.75 5.324.228 1.095.27 2.318-.587 3.157-.628.615-1.514.92-2.345 1.139-1.256.33-2.562.494-3.86.524-2.648.06-5.24-.537-7.562-1.816a.506.506 0 0 0-.51-.142c-.45.061-.746.645-.463 1.023.778 1.694 1.7 3.316 2.535 4.981.893 1.779 1.55 3.604 2.115 5.51.56 1.89 1.07 3.793 1.648 5.677.598 1.954 1.332 3.858 1.982 5.794 2.51 7.49 4.056 15.24 5.025 23.07 2.01 16.254 1.936 32.627 2.003 48.973.038 9.53.594 19.05.599 28.58 0 .832 1.293.834 1.293 0-.004-8.587-.454-17.165-.573-25.75"/>
        <path fill="#231F20" d="M101.004 77.24c-1.99 2.966-5.098 5.225-8.711 5.62-3.797.414-7.507-1.145-10.568-3.274-1.504-1.045-2.984-2.237-4.07-3.728-.97-1.331-1.639-2.85-2.04-4.443-.808-3.197-.588-6.597.037-9.805a42.733 42.733 0 0 1 3.722-10.903c.87-1.737 1.802-3.438 3.44-4.562 1.35-.927 2.941-1.412 4.554-1.627.83-.11 1.67-.148 2.508-.15 3.653.058 7.403 2.061 9.916 4.642 2.43 2.493 3.52 6.146 4.202 9.476 1.272 6.22.618 13.378-2.99 18.755m4.14-16.564c-.466-3.593-1.419-7.417-3.42-10.484-2.014-3.089-5.619-5.327-9.15-6.231a11.64 11.64 0 0 0-2.698-.371c-3.444.013-7.057.79-9.318 3.606-1.335 1.664-2.228 3.77-3.045 5.724a46.12 46.12 0 0 0-2.052 6.052c-1.729 6.577-2.055 14.6 3.54 19.465 2.962 2.575 6.569 4.693 10.522 5.17 3.839.461 7.593-.959 10.3-3.695 4.793-4.847 6.17-12.69 5.32-19.236"/>
        <g transform="translate(59.222 95.258)">
            <mask id="b" fill="#fff">
                <use xlink:href="#a"/>
            </mask>
            <path fill="#231F20" d="M3.151 50.664c-1.247-1.643-1.65-3.654-1.795-5.673a79.369 79.369 0 0 1-.197-6.324c.041-4.716 1.185-9.239 1.917-13.869.352-2.231.751-4.498 1.704-6.564.906-1.964 2.1-3.805 3.46-5.485 2.52-3.116 5.676-5.973 9.132-8.022 3.578-2.12 7.7-2.71 11.763-3.233 4.151-.533 8.567-.84 12.489.885 6.465 2.844 10.96 9.49 13.137 16.006 1.48 4.423 2.477 9.062 3.181 13.667.37 2.423.627 4.85.69 7.302.065 2.48-.015 4.963-.075 7.443a166.251 166.251 0 0 0-.052 3.662c-.001.5.775.5.776 0 .006-5.165.426-10.347-.17-15.496a91.438 91.438 0 0 0-2.937-14.596c-1.995-6.972-5.935-13.952-12.354-17.73-1.52-.896-3.18-1.579-4.909-1.948-2.164-.463-4.426-.435-6.623-.287-2.409.163-4.8.525-7.18.924-2.02.338-3.995.778-5.885 1.588-3.631 1.558-6.874 4.282-9.597 7.103-3.06 3.169-5.66 6.962-6.685 11.295-.548 2.315-.768 4.69-1.248 7.017-.485 2.35-.938 4.688-1.15 7.08-.209 2.357-.127 4.692-.066 7.052.052 2.03.085 4.123.712 6.075a8.376 8.376 0 0 0 1.292 2.52c.298.393.972.007.67-.392" mask="url(#b)"/>
        </g>
        <path fill="#231F20" d="M72.493 42.855c-.307-.356-.78-.527-1.242-.524a.63.63 0 0 0-.19.035.67.67 0 0 0-.23.13c-.013.01-.027.013-.038.024-.009.01-.015.023-.024.033a.645.645 0 0 0-.082.112c-.904 1.143-.858 2.82.136 3.903a.647.647 0 0 0 .629.167c.764-.205 1.257-.93 1.44-1.662.19-.752.122-1.612-.399-2.218M108.227 42.019c-.016-.009-.034-.01-.051-.016a.752.752 0 0 0-.194-.059.59.59 0 0 0-.47.112l-.01.01c-.02.017-.04.033-.059.054-.022.025-.038.055-.059.082-.012.018-.031.028-.042.048-.003.006-.003.013-.006.02-.859 1.132-1.026 2.819-.21 4.022.207.305.553.395.886.232.815-.4 1.224-1.345 1.317-2.203.097-.898-.27-1.87-1.102-2.302"/>
        <path fill="#E4E7EB" d="M135.429 10.692c-.513-.927-1.361-1.733-2.401-2.014-1.093-.295-2.283.054-3.12.797-.793.705-1.188 1.765-1.538 2.738-.328.913-.602 1.96-1.3 2.67a.646.646 0 0 0-.155.244c-.104.211-.086.468.155.67 1.341 1.131 2.97 1.978 4.743 2.11 1.452.107 2.937-.434 3.713-1.72.435-.724.597-1.588.602-2.423.005-1.054-.185-2.144-.699-3.072M47.64 11.846c-1.815-1.3-4.123-1.043-5.707.492-1.004.973-1.684 2.29-2.124 3.602-.297.886-.485 1.917-.109 2.808.68 1.606 2.716 1.642 4.189 1.456 2.032-.258 4.005-.917 5.904-1.666.243-.096.426-.287.466-.527a.707.707 0 0 0 .034-.172c.153-2.274-.77-4.644-2.653-5.993"/>
        <path fill="#231F20" d="M94.697 48.635c-.66-.148-1.34-.166-2.012-.14-.911.034-1.819-.001-2.73-.032-1.791-.06-3.567-.011-5.234.694l-.024.006c-3.998 1.445 1.738 6.042 3.443 6.934.693.363 1.39.523 2.073.526-.027 1.363-.083 2.727-.081 4.094.034 1.456.14 2.918.428 4.348-.04.006-.08.013-.12.015a1.882 1.882 0 0 1-.383-.025c-.273-.028-.614-.126-.942-.242-.343-.095-.667-.25-1.009-.375a7.676 7.676 0 0 1-.97-.48c-.313-.184-.6-.38-.813-.753h-.104c.008.432.242.81.507 1.117.272.31.592.572.932.798.684.444 1.428.811 2.252.958.42.05.844.006 1.24-.138a2.883 2.883 0 0 0 1.035-.678c.586-.587.967-1.32 1.341-2.033l-.09-.048c-.7.541-1.26 1.141-1.817 1.497-.287.166-.532.302-.793.344l-.023.004c.139-.699.216-1.358.27-2.015.05-.387.044-.769.075-1.153l.018-1.153-.048-1.163c-.045-.39-.056-.781-.132-1.175a9.438 9.438 0 0 0-.412-1.763c1.932-.148 3.718-1.517 4.927-3.095.673-.878 1.429-2.057 1.162-3.223-.213-.935-1.087-1.455-1.966-1.651z"/>
        <path fill="#181818" d="M84.895 97.651c.183.302.286.597.356.9.076.3.1.608.102.92-.014.311-.048.628-.152.937-.1.307-.25.61-.507.855l-.05-.013c.152-.583.19-1.187.192-1.788.019-.601-.001-1.206.007-1.81h.052zM84.294 104.263c.169.236.237.481.264.722.032.242.003.477-.044.707a2.2 2.2 0 0 1-.279.647c-.13.2-.294.388-.544.534l-.048-.018c.148-.42.273-.85.368-1.283.11-.43.195-.87.231-1.313l.052.004zM77.283 103.868c.065.404.035.785-.023 1.151a7.396 7.396 0 0 1-.255 1.06c-.118.34-.236.673-.389.999-.147.329-.31.652-.533.991l-.052-.006c.08-.73.267-1.443.482-2.142l.721-2.069.05.016zM72.226 102.458a4.213 4.213 0 0 1-.122-.369l-.026-.092-.011-.045-.005-.023-.003-.012.387-.001v-.002l.001.002.001.006.046.184c.05.246.097.492.127.737.07.491.089.983.096 1.474a11.85 11.85 0 0 1-.097 1.474c-.065.491-.16.983-.342 1.474h-.052l-.026-2.948.013-1.474.006-.737.002-.184v-.008.002c.123 0 .034 0 .062.001v.012l-.001.023v.045l-.001.092-.003.37h-.052zM69.674 118.28c.183.601.267 1.209.313 1.814.052.606.046 1.21.029 1.81a19.52 19.52 0 0 1-.166 1.794 11.528 11.528 0 0 1-.376 1.792h-.052c-.005-1.204.036-2.406.077-3.607.058-1.2.115-2.402.123-3.603h.052zM74.08 120.883c.184.418.3.825.384 1.241.09.416.13.839.145 1.269-.002.43-.028.868-.139 1.3-.105.43-.279.864-.591 1.205l-.049-.017c.262-.795.28-1.646.261-2.48-.004-.837-.068-1.676-.062-2.518h.051zM74.68 137.914c.117.246.174.445.208.644.04.2.038.394.025.596-.03.2-.07.41-.17.613a1.268 1.268 0 0 1-.464.55l-.05-.014c.104-.392.137-.796.17-1.201.049-.403.104-.813.231-1.203l.05.015zM82.492 123.687c.184.366.293.722.376 1.083.088.36.132.722.164 1.089.016.367.023.738-.029 1.114a3.411 3.411 0 0 1-.311 1.12h-.052a31.906 31.906 0 0 0-.123-2.2 34.478 34.478 0 0 1-.077-2.206h.052zM88.7 123.885c.202.184.31.391.377.603.073.212.085.43.076.646-.025.215-.07.43-.178.63-.1.201-.243.391-.477.534l-.049-.015c.108-.388.167-.788.189-1.188.038-.4.04-.804.01-1.205l.052-.005zM84.494 112.673c.167.458.246.91.293 1.362.054.451.056.9.047 1.35-.026.448-.061.898-.148 1.346-.081.45-.193.898-.392 1.348h-.051l.074-2.704.126-2.704.051.002zM91.504 108.667c.183.383.279.767.343 1.151a7.2 7.2 0 0 1 .097 1.152 7.265 7.265 0 0 1-.098 1.151c-.065.384-.16.768-.342 1.152h-.052l-.025-2.303.025-2.303h.052zM91.704 101.858c.183.2.279.4.343.6.07.2.089.401.097.601-.01.2-.028.4-.098.6-.065.201-.16.402-.342.602h-.052l-.025-1.202.025-1.201h.052zM101.718 103.06c.165.3.23.607.256.909.03.302.001.6-.045.892a3.59 3.59 0 0 1-.275.843c-.128.271-.29.532-.538.766l-.05-.013a25.3 25.3 0 0 0 .355-1.691c.113-.565.201-1.134.245-1.708l.052.003zM114.936 103.66c.183.317.278.634.343.951.07.317.088.634.096.952a4.999 4.999 0 0 1-.098.951c-.064.317-.159.634-.341.95h-.052l-.026-1.901.026-1.903h.052zM110.33 106.864c.182.334.288.662.361.997.08.333.107.673.113 1.019-.011.345-.044.697-.151 1.04-.1.342-.258.68-.525.957l-.05-.014c.173-.647.212-1.319.208-1.986.013-.67-.017-1.34-.009-2.013h.053zM99.314 111.868c.224.274.377.542.506.821.134.277.225.57.301.871.06.306.106.624.08.952-.02.326-.093.663-.286.965l-.051-.002c.013-.608-.106-1.21-.247-1.8-.125-.597-.277-1.192-.354-1.8l.051-.007zM95.509 117.874c.226.185.367.384.482.586.12.2.194.407.262.615.054.212.102.423.112.651.015.227.01.463-.057.746l-.047.022a8.591 8.591 0 0 1-.504-1.274c-.12-.441-.214-.888-.299-1.335l.05-.011zM106.524 114.874l.568.956c.187.3.36.61.53.943.155.338.309.698.38 1.095.078.392.086.823-.076 1.211l-.052.004c-.05-.744-.386-1.423-.717-2.084-.315-.668-.65-1.364-.685-2.122l.052-.003zM112.532 117.078c.183.27.301.513.402.76.107.244.178.493.246.75.052.259.102.526.1.808.005.282-.022.578-.147.882l-.051.01c-.114-.532-.272-1.053-.405-1.583-.116-.533-.208-1.078-.197-1.627h.052zM104.321 127.493c.176.246.279.468.363.688.091.218.144.432.2.648.039.219.082.438.09.676.014.237.011.486-.054.78l-.048.022a6.892 6.892 0 0 1-.493-1.367 5.802 5.802 0 0 1-.11-1.449l.052.002zM98.714 130.096c.179.27.273.536.342.798.074.263.1.523.123.783.005.261.007.52-.034.787a2.849 2.849 0 0 1-.231.832l-.051.008a14.66 14.66 0 0 1-.2-1.599 22.276 22.276 0 0 1-.001-1.61l.052.001zM93.105 137.914c.107.255.131.483.13.696a2.42 2.42 0 0 1-.084.604 2.655 2.655 0 0 1-.23.548c-.1.18-.22.356-.416.55l-.052-.004c.019-.417.097-.83.2-1.232.119-.4.264-.788.403-1.178l.049.016zM84.289 13.137c.278.3.342.6.352.901-.012.301-.075.601-.352.902h-.042l-.02-.902.02-.9h.042zM87.092 12.53c.375.291.526.661.625 1.024.081.372.108.731-.025 1.178l-.039.015a10.814 10.814 0 0 1-.337-1.095c-.085-.371-.164-.743-.264-1.11l.04-.011zM93.3 12.935c.312.339.409.708.452 1.078.022.372-.008.75-.25 1.126l-.042.001-.12-1.098-.08-1.103.04-.004zM96.904 16.15c.133.387.144.639.122.915a1.927 1.927 0 0 1-.32.875l-.041.007a3.498 3.498 0 0 1-.05-.924c.039-.307.119-.611.252-.89l.037.017zM90.898 16.542c.278.7.341 1.402.352 2.102-.012.701-.075 1.402-.352 2.103h-.041l-.021-2.103.02-2.102h.042zM91.296 23.342c.316.01.44.114.515.243.056.139.067.3-.114.558l-.037.018-.22-.39-.18-.41.036-.02zM87.493 19.744c.311.208.406.424.448.65.021.23-.01.464-.248.75l-.04.008-.121-.699-.08-.705.041-.004z"/>
        <path fill="#FFDBD6" d="M63.596 54.36c0 3.151-2.033 5.707-4.54 5.707-2.508 0-4.54-2.556-4.54-5.708s2.032-5.707 4.54-5.707c2.507 0 4.54 2.555 4.54 5.707M125.753 54.657c0 3.152-2.033 5.708-4.54 5.708-2.508 0-4.54-2.556-4.54-5.708s2.032-5.707 4.54-5.707c2.507 0 4.54 2.555 4.54 5.707"/>
        <g fill="#999DA6">
            <path d="M44.85 19.36l.021-.007.021-.007-.02.007-.021.008zM41.503 18.12l.341-.125.394-.143.005-.002-.366.133-.37.135-.004.001zM42.228 14.606l.339-.123.354-.13-.345.126-.347.126zM43.924 11.705l.023-.008.022-.008-.023.008-.022.008zM47.437 17.029l.023-.009.021-.007-.022.008-.022.008zM46.669 13.216zM45.161 16.154h.002-.001z"/>
        </g>
        <g fill="#999DA6">
            <path d="M133.456 16.422l.02-.007.02-.008-.02.008-.02.007zM130.107 15.181l.342-.124.394-.144.005-.001-.366.133-.37.135-.005.001zM130.833 11.668l.339-.124.354-.128-.345.125-.347.126h-.001zM132.53 8.767l.022-.008.022-.008-.023.008-.022.008zM136.042 14.09l.022-.008.022-.008-.023.009-.022.008zM135.273 10.277zM133.766 13.216h.001z"/>
        </g>
        <g>
            <path fill="#E4E7EB" stroke="#181818" d="M133.184 202.236c-1.36 5.948-.773 10.89 2.92 16.077 1.427 2.001 3.382 3.747 5.793 4.607 4.458 1.59 10.078.142 13.62-2.769 5.22-4.29 3.24-10.617 3.212-16.35M9.887 200.339c-1.36 5.949-.773 10.89 2.92 16.077 1.426 2.001 3.382 3.747 5.793 4.608 4.458 1.59 10.077.14 13.619-2.77 5.22-4.29 3.241-10.617 3.213-16.35"/>
            <path fill="#FFD7D5" stroke="#181818" d="M3.722 185.638c1.489-3.972.705-10.695 1.009-15.125.384-5.577.87-11.165 1.96-16.654 2.109-10.646 6.456-20.84 15.664-27.163 4.116-2.826 11.097 1.323 13.933 4.57 1.54 1.766 2.418 4.836 3.474 6.95.001 0 12.874-4.365 14.135-4.67 5.065-1.223 10.046-.985 15.23-.9 13.582.222 27.16.975 40.698 2.063 1.475.121 21.63 3.175 21.021 4.472 1.528-3.276 3.17-6.696 6.096-8.82 2.903-2.107 6.902-2.606 10.235-1.28 1.665.662 3.131 1.727 4.679 2.626 1.416.82 2.93 1.523 4.109 2.658.91.88 1.575 1.976 2.23 3.059l4.043 6.695c6.986 11.567 4.266 29.162 4.616 42.454.078 2.017 4.06 2.447 3.993 6.02-.071 3.616-3.034 7.171-5.765 9.295-5.17 4.021-15.15 1.333-21.163.78-2.197-.203-8.464-1.984-10.26-.906-3.926 2.355-8.102 6.09-12.396 7.64-5.006 1.808-11.719 1.53-17 1.808-17.659.935-35.32-1.13-52.881-2.726-3.01-.274-6.205-.618-8.576-2.49-1.251-.989-2.179-2.337-3.421-3.337-3.209-2.58-11.2-1.482-15.133-1.72-5.024-.305-10.737.368-15.694-1.352-2.535-.88-5.26-2.429-6.467-4.97-1.645-3.46.383-5.65 1.63-8.977z"/>
            <path fill="#FEF4CA" stroke="#000" d="M22.34 135.476c.2-.035.397-.05.594-.046 5.26.142 8.762 5.626 10.036 10.164 1.665 5.937-.783 13.06-5.275 17.187-1.51 1.386-3.52 2.364-5.562 2.184-1.725-.152-3.297-1.11-4.517-2.338-3.568-3.594-6.494-9.456-6.012-14.586.483-5.154 5.43-11.641 10.736-12.565zM146.586 136.424c.2-.035.397-.05.594-.045 5.26.141 8.762 5.625 10.035 10.163 1.79 6.38-1.563 16.06-8.03 18.764-8.832 3.694-14.239-11.928-12.786-18.232 1.158-5.025 4.91-9.73 10.187-10.65z"/>
            <path fill="#FFF" stroke="#181818" d="M44.979 188.958c-3.033-7.887-7.851-18.28-1.145-25.529 3.49-3.77 8.558-5.665 13.569-6.811 9.107-2.086 18.422-2.062 27.708-1.922 9.51.145 19.087.293 28.45 2.14 16.132 3.18 17.456 19.679 13.932 33.07l-82.514-.948z"/>
            <path stroke="#2D0C17" d="M43.937 185.486l84.031-.322M42.04 181.669l86.876-.298"/>
            <path stroke="#181818" d="M41.092 177.856l87.824-.279M40.143 174.044l88.773-.262M40.143 170.235l87.825-.246M42.04 166.427l84.979-.232M44.885 162.695l79.289-.294M52.473 157.855l64.114-.196"/>
        </g>
        <path fill="#FFF" stroke="#181818" stroke-linejoin="round" d="M125.332 129.375c1.615-2.715 3.166-3.424 7.501-3.616 4.336-.191 5.261.2 8.626.608 3.364.408 4.21.061 6.071 4.416 1.24 2.903 1.24 6.24 0 10.01-.815 1.732-2.046 2.35-3.692 1.854-1.647-.497-3.126-2.08-4.437-4.749-.254 3.166-1.495 4.749-3.722 4.749-2.228 0-3.392-1.583-3.492-4.75-.36 3.167-1.429 4.75-3.208 4.75-1.779 0-2.994-1.424-3.647-4.272-1.076-4.19-1.076-7.19 0-9zM25.715 129.375c1.615-2.715 3.166-3.424 7.502-3.616 4.335-.191 5.26.2 8.625.608s4.211.061 6.072 4.416c1.24 2.903 1.24 6.24 0 10.01-.815 1.732-2.046 2.35-3.693 1.854-1.647-.497-3.126-2.08-4.437-4.749-.254 3.166-1.494 4.749-3.722 4.749-2.228 0-3.392-1.583-3.492-4.75-.36 3.167-1.428 4.75-3.207 4.75-1.78 0-2.995-1.424-3.648-4.272-1.076-4.19-1.076-7.19 0-9z"/>
    </g>
</svg>
