<svg xmlns="http://www.w3.org/2000/svg" xmlns:xlink="http://www.w3.org/1999/xlink" width="249" height="471" viewBox="0 0 249 471">
    <defs>
        <path id="a" d="M.384.287h55.422v47.809H.384z"/>
    </defs>
    <g fill="none" fill-rule="evenodd">
        <path fill="#FFF" stroke="#FFF" stroke-width=".5" d="M16.405 386.28l7.967-20.152 6.04-12.472 7.116-12.89 5.434-9.511 2.832-8.717 5.965-15.7 5.787-9.518 4.806-6.654 4.637-4.747 2.147-1.743-.12-.582-4.88-.29-5.959-1.401-3.085-2.29-.654-2.98 4.288-6.278 7.132-4.714 3.418-.778 2.562.832 3.172 2.57 1.201 2.8.808 4.083v1.565l1.523.081 7.61.46 8.02.579 8.81.881 8.308 2.125 8.499 2.761 7.833 4.17 7.29 4.805 3.67 4.59.744.095 3.31-5.251 4.362-3.33 4.366-.167 3.561 1.157 1.742 2.727-.6 3.566-.681 3.265.018 3.257.179 4.765-1.312 2.16-3.313.555-4.306-1.4-5.052-3.272-.54-.175-.532.46 1.292 6.972-.206 12.737-.198 10.684-1.632 12.226-5.415 23.394-8.086 24.885-7.12 23.193z"/>
        <path fill="#231F20" d="M127.278 396.88c2.305-7.44 4.815-14.814 7.037-22.282 2.209-7.427 4.217-14.92 5.774-22.514 1.498-7.31 2.558-14.704 2.668-22.175.03-2.056-.062-4.104-.089-6.159-.028-2.16.083-4.317.154-6.475.068-2.061.083-4.096-.197-6.144-.187-1.367-.446-2.723-.665-4.086a15.187 15.187 0 0 0 4.654 2.703c2.015.736 4.444 1.288 6.594.928 1.387-.232 2.469-1.049 2.977-2.369.556-1.441.468-3.11.424-4.624-.074-2.438-.203-4.876.4-7.262.461-1.829 1.04-3.815-.055-5.533-1.836-2.88-6.084-3.695-9.239-3.199-2.078.326-3.998 1.547-5.376 3.107-1.329 1.505-2.262 3.295-3.384 4.95-1.306-2.522-3.934-4.41-6.17-5.982-3.22-2.263-6.603-4.366-10.182-6.008-4.6-2.11-9.48-3.52-14.384-4.722-2.454-.602-4.924-1.253-7.416-1.676-2.336-.396-4.706-.49-7.07-.567-2.69-.086-5.344-.256-8.015-.585-2.574-.317-5.161-.63-7.756-.448-.185-3.893-1.321-7.967-4.68-10.295-2.862-1.982-6.368-1.462-9.305.062-3.135 1.627-5.821 4.18-7.948 6.972-1.793 2.354-3.894 5.788-1.257 8.342 1.536 1.487 3.766 2.227 5.784 2.764a31.52 31.52 0 0 0 6.433 1.013c-4.978 3.905-8.607 9.202-11.704 14.68-1.748 3.092-3.46 6.233-5.008 9.43-1.706 3.526-3.155 7.167-4.474 10.853a244.98 244.98 0 0 0-1.936 5.654c-.602 1.824-1.162 3.662-1.905 5.436-1.489 3.551-3.507 6.843-5.52 10.113-2.015 3.273-3.91 6.601-5.764 9.967-1.893 3.434-3.741 6.896-5.37 10.464-1.63 3.572-2.923 7.286-4.477 10.892-1.572 3.648-3.223 7.266-4.605 10.994a76.58 76.58 0 0 0-.976 2.805c-.243.743.912 1.119 1.155.376 1.217-3.725 2.76-7.326 4.325-10.914.795-1.82 1.592-3.637 2.35-5.471.742-1.8 1.397-3.632 2.135-5.432 1.49-3.63 3.271-7.13 5.132-10.582 1.837-3.405 3.688-6.814 5.695-10.122 1.942-3.204 3.986-6.354 5.677-9.702 1.746-3.46 2.842-7.122 4.083-10.779 1.254-3.7 2.592-7.376 4.152-10.96 1.482-3.401 3.24-6.668 5.006-9.928 3.237-5.976 6.841-11.95 12.147-16.329a32.12 32.12 0 0 1 2.051-1.553c.268-.187.28-.452.159-.666a.518.518 0 0 0-.535-.394c-2.191.01-4.392-.22-6.534-.683-1.889-.408-3.86-.952-5.526-1.962-1.072-.65-2.06-1.595-2.02-2.94.041-1.446.976-2.783 1.779-3.928 1.798-2.565 4.112-4.906 6.764-6.588 2.41-1.527 5.47-2.697 8.263-1.499 4.015 1.724 5.18 6.559 5.264 10.5.008.375.293.58.584.609a.56.56 0 0 0 .257.033c4.625-.394 9.24.753 13.853.94 2.295.091 4.596.11 6.884.33 2.45.234 4.824.82 7.214 1.382 4.77 1.12 9.532 2.354 14.09 4.17 3.872 1.542 7.423 3.613 10.893 5.9 1.594 1.05 3.172 2.15 4.602 3.418 1.201 1.066 2.526 2.342 3.063 3.9.182.526.851.541 1.114.23a.626.626 0 0 0 .148-.142c2.176-2.948 3.584-6.617 7.308-7.954 1.334-.478 2.847-.469 4.233-.268 1.487.215 3.08.748 4.2 1.787.527.491.986 1.121 1.123 1.842.16.855-.053 1.77-.253 2.601-.215.89-.46 1.768-.587 2.678-.162 1.155-.19 2.323-.172 3.488.028 1.747.207 3.52.016 5.263-.113 1.044-.43 2.149-1.44 2.65-.738.366-1.618.382-2.424.335a15.703 15.703 0 0 1-3.598-.651c-2.383-.715-4.526-2-6.228-3.816a.475.475 0 0 0-.414-.275c-.419-.076-.853.36-.71.779.204 1.738.555 3.454.819 5.184.281 1.848.338 3.668.29 5.535-.049 1.85-.145 3.697-.177 5.547-.032 1.919.071 3.833.09 5.75.068 7.417-.8 14.787-2.207 22.061-2.92 15.099-7.738 29.7-12.422 44.317-2.73 8.521-4.997 17.184-7.758 25.697-.241.743.913 1.12 1.155.375 2.488-7.67 4.575-15.461 6.96-23.162"/>
        <path fill="#231F20" d="M100.847 346.898c-2.638 2.07-6.07 3.186-9.41 2.49-3.51-.731-6.372-3.2-8.488-5.99-1.04-1.37-2.016-2.863-2.552-4.51-.48-1.47-.637-3.02-.534-4.56.207-3.089 1.39-6.062 2.879-8.745a40.127 40.127 0 0 1 6.487-8.657c1.281-1.299 2.607-2.548 4.397-3.076 1.474-.436 3.036-.408 4.538-.132.774.142 1.534.353 2.284.593 3.245 1.113 6.013 3.99 7.508 7.024 1.446 2.931 1.36 6.51 1.003 9.681-.668 5.925-3.33 12.127-8.112 15.882m8.503-13.59c.627-3.345.885-7.036-.011-10.356-.903-3.343-3.473-6.387-6.365-8.22a10.93 10.93 0 0 0-2.301-1.114c-3.08-.988-6.531-1.342-9.367.517-1.676 1.098-3.084 2.72-4.381 4.228a43.307 43.307 0 0 0-3.588 4.81c-3.453 5.371-6.073 12.441-2.487 18.41 1.897 3.159 4.504 6.097 7.897 7.67 3.293 1.526 7.058 1.347 10.27-.311 5.687-2.938 9.193-9.542 10.333-15.635"/>
        <g transform="rotate(18 -1078.482 359.494)">
            <mask id="b" fill="#fff">
                <use xlink:href="#a"/>
            </mask>
            <path fill="#231F20" d="M2.96 47.574c-1.172-1.543-1.551-3.431-1.687-5.327a74.528 74.528 0 0 1-.185-5.938c.04-4.429 1.113-8.675 1.8-13.023.331-2.095.706-4.224 1.6-6.165.852-1.844 1.972-3.572 3.249-5.15 2.367-2.926 5.33-5.608 8.576-7.532 3.36-1.992 7.23-2.545 11.045-3.036 3.898-.5 8.044-.789 11.727.831 6.071 2.67 10.292 8.91 12.337 15.03 1.388 4.153 2.325 8.509 2.986 12.833.348 2.275.59 4.555.649 6.856.06 2.33-.015 4.66-.071 6.99a156.113 156.113 0 0 0-.05 3.438c0 .47.728.47.73 0 .005-4.85.4-9.716-.16-14.55a85.86 85.86 0 0 0-2.758-13.706c-1.873-6.547-5.573-13.101-11.6-16.649-1.429-.84-2.987-1.482-4.61-1.83-2.032-.434-4.156-.407-6.22-.268-2.261.152-4.506.492-6.74.867-1.898.318-3.752.73-5.527 1.492-3.41 1.462-6.456 4.02-9.012 6.669-2.874 2.975-5.315 6.538-6.277 10.607-.515 2.173-.721 4.403-1.172 6.589-.456 2.205-.881 4.402-1.08 6.648-.196 2.213-.119 4.405-.062 6.621.049 1.907.08 3.872.668 5.705a7.866 7.866 0 0 0 1.214 2.366c.28.369.913.006.63-.368" mask="url(#b)"/>
        </g>
        <path fill="#231F20" d="M85.363 307.917c-.171-.407-.545-.697-.958-.829a.59.59 0 0 0-.18-.024.63.63 0 0 0-.244.049c-.013.006-.027.005-.04.012-.01.006-.019.015-.03.022a.606.606 0 0 0-.106.076c-1.14.759-1.585 2.269-1.011 3.525.089.196.304.32.513.332.741.039 1.392-.466 1.77-1.067.387-.616.576-1.404.286-2.096M117.517 317.539c-.011-.012-.027-.018-.04-.029a.706.706 0 0 0-.15-.106c-.003 0-.005-.002-.007-.003a.554.554 0 0 0-.451-.036c-.005.001-.008.004-.012.006-.023.01-.047.017-.069.03-.027.017-.05.04-.076.057-.016.012-.036.016-.052.031-.004.004-.006.01-.01.015-1.096.762-1.735 2.22-1.355 3.532a.625.625 0 0 0 .723.464c.845-.12 1.484-.846 1.816-1.585.346-.774.301-1.75-.317-2.376"/>
        <path fill="#E4E7EB" d="M150.9 297.455c-.188-.976-.712-1.942-1.56-2.495-.89-.58-2.053-.614-3.016-.193-.914.4-1.574 1.231-2.17 1.999-.557.72-1.105 1.575-1.935 2.007a.607.607 0 0 0-.21.173c-.153.158-.211.393-.055.644.87 1.399 2.079 2.628 3.624 3.26 1.266.517 2.749.465 3.815-.46.598-.519.994-1.244 1.24-1.988.31-.94.457-1.968.268-2.947M72.165 273.012c-1.243-1.687-3.379-2.128-5.24-1.216-1.178.577-2.167 1.556-2.94 2.6-.523.705-.99 1.571-.913 2.476.141 1.632 1.949 2.255 3.318 2.516 1.89.36 3.843.343 5.756.226.245-.016.464-.133.57-.336a.664.664 0 0 0 .08-.144c.796-1.986.66-4.37-.63-6.122"/>
        <path fill="#231F20" d="M103.515 319.521c-.547-.323-1.148-.537-1.757-.709-.823-.233-1.623-.528-2.428-.82-1.583-.573-3.182-1.045-4.875-.899-.009 0-.016-.002-.024-.001-3.99.13-.201 5.9 1.062 7.19.514.526 1.09.871 1.7 1.072-.42 1.21-.866 2.411-1.26 3.633-.393 1.31-.723 2.646-.88 4.007-.038-.006-.075-.012-.112-.022a1.767 1.767 0 0 1-.334-.133c-.236-.104-.512-.29-.772-.49-.279-.184-.522-.416-.792-.627a7.208 7.208 0 0 1-.727-.71c-.226-.256-.426-.514-.508-.909l-.092-.03c-.119.388-.02.793.128 1.145.153.356.363.683.602.983.481.595 1.04 1.139 1.732 1.51.362.165.752.25 1.147.235.394-.013.777-.13 1.122-.305.694-.354 1.247-.897 1.788-1.425l-.068-.07c-.781.28-1.455.654-2.056.81-.305.065-.563.115-.808.077l-.022-.003c.327-.584.587-1.15.825-1.721.157-.332.263-.674.402-1.009l.35-1.024.296-1.052c.072-.361.176-.714.223-1.088a8.862 8.862 0 0 0 .143-1.694c1.769.428 3.76-.276 5.299-1.335.855-.589 1.872-1.422 1.973-2.54.08-.898-.55-1.615-1.277-2.046z"/>
        <path fill="#181818" d="M80.538 360.452c.076.322.082.615.057.906-.02.29-.087.572-.176.852a3.154 3.154 0 0 1-.408.792 1.87 1.87 0 0 1-.7.617l-.041-.027c.305-.476.514-1.004.69-1.54.191-.532.349-1.078.532-1.615l.046.015zM78.083 366.181c.082.26.071.5.026.722a1.984 1.984 0 0 1-.244.619 2.065 2.065 0 0 1-.437.496 1.5 1.5 0 0 1-.64.32l-.039-.03c.255-.333.49-.68.701-1.04.224-.352.426-.72.588-1.105l.045.018zM71.937 363.795c-.06.38-.198.71-.356 1.02a6.945 6.945 0 0 1-.535.873 9.559 9.559 0 0 1-.637.78 6.324 6.324 0 0 1-.764.73l-.044-.02c.283-.63.657-1.211 1.051-1.773l1.245-1.639.04.029zM67.83 361.068a3.956 3.956 0 0 1-.003-.365l.004-.09.003-.043.002-.023v-.01c.155.049-.345-.114.347.11v-.001.008l-.013.177a8.385 8.385 0 0 1-.1.696c-.08.458-.206.903-.342 1.344-.15.436-.31.869-.514 1.288-.2.42-.428.831-.733 1.217l-.046-.015.832-2.64.439-1.313.22-.656.054-.164.002-.005.001-.002v.001c.109.036.03.01.054.02l-.004.01-.007.02-.013.04-.028.083-.11.328-.046-.015zM60.96 374.457a7.842 7.842 0 0 1-.248 1.711c-.13.556-.31 1.093-.5 1.625a18.33 18.33 0 0 1-.668 1.554 10.825 10.825 0 0 1-.856 1.49l-.046-.014c.344-1.077.73-2.138 1.116-3.2.4-1.054.799-2.11 1.155-3.181l.046.015zM64.139 378.06c.043.427.028.824-.018 1.22-.04.397-.127.787-.239 1.175-.126.384-.276.768-.5 1.121-.219.353-.5.69-.879.905l-.038-.03c.465-.634.727-1.388.953-2.139.24-.748.425-1.516.675-2.266l.046.015zM59.732 393.444c.034.253.027.448-.001.636-.022.19-.08.362-.15.54-.085.17-.18.345-.33.497a1.19 1.19 0 0 1-.574.357l-.04-.028c.206-.32.353-.67.5-1.023.16-.346.328-.695.555-1.007l.04.028zM70.837 383.006c.058.38.052.73.022 1.076a6.805 6.805 0 0 1-.17 1.02 5.81 5.81 0 0 1-.348.986c-.15.32-.334.634-.604.91l-.046-.015a29.96 29.96 0 0 0 .528-2c.176-.667.353-1.336.572-1.993l.046.016zM76.324 384.983c.127.223.163.44.162.649.003.21-.05.408-.12.599a1.639 1.639 0 0 1-.342.511c-.148.15-.33.279-.58.338l-.04-.027c.209-.316.377-.656.513-1.007.15-.345.27-.706.36-1.073l.047.01zM75.821 373.75c.016.457-.045.885-.133 1.302-.084.418-.212.82-.35 1.219a9.47 9.47 0 0 1-.523 1.16 5.51 5.51 0 0 1-.741 1.09l-.046-.016.85-2.393.898-2.379.045.017zM83.244 372.207a3.99 3.99 0 0 1-.028 1.128c-.049.363-.143.71-.248 1.056-.12.34-.247.678-.421 1-.17.324-.365.64-.64.929l-.046-.015.646-2.064.69-2.05.047.016zM85.399 366.184c.105.232.132.438.132.636.004.199-.038.384-.088.564-.067.176-.142.35-.262.508-.116.16-.26.312-.48.438l-.046-.015.326-1.08.37-1.066.048.015zM93.992 370.164c.06.316.03.608-.035.885-.06.28-.172.536-.299.783a3.37 3.37 0 0 1-.49.674 2.299 2.299 0 0 1-.703.528l-.04-.026c.283-.462.556-.929.807-1.408.265-.47.509-.954.715-1.454l.045.018zM105.623 374.534c.071.337.064.648.03.95-.03.303-.105.591-.19.877-.1.28-.209.558-.364.822-.15.264-.326.52-.58.75l-.047-.016.53-1.706.574-1.692.047.015zM100.58 376.06c.065.35.064.674.033.994-.026.32-.1.633-.196.943a3.66 3.66 0 0 1-.436.885c-.189.276-.427.533-.746.702l-.04-.026c.342-.528.571-1.117.761-1.714.206-.594.374-1.202.576-1.8l.047.015zM89.29 377.331c.12.31.18.594.214.88.038.287.035.574.016.866-.035.29-.087.588-.205.874-.113.284-.275.565-.535.778l-.046-.016c.188-.54.257-1.111.302-1.68.061-.569.099-1.144.206-1.71l.048.008zM84.149 381.591c.148.23.216.45.26.663.05.214.055.42.056.625a2.976 2.976 0 0 1-.09.614 2.253 2.253 0 0 1-.266.65l-.049.006a8.067 8.067 0 0 1-.08-1.284c.02-.429.066-.855.12-1.279l.049.005zM94.856 382.108l.23 1.019c.08.322.145.65.2.996.04.347.073.713.022 1.088-.045.373-.163.76-.42 1.06l-.047-.012c.171-.68.068-1.383-.036-2.07-.087-.687-.184-1.406.004-2.093l.047.012zM99.583 385.82c.084.295.12.545.138.795.025.25.016.493.002.74-.029.248-.062.5-.145.753a2.036 2.036 0 0 1-.388.744l-.048-.006c.053-.508.062-1.02.097-1.53.052-.51.128-1.024.297-1.511l.047.015zM89.227 392.739c.086.27.113.499.125.72.018.22.003.427-.01.635-.028.208-.054.416-.115.631a2.57 2.57 0 0 1-.275.68l-.049.006c-.06-.45-.08-.907-.044-1.363.051-.454.16-.9.323-1.326l.045.017zM83.464 393.436c.082.293.09.558.074.812a3.89 3.89 0 0 1-.117.735c-.07.235-.144.467-.26.693-.109.228-.241.453-.447.676l-.048-.007c.067-.5.164-.996.285-1.487.137-.486.296-.964.467-1.438l.046.016zM76.187 398.79c.022.26-.023.47-.087.66-.059.193-.153.356-.25.515-.108.15-.219.295-.364.423-.141.131-.3.254-.53.37l-.046-.019c.138-.367.327-.712.536-1.042.222-.322.464-.627.701-.935l.04.029zM104.52 284.8c.162.35.131.636.053.907-.098.265-.241.515-.576.703l-.037-.012.243-.811.28-.799.037.012zM107.2 285.072c.25.368.278.742.261 1.095-.036.355-.116.684-.364 1.045l-.04.002c-.018-.359-.002-.718.018-1.075.031-.357.068-.712.086-1.069l.038.002zM112.627 287.234c.18.393.159.75.09 1.094-.088.339-.224.667-.55.933l-.038-.01.211-1.017.25-1.008.037.008zM114.912 291.151c.007.384-.057.612-.156.853a1.81 1.81 0 0 1-.54.688l-.04-.005c.038-.288.113-.57.225-.84.123-.263.283-.511.483-.722l.028.026zM109.435 289.758c.045.707-.102 1.351-.296 1.98-.214.623-.474 1.23-.925 1.776l-.037-.012.592-1.884.629-1.872.037.012zM107.817 295.947c.279.1.36.23.39.366.01.14-.029.288-.265.465l-.038.006-.082-.413-.043-.418.038-.006zM105.465 291.63c.217.276.239.496.211.711-.048.21-.143.411-.439.598l-.038-.005.095-.66.133-.652.038.008z"/>
        <path fill="#FFDBD6" d="M74.08 315.609c-.915 2.815-3.473 4.508-5.712 3.78-2.24-.727-3.312-3.6-2.398-6.415.915-2.815 3.471-4.507 5.71-3.78 2.24.728 3.314 3.6 2.4 6.415M129.502 333.911c-.915 2.815-3.472 4.507-5.71 3.78-2.24-.728-3.314-3.6-2.4-6.415.916-2.815 3.472-4.507 5.711-3.78 2.24.728 3.314 3.6 2.399 6.415"/>
        <g fill="#999DA6">
            <path d="M67.515 278.913zM65.234 276.821zM66.878 273.895zM68.91 271.808zM70.502 277.581zM70.9 273.954zM68.703 276.14z"/>
        </g>
        <g fill="#999DA6">
            <path d="M147.496 302zM145.215 299.908zM146.859 296.981zM148.891 294.894zM150.484 300.668zM150.882 297.04zM148.684 299.227z"/>
        </g>
        <g>
            <path stroke="#000" stroke-linecap="round" stroke-width=".7" d="M144.888 239.477c-7.852 10.196-25.776 32.037-33.664 42.086M207.409 206.334s-31.454 29.444-40.024 35.474c-8.57 6.03-46.843 40.621-46.843 40.621M57.672 173.605c4.742 17.716 10.151 35.36 19.044 51.49 6.64 12.046 10.764 40.677 17.471 52.691M85.015 217.25s5.432 17.19 9.47 25.113c4.036 7.923 6.895 36.428 6.895 36.428"/>
            <path fill="#FFDBD6" stroke="#181818" stroke-width=".7" d="M85.015 217.25c16.833-5.12 30.415-1.974 46.63 4.108 8.47 3.177 13.486 9.056 19.794 15.27 0 0 66.123-20.385 82.364-63.588 9.941-26.445 17.232-55.97 13.292-84.591-4.664-33.848-26.842-58.827-55.72-75.6C174.23 2.888 153.878-1.046 134.21.915c-22.405 2.231-39.593 12.883-57.866 25.091-17.618 11.766-29.476 28.804-33.496 49.729-5.701 29.673-.444 60.855 10.27 88.797 4.668 12.178 10.762 22.072 18.093 32.702 1.042 1.513 12.693 20.352 13.804 20.014z"/>
            <path fill="#EEA7A4" stroke="#181818" stroke-width=".7" d="M85.017 217.25c3.337 3.287 10.59 9.108 13.981 11.505 9.036 6.387 19.65 8.062 30.192 10.412 5.124 1.14 17.958 1.87 22.25-2.54-11.363-12.506-20.389-15.776-32.76-19.293-11.018-3.13-26.39-2.13-33.663-.085z"/>
            <path stroke="#2D0C17" stroke-width=".7" d="M124.45 3.086s13.37 10.955 33.302 17.431c19.933 6.476 47.06 1.286 47.06 1.286"/>
            <path stroke="#181818" stroke-linecap="round" stroke-width=".7" d="M163.82 22.134c-6.693 18.854-13.07 37.837-18.928 56.968-14.715 48.049-19.17 99.294-28.085 148.71l-11.234 49.753M126.34 4.27c-10.875 6.893-21.076 15.337-29.731 24.863-15.06 16.575-23.593 40.824-29.186 62.269-5.606 21.491-3.756 41.273 2.449 62.353 4.443 15.096 9.813 31.883 18.977 44.907 6.03 8.57 10.067 16.493 10.067 16.493M201.503 21.51c5.417 10.028 12.196 20.166 15.922 30.93 3.769 10.885 4.544 23.845 4.775 35.27.489 24.227-3.696 51.206-16.118 72.42-8.659 14.787-20.044 28.036-32.73 39.512-10.804 9.775-22.642 15.262-34.644 23.105"/>
            <path fill="#B1DFE3" stroke="#2D0C17" stroke-width=".592" d="M14.304 380.5c-2.437 7.303-4.744 14.66-6.802 22.079-1.259 4.536-2.75 9.257-3.246 13.958-.633 6.028-3.073 13.925-1.77 19.827 2.486 11.296 19.376 15.295 28.85 18.294 19.32 6.117 39.876 12.493 59.956 15.45 5.859.863 16.13.49 18.353-6.35l16.237-49.974"/>
            <path fill="#2D0C17" d="M9.42 403.487a256.971 256.971 0 0 1 7.513-5.582c2.553-1.792 5.055-3.655 7.643-5.387l.787-.52.537.794 5.256 7.73c1.723 2.598 3.384 5.23 5.052 7.863l-1.034-.428 11.612-1.948c1.938-.313 3.857-.724 5.787-1.079 1.93-.355 3.854-.743 5.764-1.181l.23-.054.16.187c5.942 7.001 12.277 13.67 18.256 20.634l-1.282-.325c7.018-2.913 14.015-5.885 21.106-8.618l.852-.327.584.659c5.202 5.87 10.357 11.787 15.375 17.826l-.927-.077c2.82-2.086 5.733-4.059 8.604-6.085l.152.194c-2.633 2.324-5.229 4.7-7.91 6.963l-.465.392-.464-.47c-5.532-5.572-10.927-11.27-16.275-17.01l1.433.33c-7.02 2.913-14.133 5.59-21.23 8.318l-.772.299-.51-.62c-5.818-7.1-11.285-14.496-17.144-21.563l.392.134c-1.927.359-3.847.77-5.76 1.213-1.91.441-3.833.833-5.734 1.317l-11.428 2.843-.636.156-.4-.585c-1.754-2.574-3.515-5.144-5.218-7.754l-5.02-7.884 1.324.271c-2.617 1.697-5.321 3.256-7.973 4.89a247.066 247.066 0 0 1-8.102 4.69l-.136-.206z"/>
            <path fill="#2D0C17" d="M4.909 417.369a256.971 256.971 0 0 1 7.514-5.583c2.552-1.791 5.055-3.655 7.643-5.386l.786-.521.537.794 5.257 7.73c1.722 2.598 3.383 5.231 5.051 7.864l-1.033-.428 11.612-1.949c1.937-.313 3.857-.723 5.787-1.078 1.929-.356 3.854-.743 5.764-1.182l.23-.054.16.187c5.942 7.002 12.277 13.67 18.256 20.634l-1.282-.324c7.017-2.913 14.015-5.885 21.106-8.618l.852-.328.584.66c5.201 5.87 10.357 11.787 15.375 17.825l-.927-.077c2.82-2.086 5.733-4.058 8.604-6.084l.152.193c-2.634 2.325-5.23 4.701-7.91 6.964l-.466.392-.464-.47c-5.531-5.573-10.927-11.27-16.275-17.01l1.434.33c-7.021 2.913-14.134 5.59-21.23 8.318l-.772.298-.51-.62c-5.819-7.1-11.285-14.496-17.145-21.562l.393.134c-1.928.359-3.848.77-5.76 1.213-1.911.44-3.834.832-5.735 1.316l-11.427 2.844-.637.155-.4-.584c-1.753-2.574-3.515-5.145-5.218-7.755l-5.02-7.883 1.324.27c-2.617 1.698-5.32 3.256-7.973 4.89a247.066 247.066 0 0 1-8.102 4.691l-.135-.206z"/>
            <path fill="#2D0C17" d="M.399 431.25a256.971 256.971 0 0 1 7.513-5.582c2.553-1.792 5.055-3.655 7.644-5.387l.786-.52.537.794 5.257 7.73c1.722 2.598 3.383 5.23 5.05 7.863l-1.033-.428 11.613-1.948c1.937-.313 3.857-.724 5.786-1.079 1.93-.355 3.854-.743 5.765-1.181l.229-.054.16.187c5.942 7.001 12.278 13.67 18.256 20.634l-1.282-.325c7.018-2.913 14.015-5.885 21.106-8.618l.853-.327.584.659c5.2 5.87 10.356 11.787 15.374 17.826l-.926-.077c2.82-2.086 5.732-4.059 8.603-6.085l.152.194c-2.633 2.324-5.229 4.7-7.91 6.963l-.465.392-.464-.47c-5.531-5.572-10.927-11.27-16.275-17.01l1.433.331c-7.02 2.912-14.133 5.589-21.23 8.317l-.771.299-.511-.62c-5.818-7.1-11.285-14.496-17.144-21.563l.392.134c-1.927.36-3.847.77-5.76 1.213-1.91.441-3.833.833-5.734 1.317l-11.427 2.843-.637.156-.4-.585c-1.754-2.574-3.515-5.144-5.218-7.754l-5.02-7.884 1.324.271c-2.617 1.697-5.321 3.256-7.973 4.89a247.066 247.066 0 0 1-8.102 4.69L.4 431.25z"/>
            <path fill="#B1DFE3" stroke="#2D0C17" stroke-width=".592" d="M14.446 365.838a6.55 6.55 0 0 1 3.082.265c19.264 6.367 38.533 12.717 57.825 18.985l27.114 8.81c9.24 3.002 35.982 8.152 34.847 16.786-1.317 9.996-28.819-.935-33.528-2.247-26.677-7.431-54.39-13.563-80.201-23.69-4.868-1.91-16.589-6.618-14.738-13.625.772-2.905 3.004-4.88 5.6-5.284z"/>
            <path fill="#FFF" stroke="#181818" stroke-width=".7" d="M124.566 2.732c.708 4.425 7.905 8.98 21.59 13.662 20.528 7.025 11.596 4.123 30.618 7.797 12.682 2.449 22.412 1.778 29.192-2.013-7.745-6.968-16.914-12.173-27.505-15.614-10.591-3.441-21.314-5.207-32.17-5.296l-21.725 1.464z"/>
        </g>
    </g>
</svg>
