<svg xmlns="http://www.w3.org/2000/svg" width="333" height="326" viewBox="0 0 333 326">
    <g fill="none" fill-rule="evenodd">
        <path fill="#FFC685" stroke="#000" stroke-width=".5" d="M152.5 138.026c-8.981-19.03-17.352-38.342-26.216-57.426-8.138-17.52-17.823-33.254-14.111-53.405.712-3.869 1.89-7.76 4.305-10.868 3.541-4.554 8.773-7.426 14.046-9.523 5.056-2.01 10.327-4.808 15.7-5.846 12.196-2.355 24.067 10.76 30.854 19.46 5.839 7.488 9.663 16.48 14.19 24.78l13.015 23.87 17.788 43.341-69.57 25.617z"/>
        <path fill="#FFC685" stroke="#181818" stroke-width=".5" d="M331.48 85.494s1.702-10.758-2.211-18.788c-3.498-7.178-7.819-14.393-16.05-16.506-7.79-2.001-17.82.577-20.473 8.998-2.616 8.313 1.817 24.934 3.71 30.906.078.244.102.468.335.362 4.236-1.91 16.72-2.159 19.895-2.655l14.794-2.317z"/>
        <path fill="#FFF" stroke="#181818" stroke-width=".2" d="M104.382 190.92l-5.134-12.58-2.64-8.286-2.305-8.96-1.611-6.693-2.519-5.163-4.117-9.691-1.444-6.857-.64-5.136.129-4.211.263-1.747-.319-.205-2.494 2.077-3.516 2.069-2.518.374-1.648-1.032-.724-4.735 1.354-5.324 1.31-1.892 1.614-.787 2.685-.288 1.833.704 2.214 1.454.7.697.774-.652 3.895-3.235 4.148-3.368 4.665-3.59 4.977-2.808 5.354-2.611 5.66-1.683 5.68-1.155 3.829.387.403-.294-.74-3.836.629-3.455 2.042-2.048 2.244-1.094 2.061.427 1.303 1.86 1.126 1.763 1.463 1.443 2.214 2.042.329 1.555-1.359 1.745-2.712 1.323-3.911.825-.34.166-.053.446 3.74 2.522 5.586 5.768 4.674 4.849 4.668 6.185 7.819 12.87 7.19 14.74 6.902 13.552z"/>
        <path fill="#231F20" d="M162.876 145.527c-2.204-4.357-4.28-8.777-6.536-13.108-2.246-4.307-4.617-8.554-7.253-12.64-2.537-3.934-5.324-7.707-8.607-11.085-.903-.93-1.862-1.801-2.792-2.704-.978-.95-1.887-1.961-2.816-2.955-.888-.949-1.79-1.862-2.84-2.647-.7-.525-1.432-1.012-2.146-1.52 1.188-.1 2.357-.405 3.463-.9 1.306-.583 2.73-1.435 3.612-2.567.57-.73.729-1.583.386-2.401-.374-.894-1.162-1.598-1.86-2.252-1.123-1.053-2.274-2.08-3.047-3.416-.593-1.023-1.2-2.17-2.497-2.44-2.177-.454-4.6 1.104-5.908 2.75-.863 1.085-1.249 2.497-1.22 3.815.028 1.271.374 2.49.57 3.735-1.76-.533-3.877-.187-5.663.124-2.572.447-5.151 1.04-7.62 1.925-3.172 1.14-6.168 2.718-9.083 4.398-1.459.841-2.947 1.668-4.344 2.606-1.31.88-2.501 1.908-3.682 2.943a62.159 62.159 0 0 1-4.147 3.362c-1.39 1.022-2.784 2.052-3.96 3.306-1.829-1.65-4.199-2.952-6.867-2.47-2.272.41-3.74 2.226-4.484 4.233-.793 2.141-.957 4.493-.741 6.699.182 1.859.696 4.338 3.115 4.284 1.408-.032 2.82-.71 4.039-1.383a22.242 22.242 0 0 0 3.571-2.457c-.67 3.99-.065 7.99.88 11.83.532 2.168 1.104 4.342 1.782 6.466.747 2.342 1.67 4.619 2.675 6.857.512 1.14 1.045 2.269 1.586 3.394.522 1.085 1.071 2.157 1.503 3.283.864 2.255 1.355 4.634 1.839 7.001a142.782 142.782 0 0 0 1.655 7.046c.616 2.385 1.265 4.763 2.068 7.089.804 2.328 1.836 4.567 2.692 6.876.867 2.336 1.682 4.694 2.676 6.98.248.568.507 1.132.779 1.69.214.441.942.087.728-.354-1.073-2.21-1.933-4.511-2.776-6.818-.427-1.17-.852-2.34-1.303-3.5-.443-1.136-.944-2.249-1.39-3.385-.898-2.29-1.597-4.655-2.236-7.034-.63-2.347-1.254-4.702-1.758-7.083-.488-2.306-.904-4.633-1.58-6.889-.697-2.33-1.8-4.457-2.832-6.647-1.044-2.216-2.036-4.458-2.88-6.76-.8-2.185-1.406-4.435-2.005-6.686-1.098-4.125-2.018-8.416-1.4-12.765a20.16 20.16 0 0 1 .3-1.62c.047-.203-.065-.327-.22-.368-.126-.07-.29-.07-.435.067a21.327 21.327 0 0 1-3.473 2.649c-1.098.672-2.297 1.32-3.556 1.623-.81.195-1.71.22-2.292-.396-.625-.663-.77-1.681-.89-2.554-.274-1.956-.197-4.045.338-5.993.486-1.77 1.448-3.674 3.337-4.402 2.717-1.047 5.44.58 7.24 2.298.172.163.402.126.555.007a.394.394 0 0 0 .14-.101c2.067-2.267 4.816-3.84 7.136-5.843 1.154-.997 2.278-2.028 3.486-2.965 1.293-1.003 2.706-1.814 4.116-2.645 2.812-1.656 5.672-3.26 8.693-4.51 2.566-1.064 5.212-1.746 7.916-2.296 1.242-.252 2.499-.475 3.758-.557 1.058-.069 2.27-.099 3.226.352.323.153.654-.143.643-.4a.386.386 0 0 0 .008-.13c-.26-2.297-1.216-4.568-.007-6.847.433-.816 1.171-1.496 1.932-2.033.818-.576 1.828-1.06 2.835-1.102.475-.02.979.053 1.366.313.46.308.766.812 1.04 1.273.293.494.566.995.91 1.458.438.588.945 1.121 1.474 1.632.794.766 1.672 1.475 2.358 2.337.411.516.75 1.152.485 1.831-.195.497-.614.903-1.026 1.246-.621.52-1.313.964-2.036 1.336-1.474.759-3.087 1.154-4.723 1.115a.33.33 0 0 0-.324.065c-.236.155-.253.545.004.668.875.682 1.812 1.288 2.712 1.94.961.695 1.801 1.48 2.611 2.334.803.846 1.581 1.713 2.392 2.551.84.87 1.745 1.675 2.61 2.521 3.345 3.274 6.214 6.95 8.78 10.827 5.325 8.046 9.508 16.728 13.763 25.358 2.48 5.03 5.25 9.914 7.71 14.955.216.44.944.086.729-.355-2.218-4.542-4.685-8.956-6.967-13.465"/>
        <path fill="#231F20" stroke="#181818" stroke-width=".2" d="M127.744 135.206c-.355 2.115-1.52 4.163-3.451 5.363-2.029 1.261-4.518 1.454-6.79 1.168-1.116-.14-2.256-.365-3.252-.856a7.368 7.368 0 0 1-2.294-1.79c-1.279-1.47-2.033-3.329-2.509-5.198a24.15 24.15 0 0 1-.72-6.789c.042-1.157.128-2.313.76-3.358.52-.86 1.29-1.553 2.141-2.11.439-.286.901-.536 1.372-.767 2.07-.972 4.697-.941 6.777-.265 2.01.652 3.566 2.285 4.809 3.86 2.32 2.941 3.8 6.908 3.157 10.742m-1.945-9.898c-1.19-1.774-2.712-3.535-4.629-4.609-1.93-1.08-4.535-1.276-6.756-.785a7.72 7.72 0 0 0-1.613.544c-1.934.952-3.766 2.354-4.311 4.464-.323 1.247-.282 2.606-.237 3.864.045 1.265.18 2.526.407 3.765.725 3.954 2.611 8.287 7.015 9.326 2.33.55 4.906.68 7.253-.153a8.053 8.053 0 0 0 4.841-4.78c1.446-3.88.197-8.407-1.97-11.636M123.732 182.14c-1.125-.527-1.872-1.48-2.474-2.508a43.94 43.94 0 0 1-1.742-3.292c-1.194-2.506-1.718-5.212-2.5-7.863-.378-1.277-.738-2.586-.736-3.94.004-1.288.2-2.59.532-3.85.614-2.341 1.652-4.719 3.068-6.75 1.465-2.104 3.633-3.548 5.783-4.939 2.198-1.42 4.603-2.795 7.255-2.958 4.37-.27 8.614 2.012 11.52 4.862 1.974 1.935 3.732 4.115 5.316 6.358a32.302 32.302 0 0 1 2.273 3.673c.676 1.295 1.271 2.63 1.878 3.958.299.654.601 1.306.915 1.952.129.265.565.052.437-.213-1.33-2.734-2.43-5.59-4.094-8.151a51.007 51.007 0 0 0-5.419-6.916c-2.92-3.141-6.938-5.752-11.524-5.99a10.76 10.76 0 0 0-3.265.317c-1.337.349-2.602.985-3.8 1.666-1.313.746-2.565 1.594-3.8 2.458-1.05.734-2.047 1.508-2.902 2.455-1.64 1.82-2.762 4.152-3.567 6.391-.903 2.516-1.387 5.237-.846 7.81.29 1.375.779 2.692 1.109 4.055.333 1.376.682 2.737 1.18 4.061.49 1.304 1.139 2.517 1.782 3.748.553 1.06 1.112 2.158 1.968 3.02.399.4.856.733 1.377.977.27.126.549-.263.276-.39"/>
        <path fill="#231F20" d="M102.832 124.838c-.265-.104-.575-.064-.834.064a.416.416 0 0 0-.152.13.421.421 0 0 0-.043.073c-.004.008-.011.014-.014.023l-.005.023a.382.382 0 0 0-.017.082 1.705 1.705 0 0 0 1.083 2.028c.13.047.29.005.397-.085.377-.317.467-.836.382-1.274-.087-.45-.348-.886-.797-1.064M122.72 114.59c-.012 0-.022.005-.034.007a.493.493 0 0 0-.124.022.387.387 0 0 0-.235.188l-.003.007c-.007.015-.015.03-.02.045-.005.02-.007.04-.011.06-.003.013-.01.023-.012.037l.002.012c-.191.834.15 1.773.92 2.185a.432.432 0 0 0 .558-.12c.355-.435.341-1.047.172-1.527-.177-.501-.634-.915-1.214-.915"/>
        <path fill="#E4E7EB" d="M129.94 90.554c-.528-.35-1.213-.543-1.87-.407-.692.144-1.271.655-1.55 1.278-.265.591-.213 1.26-.16 1.87.052.574.168 1.202-.042 1.77a.378.378 0 0 0-.024.172c-.004.14.072.27.26.312 1.047.23 2.182.231 3.213-.186.845-.342 1.54-1.035 1.645-1.929.058-.502-.074-1.004-.286-1.447-.27-.558-.658-1.083-1.186-1.433M80.848 115.253c-1.356-.19-2.588.58-3.083 1.827-.314.79-.357 1.672-.265 2.488.061.55.22 1.147.663 1.515.797.663 1.951.124 2.732-.38 1.077-.693 2.016-1.583 2.892-2.5.111-.118.165-.27.126-.407a.395.395 0 0 0-.026-.1c-.5-1.246-1.63-2.246-3.039-2.443"/>
        <path fill="#231F20" d="M116.814 121.803c-.409.103-.796.28-1.168.478-.503.269-1.023.499-1.543.733-1.023.46-2.01.972-2.766 1.803l-.012.01c-1.876 1.86 2.537 2.719 3.726 2.723a2.93 2.93 0 0 0 1.302-.29c.337.728.657 1.465 1.011 2.188.394.76.831 1.505 1.363 2.183-.021.014-.042.028-.065.04-.077.04-.156.074-.22.092-.162.06-.379.102-.594.13-.217.045-.439.052-.664.08-.224.014-.45.027-.669.012-.224-.012-.436-.037-.652-.176l-.058.029c.115.226.344.362.573.452.233.09.48.14.73.166.5.047 1.013.037 1.514-.111.25-.09.477-.228.662-.413.185-.184.318-.41.408-.643.178-.471.203-.964.23-1.443l-.064-.001c-.254.478-.414.949-.636 1.29-.118.167-.22.306-.357.4l-.012.008a9.757 9.757 0 0 0-.368-1.14c-.072-.218-.174-.418-.255-.63l-.288-.615-.326-.602c-.127-.194-.233-.398-.378-.586a5.278 5.278 0 0 0-.687-.82c1.05-.608 1.7-1.822 1.974-2.989.151-.649.273-1.48-.178-2.023-.362-.437-.987-.472-1.533-.335z"/>
        <path fill="#181818" d="M123.948 150.424c.18.11.314.237.432.378.12.139.213.294.295.459.072.168.135.345.156.537.023.19.017.392-.065.592l-.031.007a3.96 3.96 0 0 0-.353-.999c-.145-.323-.312-.637-.463-.96l.029-.014zM125.315 154.086c.156.079.258.19.335.31.08.12.125.252.158.386.023.137.034.276.01.419a.973.973 0 0 1-.168.432l-.032.004a6.14 6.14 0 0 0-.124-.78 4.393 4.393 0 0 0-.209-.758l.03-.013zM121.27 155.801c.14.197.221.407.283.616.065.21.099.42.13.63.022.212.041.421.04.636.001.214-.007.43-.045.67l-.03.011a6.515 6.515 0 0 1-.282-1.265l-.128-1.292.031-.006zM118.06 156.443a2.378 2.378 0 0 1-.163-.161l-.039-.042-.018-.02-.009-.012-.004-.005c.097-.048-.218.106.217-.107h.001l.002.003.073.085c.092.116.182.233.262.355.166.24.304.495.434.753.123.262.238.527.326.806.09.278.164.564.188.874l-.03.014-.774-1.552-.373-.783-.187-.392-.047-.098v-.003l-.001-.001c.07-.033.02-.008.035-.015l.003.006.005.012.012.024.023.05.094.195-.03.014zM120.707 165.513c.258.268.462.567.644.874.186.307.338.628.483.95.136.327.266.655.37.995.107.339.2.683.25 1.05l-.028.015c-.314-.635-.6-1.283-.888-1.93a48.27 48.27 0 0 0-.86-1.94l.03-.014zM123.858 165.682c.211.17.38.354.536.551.158.195.29.408.409.632.11.228.208.466.257.725.052.256.066.534-.022.8l-.031.005c-.058-.493-.268-.948-.493-1.384-.219-.442-.471-.868-.685-1.315l.029-.014zM128.59 174.527a1.313 1.313 0 0 1 .45.592c.036.114.067.236.063.37a.76.76 0 0 1-.119.42l-.031.005a3.815 3.815 0 0 0-.215-.682 3.513 3.513 0 0 1-.18-.7l.031-.005zM129.313 164.857c.198.143.352.302.492.47a3.425 3.425 0 0 1 .644 1.128c.07.21.122.433.114.678l-.03.014a17.671 17.671 0 0 0-.636-1.13 19.088 19.088 0 0 1-.613-1.146l.03-.014zM132.857 163.258a.779.779 0 0 1 .368.216.974.974 0 0 1 .21.32.98.98 0 0 1 .062.383.762.762 0 0 1-.13.413l-.032.006a3.103 3.103 0 0 0-.2-.68 3.871 3.871 0 0 0-.306-.64l.028-.018zM127.598 158.48c.212.197.373.415.516.641.147.224.264.461.375.701.101.245.197.492.264.753.07.26.123.528.128.82l-.03.015-.656-1.45-.626-1.466.03-.013zM130.508 154.438c.202.153.355.33.49.515.139.184.248.382.351.583.095.205.183.414.243.636.062.22.108.45.104.703l-.029.014-.608-1.211-.58-1.226.029-.014zM128.864 150.78c.154.057.26.136.348.225.09.086.153.187.21.29.046.11.087.22.099.346a.91.91 0 0 1-.037.411l-.03.015-.324-.63-.296-.642.03-.014zM134.808 148.67c.17.113.286.257.378.41a1.896 1.896 0 0 1 .268 1.006 1.444 1.444 0 0 1-.105.553l-.032.006a14.12 14.12 0 0 0-.236-.992 7.888 7.888 0 0 0-.303-.97l.03-.013zM142.399 145.36c.184.117.32.259.438.409.121.149.213.311.3.477.076.17.148.343.19.53.045.185.074.38.053.597l-.03.014-.504-1-.477-1.013.03-.014zM140.634 148.319c.189.127.333.27.46.428.131.154.234.327.327.508.083.186.155.38.183.592.032.208.03.43-.048.65l-.032.006c-.07-.39-.22-.756-.395-1.108-.166-.357-.356-.704-.525-1.062l.03-.014zM135.728 153.988c.196.084.352.184.496.296.147.11.274.24.395.378.112.146.22.302.29.482.073.178.119.376.088.589l-.03.013c-.149-.325-.37-.61-.603-.885-.224-.28-.463-.554-.663-.855l.027-.018zM135.137 158.21c.175.036.305.102.422.178.12.073.214.162.306.253.085.098.167.196.231.314.067.116.125.242.16.41l-.02.025a4.883 4.883 0 0 1-.612-.536 9.64 9.64 0 0 1-.513-.624l.026-.02zM140.56 153.6l.566.35c.183.108.36.225.541.354.175.136.354.284.497.475.145.186.26.412.27.662l-.029.015c-.22-.38-.584-.646-.94-.905-.35-.267-.718-.543-.934-.935l.029-.016zM144.509 153.118c.172.093.301.189.422.291.123.1.227.213.331.33.097.123.193.25.266.4.075.148.136.312.144.507l-.026.019c-.201-.25-.425-.482-.636-.726a3.907 3.907 0 0 1-.53-.807l.029-.014zM142.576 160.88c.163.083.278.172.382.265.107.09.192.19.28.288.078.105.159.21.225.333.069.122.131.254.17.427l-.02.025a3.902 3.902 0 0 1-.63-.587 3.216 3.216 0 0 1-.436-.737l.03-.013zM140.093 163.797c.17.093.292.208.399.328.109.119.191.249.27.38.071.137.14.274.185.426a1.6 1.6 0 0 1 .085.504l-.027.018a8.14 8.14 0 0 1-.525-.791 12.33 12.33 0 0 1-.416-.852l.03-.013zM138.955 169.472a.935.935 0 0 1 .252.332c.058.113.085.229.11.343a1.513 1.513 0 0 1-.08.757l-.03.012a3.37 3.37 0 0 1-.207-.706c-.035-.244-.054-.49-.077-.733l.032-.005zM101.8 105.88a.733.733 0 0 1 .43.38.74.74 0 0 1 .035.574l-.023.011-.244-.471-.221-.483.023-.011zM103.22 104.79c.286.05.467.205.616.37.142.174.25.357.29.63l-.018.018a6.088 6.088 0 0 1-.472-.486c-.144-.173-.284-.348-.435-.515l.02-.017zM106.818 103.3c.262.094.412.263.532.447.108.19.189.398.15.664l-.024.012-.351-.548-.33-.561.023-.014zM109.674 104.012c.175.168.246.299.305.451.05.155.083.308.046.551l-.022.015c-.11-.145-.2-.305-.266-.475a1.643 1.643 0 0 1-.088-.54l.025-.002zM106.397 105.868c.337.294.553.648.74 1.015.174.375.32.763.345 1.21l-.024.011-.554-1.107-.53-1.118.023-.011zM108.375 109.356c.18-.082.277-.06.352-.013.068.058.116.141.08.327l-.016.02-.224-.147-.208-.167.016-.02zM105.307 108.496c.229.025.338.113.42.221.071.116.115.248.054.465l-.02.015-.249-.337-.227-.35.022-.014z"/>
        <path fill="#FFDBD6" d="M100.795 133.365c.813 1.668.329 3.578-1.082 4.266-1.41.688-3.213-.107-4.027-1.774-.813-1.668-.329-3.577 1.082-4.265 1.41-.688 3.213.106 4.027 1.773M135.84 116.468c.813 1.667.33 3.577-1.081 4.265-1.411.688-3.214-.106-4.027-1.774-.814-1.667-.33-3.577 1.081-4.265 1.41-.688 3.214.106 4.027 1.774"/>
        <g fill="#999DA6">
            <path d="M81.228 119.984zM79.185 120.08zM78.679 118.036zM78.732 116.188zM82.082 118.04zM80.656 116.244zM80.566 118.212z"/>
        </g>
        <g fill="#999DA6">
            <path d="M130.318 94.118zM128.275 94.213zM127.768 92.17zM127.822 90.321zM131.172 92.174zM129.745 90.377zM129.656 92.345z"/>
        </g>
        <path fill="#D2877F" stroke="#181818" stroke-width=".5" d="M296.5 90.14l-142.218 38.795c1.474 2.007 2.412 3.756 3.16 6.144 3.973 12.68-.026 15.615-1.915 22.592-1.888 6.978-17.349 14.086-22.76 18.285-3.483 2.703-11.127 4.1-14.262 4.274-4.067.227-4.765-1.203-5.865-1.641-.903-.359-1.66-1.004-2.397-1.638-8.644-7.423-14.09-15.359-19.963-24.966-16.786 9.252-33.252 18.8-48.741 30.116-5.26 3.844-10.2 8.508-12.724 14.516-5.993 14.263-1.083 31.847 4.237 45.523 2.697 6.932 7.168 13.622 13.935 16.71 7.841 3.58 18.321 6.596 26.896 7.282 8.256.66 15.699-3.157 23.046-6.305a1364.484 1364.484 0 0 0 26.702-11.786c24.093-10.945 47.539-22.723 70.654-35.543 9.637-5.345 18.058-12.546 26.748-19.248 8.83-6.81 18.003-13.135 27.123-19.635a1155.033 1155.033 0 0 0 46.044-34.592c6.712-5.309 12.518-11.078 18.69-16.99 4.155-3.98 9.631-8.2 12.571-13.242 3.249-5.558 5.422-23.502 5.422-23.502l-34.383 4.85z"/>
        <path stroke="#181818" stroke-linecap="round" stroke-linejoin="round" stroke-width=".64" d="M.761 181.245c3.291 11.085 9.735 21.945 14.666 32.39 11.4 24.148 23.322 48.057 35.165 71.99 3.29 6.651 5.327 10.747 5.327 10.747L1.113 186.039l46.51 101.467L5.906 185.687"/>
        <path fill="#B1DFE3" stroke="#000" stroke-width=".5" d="M17.218 232.32c-1.06 1.442 7.024 15.84 7.746 18.085-2.21-.218-19.175-2.556-20.283-1.05C8.86 243.676 13.04 238 17.218 232.32z"/>
        <path fill="#FFC685" stroke="#181818" stroke-width=".5" d="M188.415 200.463c-2.397 1.782 26.255 52.524 29.017 57.557 6.041 11.005 12.276 21.902 18.551 32.775 4.945 8.565 8.161 21.64 17.416 26.627 2.847 1.534 5.971 2.467 8.988 3.633 4.217 1.631 8.326 3.754 12.812 4.337 10.607 1.378 23.08-2.768 26.818-13.52 1.779-5.12 5.75-10.224 7.102-15.472 1.613-6.269 1.391-12.3.085-18.958-.796-4.052-2.673-7.799-4.53-11.488-12.485-24.806-27.387-48.325-41.936-71.945l-13.716-26.086-16.027 5.83-44.58 26.71z"/>
        <path stroke="#181818" stroke-linecap="round" stroke-width=".64" d="M134.749 243.79l12.582 27.188.353.761"/>
        <path stroke="#181818" stroke-width=".5" d="M133.791 258.68c-3.083 3.875-5.796 12.678-4.456 16.72 1.509 4.552 1.27 5.999 4.472 10.608 3.202 4.61 12.124 8.478 17.36 6.704 5.235-1.775 5.758-2.17 8.703-3.596 1.127-.546 2.418-1.8 3.233-2.753.746-.874 2.076-2.428 2.45-3.519.738-2.143 1.226-3.453 1.963-5.597.737-2.144.527-3.959.55-5.828.078-6.927-5.72-14.397-11.762-17.16-6.87-3.143-16.064-1.682-21.63 3.456-.292.27-.588.594-.883.965zM303.801 66.033c-1.307 1.643-2.456 5.373-1.889 7.086.64 1.93.539 2.543 1.896 4.497 1.357 1.953 5.138 3.593 7.357 2.84 2.22-.751 2.44-.919 3.69-1.523.477-.232 1.024-.763 1.37-1.167.315-.37.879-1.03 1.038-1.491.312-.909.52-1.464.832-2.373.312-.908.223-1.677.232-2.47.034-2.936-2.424-6.101-4.984-7.272-2.912-1.332-6.809-.713-9.168 1.465a3.63 3.63 0 0 0-.374.408z"/>
        <path stroke="#181818" stroke-width=".5" d="M165.944 263.583l-17.965 8.762 17.575 10.5M131.512 262.667l15.946 9.933-17.791 3.423M147.98 272.345l-4.067 20.39M155.557 291.22l-7.871-18.153-15.737 9.153"/>
        <g stroke="#181818" stroke-linecap="round" stroke-width=".2">
            <path d="M41.875 182.05l19.507 46.105 18.002 36.908M53.786 179.298l4.06 8.594M49.163 180.204l1.987 4.8M47.838 184.51l3.445 6.97M53.389 188.723l2.112 3.968M61.075 192.666l3.094 4.634M59.206 196.454l3.42 7.752M53.962 196.322c.97 2.09 1.939 4.182 2.908 6.273M68.994 206.486l2.726 5.59M62.242 208.624l2.932 6.26M68.902 215.757l3.863 7.92M61.256 220.257c1.454 2.878 2.91 5.757 4.363 8.637M69.029 224.922c1.379 2.724 2.758 5.447 4.136 8.172M77.94 227.886l2.716 7.134M76.829 235.151l4.15 7.199M85.15 237.244l2.348 4.815M84.739 243.017c1.02 2.194 2.04 4.389 3.061 6.582M79.187 246.305l1.59 3.261M72.289 237.75c1.389 2.975 2.776 5.95 4.166 8.925M78.561 252.954l3.032 5.827M84.723 259.946c.616 1.366 1.232 2.731 1.85 4.097M83.056 250.76l3.708 7.996M91.446 253.969l2.765 6.343"/>
        </g>
        <path stroke="#FFF" stroke-linecap="round" stroke-width=".2" d="M204.485 224.38l3.657 3.608"/>
        <path stroke="#181818" stroke-linecap="round" stroke-width=".2" d="M224.81 214.089l3.016 7.384M240.302 206.556l4.647 6.593M258.106 198.594l4.646 7.756M260.13 218.8l2.41 6.514M246.146 225.62l2.582 4.506M232.466 231.914c.965 1.833 1.932 3.667 2.896 5.5M219.906 237.264l3.64 6.684M223.532 258.196l5.849 6.357M240.206 248.124l3.34 6.06M251.637 242.127l7.465 8.289M269.768 235.24l3.622 6.693M279.642 232.37l4.898 7.603M286.183 250.298l2.938 8.19M273.363 255.405l3.582 6.699M265.381 259.677c1.035 2.575 2.07 5.148 3.102 7.722M256.993 266.094a14.836 14.836 0 0 1 3.577 9.581M242.858 269.875c1.292 1.686 2.581 3.373 3.872 5.059M247.479 288.756c.931 2.883 1.864 5.766 2.794 8.65M257.484 289.624c2.408 1.937 4.815 3.874 7.224 5.81M267.92 306.501l6.093 9.33M261.943 309.808l5.134 12.105M289.589 313.24l2.092 3.595M294.287 303.634l3.012 5.453M281.289 313.44l1.666 3.415M276.849 293.661l5.634 8.402M290.479 290.502l3.332 6.833M297.466 286.64l5.96 8.38M298.651 268.078l3.59 8.637M289.511 270.203a20.313 20.313 0 0 1 2.996 11.97M282.593 275.124c.643 2.891 1.283 5.783 1.924 8.673M267.05 268.48l5.757 11.803M272.503 285.047l2.421 5.74M261.618 276.899c1.28 2.836 2.563 5.672 3.844 8.508M251.013 277.064l2.975 5.472M253.572 293.51c1.28 2.837 2.562 5.672 3.844 8.509M249.237 299.086c.85 1.51 1.7 3.018 2.548 4.527M237.185 278.8c2.94 3.952 5.879 7.903 8.82 11.854M249.507 260.889l3.628 8.226M239.89 258.674c3.049 4.15 6.098 8.302 9.15 12.453M231.547 249.272l4.15 10.672M241.675 240.103l2.575 5.28M252.745 235.844l6.089 8.567M272.613 221.553l3.636 7.453M265.93 208.743l1.734 7.6M251.796 203.332l2.882 11.296M248.843 218.537l7.475 9.81M238.858 213.028l2.837 12.077M235.495 224.278l3.939 8.075M218.588 221.757l4.835 9.175M226.738 234.7l4.415 6.69M215.194 235.335l3.49 7.91M217.292 244.685l1.987 4.8M117.165 21.355l5.679 6.832M122.117 14.678l3.348 5.288M138.08 17.268l2.714 4.829M132.524 13.075c.325 2.16.65 4.322.973 6.483M133.407 24.943l4.41 10.538M127.524 30.495l2.273 4.659M122.088 36.212l3.636 8.993M116.063 33.009l1.213 2.485M119.191 44.94l6.211 12.734M137.825 51.615l2.287 3.113M133.152 39.669l3.333 6.832M149.386 42.89l4.259 5.616M150.075 31.8c1.016 1.554 2.03 3.11 3.045 4.666M155.258 23.505l5.468 9.636M162.34 26.202l5.636 9.169M171.646 35.892l3.797 6.222M172.92 25.65l2.267 3.893M156.878 10.804l3.944 9.613M146.134 5.268c1.799 3.48 3.363 8.999 5.162 12.48l-2.712-7.136M169.167 17.848l6.543 8.731M186.253 46.065l2.424 4.97M195.327 66.246l-.303-.621c2.103 3.845 4.11 8.118 6.213 11.964M190.092 64.185l2.878 5.9M181.4 53.433c1.142 3.927 2.283 7.855 3.426 11.782M181.566 78.34l6.824 13.204M188.016 70.964l3.333 6.833M170.54 72.183l3.948 7.303M171.292 56.812c1.81 3.22 3.618 6.44 5.429 9.658M171.997 49.974l3.25 8.405M159.968 52.735c1.086 2.42 1.806 4.626 2.968 7.009l5.757 11.802M156.58 61.691l3.484 7.143M150.502 69.263l3.094 6.954M141.592 62.128l1.275 6.669M136.81 70.95l6.823 13.204M148.758 80.516l4.595 6.212M158.692 82.575l5.5 6.545M163.347 72.224l4.234 7.164M171.207 83.008l4.256 7.15M179.44 89.813c1.072.633 1.655 1.995 1.374 3.208M160.6 92.794l2.576 5.28M147.466 92.664l2.575 5.28M141.724 95.08l4.317 7.042.092-1.43M134.924 81.51l2.993 9.304M148.26 272.208l6.415-18.142"/>
    </g>
</svg>
