<svg xmlns="http://www.w3.org/2000/svg" xmlns:xlink="http://www.w3.org/1999/xlink" width="127" height="128" viewBox="0 0 127 128">
    <defs>
        <ellipse id="a" cx="60.986" cy="61.5" rx="60.986" ry="61.5"/>
        <path id="c" d="M.23.172h33.123v28.573H.23z"/>
    </defs>
    <g fill="none" fill-rule="evenodd">
        <g transform="translate(2.107 2.5)">
            <mask id="b" fill="#fff">
                <use xlink:href="#a"/>
            </mask>
            <ellipse cx="60.986" cy="61.5" stroke="#54637A" stroke-width="2" rx="61.986" ry="62.5"/>
            <g mask="url(#b)">
                <path fill="#FFF" stroke="#FFF" stroke-width=".5" d="M28.684 106.619l.808-12.926 1.13-8.205 1.663-8.642 1.332-6.41V64.96l.492-10.026 1.53-6.48 1.504-4.669 1.759-3.555.898-1.387-.176-.309-2.827.737-3.646.304-2.176-.732-.923-1.573 1.278-4.36 3.184-3.997 1.799-1.074h1.61l2.277.876 1.2 1.37 1.214 2.17.29.89.88-.235 4.41-1.144 4.666-1.152 5.17-1.127 5.115-.326h5.34l5.223.923 5.032 1.385 2.934 1.931.44-.083.911-3.596 1.865-2.699 2.45-.901h2.24l1.492 1.228.319 2.138.215 1.982.612 1.848.982 2.675-.347 1.47-1.78.928h-2.707l-3.476-.927h-.34l-.217.36 2.023 3.724 2.235 7.278 1.86 6.11 1.33 7.25 1.243 14.298V92.12l.237 14.499z"/>
                <path fill="#231F20" d="M93.665 92.167c-.064-4.655 0-9.31-.116-13.965-.116-4.63-.358-9.26-.876-13.864-.498-4.431-1.261-8.83-2.579-13.097-.362-1.174-.793-2.322-1.188-3.485-.414-1.222-.75-2.47-1.108-3.709-.342-1.184-.71-2.343-1.247-3.456-.359-.742-.756-1.465-1.132-2.2a9.077 9.077 0 0 0 3.144.677c1.281.047 2.764-.088 3.92-.69.746-.388 1.21-1.052 1.255-1.896.05-.923-.309-1.855-.614-2.707-.492-1.373-1.015-2.734-1.113-4.202-.076-1.125-.114-2.36-1.054-3.135-1.575-1.298-4.14-.976-5.842-.112-1.121.57-1.987 1.618-2.482 2.76-.478 1.1-.677 2.29-1.01 3.438-1.207-1.192-3.05-1.78-4.611-2.261-2.249-.691-4.56-1.262-6.897-1.534-3.005-.35-6.04-.25-9.049-.028-1.506.11-3.03.197-4.525.417-1.4.207-2.765.59-4.123.984a52.934 52.934 0 0 1-4.664 1.147c-1.522.295-3.05.596-4.492 1.178-.824-2.179-2.222-4.285-4.562-4.987-1.992-.599-3.889.345-5.277 1.754-1.481 1.503-2.537 3.45-3.23 5.43-.584 1.67-1.145 4.01.826 4.974 1.148.562 2.552.57 3.799.503a18.839 18.839 0 0 0 3.843-.612c-2.108 3.139-3.193 6.82-3.941 10.505-.423 2.081-.816 4.183-1.105 6.286-.319 2.32-.47 4.656-.54 6.995-.034 1.19-.05 2.38-.055 3.571-.006 1.149.015 2.297-.08 3.443-.19 2.293-.729 4.537-1.27 6.768a143.545 143.545 0 0 0-1.435 6.73c-.441 2.3-.852 4.61-1.12 6.94-.267 2.33-.315 4.68-.533 7.017-.22 2.364-.49 4.725-.586 7.1a45.77 45.77 0 0 0-.038 1.775c0 .467.726.467.726 0 .004-2.342.216-4.674.443-7.003.116-1.18.234-2.361.325-3.544.09-1.16.124-2.322.211-3.482.176-2.338.543-4.657.963-6.962.415-2.275.838-4.554 1.367-6.806.513-2.18 1.093-4.348 1.435-6.563.354-2.29.3-4.573.33-6.881.03-2.335.112-4.672.337-6.996.214-2.208.61-4.39 1.011-6.569.737-3.994 1.682-8.056 3.89-11.524.275-.433.569-.853.878-1.262.118-.156.076-.309-.033-.408a.31.31 0 0 0-.377-.125c-1.243.41-2.537.685-3.84.818-1.148.117-2.37.172-3.503-.095-.73-.17-1.465-.526-1.692-1.298-.243-.829.041-1.762.286-2.56.549-1.79 1.432-3.549 2.629-4.995 1.087-1.313 2.61-2.543 4.42-2.378 2.6.239 4.155 2.772 4.931 4.997.074.21.274.275.444.238a.335.335 0 0 0 .152-.03c2.557-1.078 5.391-1.277 8.048-2.024 1.322-.371 2.633-.785 3.974-1.084 1.436-.318 2.894-.424 4.357-.546 2.917-.244 5.852-.422 8.778-.232 2.486.161 4.887.683 7.282 1.342 1.1.303 2.2.637 3.247 1.093.88.384 1.868.864 2.461 1.65.2.266.584.151.676-.074a.374.374 0 0 0 .058-.108c.692-2.078.815-4.423 2.685-5.87.67-.52 1.532-.794 2.357-.935.885-.152 1.888-.144 2.717.24.39.182.768.455.978.84.25.456.298 1.016.337 1.525.043.546.065 1.09.16 1.63.122.687.322 1.356.547 2.015.339.987.768 1.962.982 2.988.128.614.152 1.301-.33 1.772-.351.345-.849.517-1.315.639a9.385 9.385 0 0 1-2.166.294 8.353 8.353 0 0 1-4.245-1.019.284.284 0 0 0-.286-.08c-.252.035-.418.362-.26.574.437.951.954 1.861 1.423 2.796.501.998.87 2.023 1.187 3.093.314 1.06.601 2.128.925 3.185.336 1.097.748 2.166 1.112 3.252 1.41 4.204 2.277 8.553 2.82 12.948 1.129 9.121 1.087 18.31 1.125 27.484.021 5.348.333 10.691.336 16.04 0 .467.725.467.725 0-.002-4.82-.255-9.634-.321-14.452"/>
                <path fill="#231F20" d="M69.41 68.638c-1.118 1.664-2.862 2.932-4.89 3.153-2.13.233-4.212-.642-5.93-1.837-.845-.586-1.675-1.255-2.284-2.092a7.218 7.218 0 0 1-1.146-2.494c-.453-1.794-.33-3.702.022-5.502a23.983 23.983 0 0 1 2.088-6.12c.488-.974 1.012-1.929 1.931-2.56.758-.52 1.65-.792 2.555-.913.467-.062.938-.083 1.408-.084 2.05.033 4.155 1.157 5.565 2.605 1.364 1.4 1.976 3.45 2.358 5.318.715 3.491.347 7.508-1.678 10.526m2.324-9.296c-.262-2.017-.796-4.163-1.92-5.884-1.13-1.733-3.153-2.99-5.135-3.497a6.532 6.532 0 0 0-1.514-.208c-1.933.007-3.96.444-5.229 2.024-.75.934-1.25 2.115-1.71 3.212a25.883 25.883 0 0 0-1.15 3.397c-.971 3.69-1.154 8.193 1.986 10.924 1.662 1.445 3.686 2.634 5.905 2.901 2.154.26 4.262-.538 5.78-2.073 2.69-2.72 3.464-7.122 2.987-10.796"/>
                <g transform="translate(45.96 78.75)">
                    <mask id="d" fill="#fff">
                        <use xlink:href="#c"/>
                    </mask>
                    <path fill="#231F20" d="M1.769 28.434c-.7-.923-.927-2.051-1.008-3.184a44.543 44.543 0 0 1-.11-3.55c.023-2.646.664-5.184 1.075-7.783.198-1.252.422-2.524.957-3.684a14.773 14.773 0 0 1 1.94-3.078C6.04 5.406 7.81 3.803 9.75 2.653c2.007-1.19 4.321-1.521 6.601-1.815 2.33-.299 4.808-.471 7.01.497 3.627 1.596 6.15 5.326 7.372 8.983.83 2.482 1.39 5.086 1.785 7.67.208 1.36.352 2.722.388 4.098.036 1.393-.01 2.785-.042 4.177-.016.686-.03 1.37-.03 2.056 0 .28.435.28.435 0 .004-2.9.24-5.808-.095-8.697a51.317 51.317 0 0 0-1.648-8.192c-1.12-3.913-3.33-7.83-6.933-9.95A9.296 9.296 0 0 0 21.838.386c-1.215-.26-2.485-.243-3.717-.16-1.352.091-2.694.294-4.03.518-1.133.19-2.242.437-3.302.892C8.75 2.51 6.93 4.039 5.402 5.622 3.685 7.4 2.226 9.529 1.651 11.96c-.308 1.299-.431 2.632-.7 3.938-.273 1.318-.527 2.631-.646 3.974-.117 1.322-.071 2.633-.037 3.957.029 1.14.048 2.314.4 3.41.163.51.4.986.725 1.414.167.22.545.003.376-.22" mask="url(#d)"/>
                </g>
                <path fill="#231F20" d="M53.408 49.34a.912.912 0 0 0-.697-.294.353.353 0 0 0-.107.02.376.376 0 0 0-.13.073c-.005.005-.014.007-.02.013-.005.006-.008.013-.013.018a.362.362 0 0 0-.046.063 1.702 1.702 0 0 0 .076 2.19.363.363 0 0 0 .353.094c.429-.114.706-.521.809-.933.106-.421.068-.904-.225-1.244M73.463 48.87c-.009-.004-.02-.004-.029-.008a.422.422 0 0 0-.104-.033h-.005a.331.331 0 0 0-.263.063l-.006.005c-.01.01-.023.019-.033.03-.012.015-.021.032-.033.046-.007.01-.017.016-.024.028-.001.003-.001.007-.003.01-.482.636-.575 1.583-.117 2.258.116.171.31.221.496.13.458-.224.687-.755.74-1.236.054-.504-.152-1.05-.619-1.292"/>
                <path fill="#E4E7EB" d="M88.73 31.29c-.288-.52-.764-.973-1.348-1.13-.614-.167-1.281.03-1.75.446-.446.396-.668.99-.864 1.537-.185.512-.338 1.1-.73 1.498a.363.363 0 0 0-.087.137c-.058.119-.048.263.087.377.753.634 1.667 1.11 2.662 1.183.815.06 1.649-.243 2.084-.965.244-.406.335-.891.338-1.36.003-.59-.104-1.203-.393-1.724M39.46 31.937c-1.018-.73-2.313-.585-3.203.276-.563.546-.944 1.285-1.191 2.022-.167.497-.273 1.075-.061 1.575.381.902 1.524.922 2.35.818 1.14-.145 2.248-.515 3.314-.935a.4.4 0 0 0 .261-.296.397.397 0 0 0 .02-.097c.085-1.276-.433-2.606-1.49-3.363"/>
                <path fill="#231F20" d="M65.87 52.583a4.397 4.397 0 0 0-1.13-.078c-.51.02-1.02 0-1.531-.018-1.006-.033-2.002-.006-2.938.39-.004.001-.009.001-.013.003-2.244.81.975 3.39 1.932 3.892a2.5 2.5 0 0 0 1.163.295c-.015.765-.046 1.53-.045 2.297.019.817.078 1.638.24 2.44-.022.004-.044.008-.068.009a1.056 1.056 0 0 1-.214-.014 2.495 2.495 0 0 1-.529-.136c-.192-.053-.374-.14-.566-.21a4.308 4.308 0 0 1-.544-.27c-.176-.103-.337-.213-.457-.422h-.058c.004.242.135.454.284.627.153.174.333.32.524.447.384.25.801.456 1.263.538.236.028.474.004.696-.077.221-.08.417-.218.581-.381.329-.33.543-.74.753-1.14l-.051-.028c-.393.304-.707.64-1.02.84-.16.094-.298.17-.444.194l-.014.002c.078-.392.122-.763.152-1.131.028-.217.024-.432.042-.647l.01-.647-.027-.653c-.025-.219-.031-.438-.074-.66a5.297 5.297 0 0 0-.231-.989c1.084-.083 2.086-.851 2.765-1.737.378-.493.802-1.154.652-1.808-.12-.526-.61-.817-1.103-.928z"/>
                <path fill="#181818" d="M60.369 80.093c.102.169.16.335.2.504.042.17.056.342.057.517a1.885 1.885 0 0 1-.086.526c-.055.172-.14.342-.284.48l-.028-.008c.085-.327.107-.666.108-1.003.01-.338-.001-.677.004-1.016h.029zM60.032 83.803c.094.132.132.27.147.405.018.136.002.268-.024.397-.035.127-.08.25-.157.363a.896.896 0 0 1-.305.3l-.027-.01c.083-.236.153-.477.207-.72.062-.242.109-.488.13-.737l.029.002zM56.097 83.582c.036.226.02.44-.013.646a4.15 4.15 0 0 1-.143.594c-.066.19-.133.378-.219.561a3.78 3.78 0 0 1-.299.556l-.029-.003c.045-.41.15-.81.27-1.202l.405-1.161.028.009zM53.259 82.79a2.365 2.365 0 0 1-.069-.207l-.014-.051-.007-.026-.003-.013-.001-.006c.097 0-.218 0 .217-.001v-.001.001l.001.003.026.104c.028.138.055.276.071.414.04.275.05.55.054.827a6.65 6.65 0 0 1-.054.827c-.037.276-.09.551-.192.827h-.03l-.014-1.654.007-.827.004-.414v-.104l.001-.003v-.001c.069.001.019.001.034.002v.096l-.002.207h-.03zM51.827 91.67c.102.337.15.678.175 1.018.03.34.026.679.016 1.016-.019.337-.043.672-.093 1.007a6.47 6.47 0 0 1-.21 1.005h-.03c-.003-.675.02-1.35.043-2.024.033-.674.065-1.348.07-2.022h.029zM54.3 93.13c.102.235.167.464.215.697.05.234.072.471.08.712a2.964 2.964 0 0 1-.077.73c-.059.241-.156.485-.332.677l-.027-.01c.147-.447.157-.924.146-1.392-.002-.47-.038-.94-.035-1.413h.03zM54.636 102.689a1.307 1.307 0 0 1 .13.696c-.016.112-.038.23-.095.344a.711.711 0 0 1-.26.308l-.028-.008c.058-.22.077-.446.095-.674.027-.226.059-.455.13-.675l.028.009zM59.02 94.705c.103.205.164.405.211.607a3.472 3.472 0 0 1 .076 1.236c-.026.21-.072.422-.175.63h-.029a17.906 17.906 0 0 0-.07-1.235 19.35 19.35 0 0 1-.042-1.238h.029zM62.504 94.815c.114.104.174.22.212.339.04.119.048.241.043.363a.98.98 0 0 1-.1.354.71.71 0 0 1-.268.299l-.028-.009a3.13 3.13 0 0 0 .106-.666c.022-.225.023-.451.006-.677l.03-.003zM60.144 88.523c.093.257.138.511.164.765.03.253.031.505.026.757a5.66 5.66 0 0 1-.083.756 3.293 3.293 0 0 1-.22.756h-.028l.041-1.517.07-1.518.03.001zM64.078 86.275c.102.215.156.43.193.646.039.216.05.43.054.646a4.077 4.077 0 0 1-.055.646c-.037.216-.09.431-.192.647h-.03l-.014-1.293.015-1.292h.029zM64.19 82.453a.875.875 0 0 1 .193.337c.039.113.05.225.054.338a1.155 1.155 0 0 1-.055.337.88.88 0 0 1-.192.337h-.029l-.014-.674.014-.675h.03zM69.81 83.128c.093.169.13.34.144.51a1.92 1.92 0 0 1-.18.974 1.374 1.374 0 0 1-.302.43l-.028-.007a14.2 14.2 0 0 0 .2-.95c.063-.316.112-.636.137-.958l.029.001zM77.228 83.465c.103.178.157.356.193.534.039.178.05.355.054.534a2.805 2.805 0 0 1-.055.534c-.036.177-.09.355-.192.533H77.2l-.014-1.067.014-1.068h.03zM74.643 85.263c.103.188.162.371.203.56.045.186.06.377.063.571a2.187 2.187 0 0 1-.084.584 1.274 1.274 0 0 1-.295.537l-.028-.008c.097-.363.12-.74.117-1.114.007-.376-.01-.753-.005-1.13h.03zM68.461 88.071c.126.154.212.304.284.461.075.156.126.32.17.49.033.17.058.35.044.533a1.117 1.117 0 0 1-.16.542l-.03-.001c.008-.342-.059-.68-.138-1.011-.07-.334-.155-.668-.199-1.01l.03-.004zM66.325 91.442c.127.104.207.215.271.329.067.112.109.228.147.345.03.119.057.237.063.365.008.128.005.26-.032.419l-.026.012a4.821 4.821 0 0 1-.283-.715 9.683 9.683 0 0 1-.168-.749l.028-.006zM72.507 89.758l.32.537c.104.168.201.343.297.53.086.189.173.39.213.614.044.22.048.462-.043.68l-.029.001c-.028-.417-.216-.798-.402-1.169-.177-.375-.365-.765-.385-1.191l.03-.002zM75.88 90.995c.102.152.168.288.225.427.06.137.1.277.138.42.03.146.057.296.056.454.003.158-.012.325-.083.495l-.028.005c-.064-.298-.153-.59-.228-.887a3.948 3.948 0 0 1-.11-.914h.03zM71.271 96.84c.099.138.156.263.204.386.05.123.08.243.112.364.022.123.046.246.05.38.008.133.007.272-.03.437l-.027.012a3.868 3.868 0 0 1-.277-.766 3.256 3.256 0 0 1-.06-.814l.028.002zM68.124 98.301c.1.152.154.3.192.448.041.148.057.294.069.44a2.46 2.46 0 0 1-.02.441c-.02.15-.053.302-.129.467l-.028.005a8.228 8.228 0 0 1-.113-.898c-.012-.301-.01-.602 0-.903h.029zM64.976 102.69c.06.142.074.27.073.39.002.12-.022.23-.047.338a1.49 1.49 0 0 1-.13.308c-.055.101-.123.2-.232.308l-.03-.002a3.4 3.4 0 0 1 .113-.691c.066-.224.148-.442.226-.66l.027.008zM60.029 32.662a.723.723 0 0 1 .197.505.73.73 0 0 1-.197.506h-.024l-.011-.506.011-.505h.024zM61.602 32.321c.21.163.295.371.35.574.046.21.061.41-.013.662l-.022.008a6.069 6.069 0 0 1-.19-.614c-.047-.209-.092-.417-.148-.623l.023-.007zM65.086 32.548c.175.19.23.397.253.605.013.209-.004.42-.14.632h-.023l-.068-.616-.045-.619.023-.002zM67.109 34.352a1.081 1.081 0 0 1-.111 1.005l-.024.004a1.963 1.963 0 0 1-.028-.518 1.64 1.64 0 0 1 .141-.5l.022.01zM63.738 34.572c.156.394.191.787.197 1.18-.007.394-.042.787-.197 1.18h-.023l-.012-1.18.012-1.18h.023zM63.961 38.389c.177.005.247.064.29.136.03.078.037.169-.065.313l-.02.01-.124-.219-.101-.23.02-.01zM61.827 36.37a.52.52 0 0 1 .251.365.526.526 0 0 1-.139.42l-.022.005-.068-.393-.045-.395.023-.002z"/>
                <path fill="#FFDBD6" d="M48.415 55.796c0 1.77-1.14 3.204-2.548 3.204-1.407 0-2.547-1.435-2.547-3.204 0-1.769 1.14-3.203 2.547-3.203 1.408 0 2.548 1.434 2.548 3.203M83.299 55.964c0 1.769-1.14 3.203-2.548 3.203-1.407 0-2.548-1.434-2.548-3.203 0-1.77 1.14-3.204 2.548-3.204 1.407 0 2.548 1.434 2.548 3.204"/>
                <g fill="#999DA6">
                    <path d="M37.895 36.154l.012-.004.011-.004-.011.004-.012.004zM36.016 35.458l.192-.07.22-.08.004-.001c-.067.024-.136.05-.206.074l-.208.076h-.002zM36.423 33.486l.19-.07.2-.072-.194.07-.195.072zM37.375 31.858l.013-.005.012-.004-.013.005-.012.004zM39.347 34.846l.012-.005.013-.004-.013.004-.013.005zM38.915 32.706zM38.07 34.355z"/>
                </g>
                <g fill="#999DA6">
                    <path d="M87.622 34.505l.011-.004.012-.004-.012.004-.011.004zM85.743 33.809l.192-.07.22-.08.003-.001-.205.074-.208.076h-.002zM86.15 31.837l.19-.07.199-.072-.194.07-.194.072h-.001zM87.102 30.21l.013-.006.012-.004-.013.005-.012.004zM89.073 33.197l.013-.005.012-.004-.013.004-.012.005zM88.642 31.057zM87.796 32.706z"/>
                </g>
            </g>
            <rect width="81.333" height="41.678" x="20.792" y="86.5" fill="#E4E7EB" stroke="#000" stroke-width=".81" mask="url(#b)" rx="2"/>
        </g>
        <g fill="#FFF" stroke="#000">
            <path stroke-width=".6" d="M64.47 120.054c5.093 0 5.29-4.77 4.143-6.497-.85-1.282-2.231-1.487-4.142-.615-2.36-1.042-3.902-.797-4.626.735-1.086 2.299-.466 6.377 4.626 6.377z"/>
            <path stroke-linejoin="round" stroke-width=".5" d="M64.776 111.258c-.307-.517-.305-.979.006-1.386.31-.407.87-.68 1.677-.818.338.506.338.98 0 1.422-.337.442-.899.703-1.683.782z"/>
        </g>
    </g>
</svg>
