<svg xmlns="http://www.w3.org/2000/svg" xmlns:xlink="http://www.w3.org/1999/xlink" width="160" height="161" viewBox="0 0 160 161">
    <defs>
        <ellipse id="a" cx="77.348" cy="78" rx="77.348" ry="78"/>
        <path id="c" d="M72.491 1.054c-1.422.722-2.52 2.052-3.148 3.499-.606 1.397-.859 2.905-1.279 4.362-1.533-1.512-3.869-2.259-5.85-2.868-2.851-.876-5.784-1.6-8.747-1.946-3.811-.443-7.659-.316-11.477-.035-1.91.141-3.844.25-5.739.53-1.776.261-3.507.747-5.229 1.247-1.96.567-3.913 1.067-5.915 1.455-1.931.375-3.868.755-5.697 1.494-1.046-2.764-2.819-5.434-5.786-6.326-2.528-.758-4.932.438-6.694 2.225-1.878 1.907-3.217 4.377-4.096 6.888-.741 2.117-1.451 5.085 1.048 6.308 1.455.712 3.236.723 4.817.638a23.92 23.92 0 0 0 4.875-.777c-2.675 3.982-4.05 8.65-4.998 13.325-.537 2.638-1.036 5.304-1.403 7.972-.403 2.941-.594 5.905-.683 8.871-.045 1.51-.064 3.02-.071 4.53-.007 1.456.02 2.912-.1 4.366-.241 2.908-.926 5.754-1.611 8.583-.685 2.831-1.271 5.675-1.82 8.536-.56 2.918-1.081 5.847-1.421 8.802-.338 2.956-.4 5.936-.676 8.9-.078.841-.161 1.682-.243 2.522v9.171a.426.426 0 0 0 .373-.437c.005-2.971.274-5.928.562-8.881.145-1.499.295-2.995.412-4.496.113-1.47.156-2.944.267-4.415.223-2.967.688-5.908 1.221-8.832.526-2.884 1.062-5.775 1.734-8.63.651-2.765 1.386-5.515 1.821-8.325.448-2.903.38-5.8.418-8.726.038-2.962.141-5.925.426-8.874.272-2.799.774-5.567 1.283-8.33.934-5.067 2.133-10.218 4.933-14.618.349-.549.723-1.08 1.114-1.6.15-.197.096-.391-.041-.517a.394.394 0 0 0-.478-.159c-1.578.521-3.218.87-4.871 1.038-1.456.149-3.005.218-4.443-.12-.924-.218-1.858-.668-2.146-1.647-.307-1.051.053-2.234.364-3.247.696-2.271 1.815-4.5 3.333-6.334 1.38-1.666 3.312-3.227 5.606-3.016 3.298.302 5.27 3.514 6.255 6.337.093.267.346.35.563.301a.422.422 0 0 0 .192-.036c3.243-1.368 6.838-1.621 10.208-2.568 1.676-.472 3.339-.997 5.041-1.374 1.819-.405 3.669-.539 5.524-.694 3.7-.309 7.423-.535 11.134-.294 3.153.205 6.198.866 9.235 1.703 1.395.383 2.791.806 4.118 1.386 1.116.486 2.371 1.096 3.122 2.093.255.338.741.191.858-.095a.482.482 0 0 0 .073-.137c.878-2.635 1.033-5.609 3.405-7.445.85-.657 1.942-1.006 2.988-1.186 1.123-.192 2.396-.182 3.447.305.496.231.974.577 1.24 1.064.317.58.378 1.29.429 1.935.053.693.082 1.382.202 2.068.155.871.408 1.72.694 2.555.43 1.253.974 2.489 1.245 3.79.162.78.193 1.651-.417 2.248-.447.437-1.078.655-1.67.81-.893.235-1.823.352-2.747.373-1.885.043-3.731-.382-5.383-1.292a.36.36 0 0 0-.363-.101c-.319.043-.531.459-.329.728.553 1.205 1.209 2.36 1.805 3.545.636 1.266 1.102 2.565 1.504 3.922.399 1.345.763 2.699 1.173 4.041.427 1.391.949 2.746 1.411 4.124 1.788 5.332 2.888 10.848 3.577 16.421 1.432 11.57 1.379 23.224 1.426 34.858.026 6.784.422 13.561.426 20.344 0 .416.455.54.725.371V92.998c-.085-2.813-.173-5.624-.212-8.437-.081-5.905.001-11.809-.147-17.713-.147-5.873-.454-11.744-1.111-17.584-.632-5.62-1.599-11.199-3.271-16.611-.46-1.489-1.005-2.944-1.506-4.419-.527-1.551-.952-3.132-1.405-4.704-.435-1.502-.901-2.972-1.582-4.383-.456-.943-.96-1.859-1.437-2.79a11.5 11.5 0 0 0 3.988.858c1.625.059 3.506-.112 4.972-.875.946-.493 1.534-1.335 1.591-2.405.063-1.17-.391-2.353-.778-3.434-.624-1.74-1.288-3.466-1.413-5.329-.095-1.426-.143-2.993-1.334-3.976C78.95.412 77.714.095 76.447.095c-1.394 0-2.826.385-3.956.959z"/>
        <path id="e" d="M5.018 3.333c-.949 1.185-1.586 2.683-2.166 4.075a32.78 32.78 0 0 0-1.462 4.307C.16 16.397-.072 22.106 3.911 25.571c2.107 1.832 4.675 3.34 7.489 3.679 2.732.329 5.405-.682 7.332-2.63 3.411-3.451 4.392-9.032 3.787-13.692-.332-2.558-1.01-5.279-2.434-7.463-1.435-2.198-4-3.791-6.514-4.435a8.286 8.286 0 0 0-1.92-.263c-2.45.009-5.023.562-6.633 2.566zm.831 23.055c-1.071-.745-2.123-1.593-2.896-2.654-.691-.948-1.167-2.029-1.453-3.163-.574-2.275-.418-4.695.026-6.979a30.466 30.466 0 0 1 2.65-7.76c.619-1.237 1.283-2.448 2.449-3.248.961-.659 2.093-1.005 3.241-1.158a14.01 14.01 0 0 1 1.785-.107c2.6.042 5.27 1.467 7.058 3.304 1.73 1.775 2.506 4.375 2.991 6.745.905 4.428.44 9.523-2.128 13.349-1.416 2.112-3.629 3.719-6.201 4-.295.032-.59.048-.884.048-2.39 0-4.697-1.027-6.638-2.377z"/>
        <path id="g" d="M22.814.829c-1.714.115-3.416.373-5.11.657-1.438.241-2.843.554-4.19 1.13-2.584 1.109-4.893 3.049-6.831 5.056-2.177 2.256-4.028 4.956-4.757 8.04-.391 1.647-.547 3.339-.889 4.995-.346 1.672-.668 3.337-.819 5.039-.065.73-.09 1.457-.095 2.183v.5c.005.777.028 1.555.049 2.336.036 1.446.06 2.935.506 4.325.206.642.505 1.243.91 1.782h.502c.051-.073.059-.17-.015-.267-.887-1.171-1.176-2.602-1.279-4.039a55.855 55.855 0 0 1-.139-4.501c.03-3.357.843-6.576 1.364-9.872.25-1.587.536-3.202 1.213-4.673.645-1.397 1.495-2.708 2.462-3.903 1.796-2.218 4.041-4.252 6.502-5.709 2.546-1.511 5.481-1.93 8.372-2.303 2.954-.38 6.098-.597 8.889.63 4.602 2.024 7.802 6.755 9.352 11.393 1.053 3.149 1.762 6.451 2.263 9.729.264 1.724.447 3.452.492 5.197.046 1.766-.011 3.533-.054 5.297-.02.87-.037 1.739-.037 2.607 0 .356.551.356.552 0 .002-2.086.1-4.175.106-6.262v-.428c-.004-1.449-.059-2.896-.226-4.34a64.97 64.97 0 0 0-2.092-10.389c-1.418-4.963-4.224-9.931-8.793-12.62a11.825 11.825 0 0 0-3.494-1.387C26.585.83 25.614.76 24.645.76h-.028c-.604 0-1.207.029-1.803.069z"/>
        <path id="i" d="M1.393.869a.478.478 0 0 0-.219.062.63.63 0 0 0-.08.055c-.009.008-.017.01-.026.018-.007.008-.01.016-.018.024a.46.46 0 0 0-.058.079 2.162 2.162 0 0 0 .097 2.779c.11.12.294.158.448.118.544-.145.895-.662 1.025-1.184.136-.534.088-1.146-.284-1.577C2.061.991 1.727.869 1.4.869h-.007z"/>
        <path id="k" d="M1.205.674L1.197.68c-.013.013-.03.024-.042.039-.015.018-.027.04-.042.058-.008.013-.022.021-.03.035-.002.004-.002.01-.004.013C.467 1.632.348 2.832.93 3.689a.475.475 0 0 0 .63.165c.58-.285.872-.958.937-1.568.069-.639-.191-1.331-.784-1.639-.011-.006-.024-.006-.036-.011a.513.513 0 0 0-.133-.041L1.538.594a.49.49 0 0 0-.077-.006.404.404 0 0 0-.256.086z"/>
        <path id="m" d="M3.146 1.483c-.565.502-.846 1.256-1.095 1.949-.233.649-.428 1.394-.926 1.9a.472.472 0 0 0-.11.174c-.074.15-.061.333.11.478.955.804 2.114 1.407 3.376 1.501 1.034.076 2.09-.309 2.644-1.225.309-.515.425-1.13.428-1.724.003-.75-.131-1.526-.497-2.187-.365-.659-.97-1.232-1.71-1.433a2.159 2.159 0 0 0-.569-.075c-.602 0-1.199.239-1.651.642z"/>
        <path id="o" d="M2.525 1.521c-.714.692-1.198 1.629-1.51 2.564-.213.63-.347 1.364-.079 1.998.485 1.143 1.933 1.17 2.982 1.036 1.447-.182 2.85-.652 4.202-1.185a.506.506 0 0 0 .332-.375.526.526 0 0 0 .025-.123c.108-1.619-.548-3.305-1.889-4.266A3.099 3.099 0 0 0 4.777.575c-.811 0-1.614.328-2.252.946z"/>
        <path id="q" d="M1.983.728c-.006.002-.012.002-.018.005-2.846 1.028 1.237 4.299 2.45 4.935a3.17 3.17 0 0 0 1.476.374c-.019.97-.059 1.941-.058 2.914.024 1.037.1 2.077.304 3.095a.758.758 0 0 1-.085.011 1.334 1.334 0 0 1-.272-.018 3.106 3.106 0 0 1-.671-.173c-.244-.067-.474-.177-.718-.266a5.6 5.6 0 0 1-.69-.341c-.223-.132-.428-.271-.579-.537h-.074c.006.307.172.576.361.795.194.221.421.408.664.568.486.317 1.016.578 1.603.682.298.035.601.005.881-.098.28-.102.53-.276.738-.482.417-.418.688-.94.955-1.447l-.065-.035c-.499.386-.896.812-1.294 1.066-.204.118-.378.215-.564.245l-.016.002c.099-.496.154-.966.192-1.433.035-.276.031-.548.054-.821l.012-.821-.034-.828c-.032-.277-.04-.555-.094-.836a6.588 6.588 0 0 0-.294-1.255c1.376-.106 2.647-1.08 3.508-2.204.479-.624 1.016-1.463.827-2.293C10.33.866 9.708.496 9.083.357c-.47-.106-.954-.119-1.433-.1C7.002.282 6.355.256 5.708.234a21.35 21.35 0 0 0-.714-.013c-1.031 0-2.046.099-3.011.507z"/>
        <path id="s" d="M1.069.246c-.006.43.008.861-.005 1.289-.001.427-.029.858-.137 1.272l.036.01c.183-.174.29-.39.36-.609.075-.22.099-.445.109-.667a2.817 2.817 0 0 0-.073-.655 2.086 2.086 0 0 0-.254-.64h-.036z"/>
        <path id="u" d="M.476 1.884a7.527 7.527 0 0 1-.261.913l.034.014c.178-.105.295-.239.386-.381a1.53 1.53 0 0 0 .2-.461 1.51 1.51 0 0 0 .03-.503A1.056 1.056 0 0 0 .678.952L.642.949a5.602 5.602 0 0 1-.166.935z"/>
        <path id="w" d="M1.138 2.133C.986 2.63.854 3.137.797 3.657l.036.004a4.84 4.84 0 0 0 .38-.705 7.33 7.33 0 0 0 .277-.712c.072-.244.144-.491.181-.754.041-.26.062-.532.016-.819L1.653.66l-.515 1.473z"/>
        <path id="y" d="M1.244.281h-.138c.054 0 .005.001.022.001v.057l-.001.066-.002.263h-.037L1.081.649l-.002.292-.01 1.05.019 2.098h.037c.13-.349.197-.7.243-1.049A8.048 8.048 0 0 0 1.369.941a6.382 6.382 0 0 0-.091-.524L1.246.286 1.245.281V.28l-.001.001zm-.159 0c-.304 0-.008.001-.117.001l.003.009.004.017.008.031.018.066c.022.082.049.162.08.244l.002-.232.002-.131V.28v.001z"/>
        <path id="A" d="M1.235.929c-.006.855-.047 1.711-.087 2.564-.03.856-.061 1.711-.055 2.568h.036a8.2 8.2 0 0 0 .267-1.275c.064-.425.096-.85.119-1.277.012-.428.016-.858-.021-1.289A5.862 5.862 0 0 0 1.271.929h-.036z"/>
        <path id="C" d="M.371.782c-.004.6.042 1.197.045 1.792.013.594 0 1.199-.187 1.765l.035.013c.224-.243.347-.553.422-.858.079-.307.096-.619.098-.926a4.927 4.927 0 0 0-.104-.902A4.19 4.19 0 0 0 .408.782H.371z"/>
        <path id="E" d="M.634 1.75a4.975 4.975 0 0 1-.119.854l.035.011a.905.905 0 0 0 .33-.392c.071-.144.099-.293.121-.435A1.694 1.694 0 0 0 .835.904L.8.893c-.091.279-.131.57-.166.857z"/>
        <path id="G" d="M.358.778a24.87 24.87 0 0 0 .055 1.57c.041.522.082 1.044.088 1.566h.037c.13-.261.188-.531.222-.798.036-.266.031-.531.02-.792a5.23 5.23 0 0 0-.117-.776 3.333 3.333 0 0 0-.268-.77H.358z"/>
        <path id="I" d="M.777.923c.022.285.02.573-.008.858a3.987 3.987 0 0 1-.133.845l.035.011a.91.91 0 0 0 .339-.38c.076-.142.109-.296.126-.449a1.239 1.239 0 0 0-.053-.459.942.942 0 0 0-.269-.43L.777.923z"/>
        <path id="K" d="M.694 2.861L.642 4.786h.036c.141-.32.221-.639.279-.959.062-.319.087-.64.106-.957.005-.321.004-.64-.033-.962a4.066 4.066 0 0 0-.21-.97L.784.936l-.09 1.925z"/>
        <path id="M" d="M.773.087L.755 1.726l.018 1.639h.036c.13-.273.198-.546.244-.819.051-.274.063-.547.07-.82a5.051 5.051 0 0 0-.069-.82A2.995 2.995 0 0 0 .809.087H.773z"/>
        <path id="O" d="M.915.24l-.017.854.017.856h.037c.13-.142.198-.284.244-.428.05-.141.063-.284.07-.428a1.476 1.476 0 0 0-.069-.426A1.101 1.101 0 0 0 .952.24H.915z"/>
        <path id="Q" d="M.868 1.31C.8 1.714.712 2.115.616 2.514l.035.01c.177-.168.292-.353.384-.547.095-.191.151-.394.195-.599.033-.208.054-.42.032-.636A1.577 1.577 0 0 0 1.08.096L1.043.094C1.011.503.949.908.868 1.31z"/>
        <path id="S" d="M.451.522L.433 1.876l.018 1.355h.037c.13-.225.197-.451.243-.677A3.387 3.387 0 0 0 .732 1.2 2.195 2.195 0 0 0 .488.522H.451z"/>
        <path id="U" d="M1.173.803c-.007.479.015.956.006 1.433.003.475-.025.953-.148 1.414l.035.01c.19-.197.302-.438.374-.681.076-.245.099-.494.107-.741a3.314 3.314 0 0 0-.08-.725 2.603 2.603 0 0 0-.257-.71h-.037z"/>
        <path id="W" d="M.333.37c.055.434.162.856.252 1.281.101.421.184.849.175 1.281l.037.002c.138-.215.189-.454.203-.686a2.456 2.456 0 0 0-.057-.678A3.242 3.242 0 0 0 .73.95 2.672 2.672 0 0 0 .369.365L.333.37z"/>
        <path id="Y" d="M.624.649c.06.318.128.635.213.949.097.31.213.616.359.907l.034-.016c.047-.201.05-.369.039-.53a2.184 2.184 0 0 0-.078-.464 2.195 2.195 0 0 0-.187-.438A1.4 1.4 0 0 0 .66.641L.624.649z"/>
        <path id="aa" d="M.464.507c.025.54.263 1.035.488 1.511.235.471.475.953.51 1.483l.037-.003c.115-.275.11-.583.055-.862a3.29 3.29 0 0 0-.272-.779 8.952 8.952 0 0 0-.376-.672L.501.505.464.507z"/>
        <path id="ac" d="M.741.074c-.009.391.057.778.14 1.158.094.377.207.749.288 1.126l.036-.006c.089-.217.109-.427.105-.629a2.845 2.845 0 0 0-.071-.575c-.048-.182-.1-.36-.175-.533A2.774 2.774 0 0 0 .777.074H.741z"/>
        <path id="ae" d="M.973 1.518c.081.336.204.662.352.972l.034-.016c.046-.209.048-.386.038-.555-.005-.169-.036-.325-.064-.482-.039-.153-.077-.306-.142-.46a2.113 2.113 0 0 0-.257-.49L.897.485c-.018.345.008.692.076 1.033z"/>
        <path id="ag" d="M.905 1.485c.027.382.073.763.143 1.139l.035-.006c.097-.21.14-.402.165-.593.03-.189.028-.374.025-.56a3.014 3.014 0 0 0-.088-.557A1.79 1.79 0 0 0 .941.34L.905.339c-.012.382-.015.764 0 1.146z"/>
        <path id="ai" d="M.628 1.731a4.42 4.42 0 0 0-.143.878l.037.002a1.68 1.68 0 0 0 .296-.39 1.92 1.92 0 0 0 .164-.391c.033-.137.062-.276.059-.429A1.197 1.197 0 0 0 .949.905L.914.893c-.098.278-.202.554-.286.838z"/>
        <path id="ak" d="M.644.09L.63.731l.014.642h.03A.93.93 0 0 0 .925.731.915.915 0 0 0 .674.09h-.03z"/>
        <path id="am" d="M.641.666c.071.261.127.526.188.79.069.262.143.525.24.779l.028-.01a1.58 1.58 0 0 0 .017-.839C1.044 1.128.937.865.67.658L.641.666z"/>
        <path id="ao" d="M1.06.949l.056.785.086.782.03-.001c.172-.268.194-.538.178-.802-.031-.264-.099-.526-.322-.767L1.06.949z"/>
        <path id="aq" d="M.448.856c-.018.219-.006.442.035.657l.03-.005c.158-.244.201-.428.229-.623A1.493 1.493 0 0 0 .654.234L.627.221a2.06 2.06 0 0 0-.179.635z"/>
        <path id="as" d="M1.35.513L1.334 2.01l.016 1.496h.029c.197-.498.241-.997.25-1.496-.007-.499-.052-.998-.25-1.497H1.35z"/>
        <path id="au" d="M.636.367l.128.291.157.278.026-.012c.129-.184.122-.299.081-.398C.974.434.887.359.662.353L.636.367z"/>
        <path id="aw" d="M.926.794l.057.503.085.497.03-.005c.17-.204.191-.371.176-.534C1.245 1.094 1.177.94.955.793L.926.794z"/>
        <path id="ay" d="M.483 4.431c0 2.244 1.446 4.063 3.231 4.063s3.232-1.819 3.232-4.063c0-2.244-1.447-4.063-3.232-4.063C1.929.368.483 2.187.483 4.431z"/>
        <path id="az" d="M.743.445l-.28.102-.032.012a.891.891 0 0 1 .055-.02l.26-.095-.003.001zM.222.634L.22.636.431.559.222.634z"/>
        <path id="aB" d="M.983 1.045l-.1.036.094-.033.115-.043-.109.04z"/>
        <path id="aD" d="M.959 1.064l-.016.006.016-.005.016-.006-.016.005z"/>
        <path id="aF" d="M.811.354l-.14.051.144-.052-.004.001zM.555.447L.47.478.531.456.579.439.555.447zm-.26.095L.439.489.295.542z"/>
        <path id="aH" d="M1.297.864l-.146.053.147-.053h-.001zm-.246.089l-.246.09-.001.001.241-.088.106-.039-.1.036z"/>
    </defs>
    <g fill="none" fill-rule="evenodd" transform="translate(2.414 2.5)">
        <mask id="b" fill="#fff">
            <use xlink:href="#a"/>
        </mask>
        <ellipse cx="77.348" cy="78" stroke="#54637A" stroke-width="2" rx="78.348" ry="79"/>
        <g mask="url(#b)">
            <path fill="#FEFEFE" d="M106.688 53.699l-3.109 1.143-2.365 3.423-1.155 4.56-.558.106-3.721-2.45-6.382-1.755-6.624-1.172h-6.773l-6.487.415-6.558 1.428-5.918 1.462-5.593 1.45-1.117.298-.367-1.127-1.538-2.754-1.523-1.737-2.889-1.111H41.97l-2.282 1.362-4.038 5.069-1.621 5.53 1.17 1.995 2.76.928 4.625-.385 3.585-.934.223.391-1.138 1.76-2.232 4.508-1.906 5.923-1.942 8.218-.623 12.715v6.948l-1.69 8.129-2.109 10.96-1.434 10.406-1.023 16.394h81.901l-.3-18.388v-19.834l-1.576-18.134-1.686-9.196-2.361-7.749-2.835-9.231-2.564-4.723.275-.457h.43l4.41 1.176h3.431l2.258-1.176.441-1.865-1.245-3.393-.777-2.344-.272-2.512-.405-2.712-1.893-1.558z"/>
            <path stroke="#FEFEFE" stroke-width=".5" d="M32.295 155.795l1.023-16.394 1.434-10.406 2.109-10.96 1.69-8.13v-6.946l.623-12.716 1.942-8.218 1.907-5.923 2.23-4.508 1.14-1.76-.223-.391-3.586.935-4.624.385-2.761-.928-1.17-1.996 1.62-5.53 4.04-5.07 2.28-1.361h2.043l2.888 1.11 1.523 1.738 1.538 2.754.367 1.127 1.117-.297 5.593-1.452 5.918-1.461 6.559-1.43L76 57.555h6.773l6.625 1.172 6.38 1.756 3.722 2.449.559-.105 1.155-4.561 2.365-3.423 3.109-1.143h2.838l1.894 1.558.404 2.71.273 2.515.776 2.344 1.245 3.393-.44 1.865-2.258 1.175h-3.432l-4.41-1.175h-.43l-.275.456 2.565 4.724 2.835 9.23 2.36 7.749 1.686 9.197 1.577 18.133v19.834l.299 18.388z"/>
            <g transform="translate(31.374 52.906)">
                <mask id="d" fill="#fff">
                    <use xlink:href="#c"/>
                </mask>
                <path fill="#221E1F" d="M-5 108.333h93.743V-4.906H-5z" mask="url(#d)"/>
            </g>
            <g transform="translate(64.374 82.906)">
                <mask id="f" fill="#fff">
                    <use xlink:href="#e"/>
                </mask>
                <path fill="#221E1F" d="M-4.403 34.311h32.09V-4.234h-32.09z" mask="url(#f)"/>
            </g>
            <g transform="translate(54.374 119.906)">
                <mask id="h" fill="#fff">
                    <use xlink:href="#g"/>
                </mask>
                <path fill="#221E1F" d="M-4.877 42h52.011V-4.24H-4.877z" mask="url(#h)"/>
            </g>
            <g transform="translate(61.374 81.906)">
                <mask id="j" fill="#fff">
                    <use xlink:href="#i"/>
                </mask>
                <path fill="#221E1F" d="M-4.467 9.019H7.632v-13.15H-4.467z" mask="url(#j)"/>
            </g>
            <g transform="translate(87.374 81.906)">
                <mask id="l" fill="#fff">
                    <use xlink:href="#k"/>
                </mask>
                <path fill="#221E1F" d="M-4.448 8.911H7.508V-4.412H-4.448z" mask="url(#l)"/>
            </g>
            <g transform="translate(101.374 57.906)">
                <mask id="n" fill="#fff">
                    <use xlink:href="#m"/>
                </mask>
                <path fill="#E3E6EA" d="M-4.028 12.494h16.602V-4.159H-4.028z" mask="url(#n)"/>
            </g>
            <g transform="translate(39.374 59.906)">
                <mask id="p" fill="#fff">
                    <use xlink:href="#o"/>
                </mask>
                <path fill="#E3E6EA" d="M-4.213 12.174h17.701V-4.425H-4.213z" mask="url(#p)"/>
            </g>
            <g transform="translate(70.374 86.906)">
                <mask id="r" fill="#fff">
                    <use xlink:href="#q"/>
                </mask>
                <path fill="#221E1F" d="M-4.023 17.787h19.545V-4.778H-4.023z" mask="url(#r)"/>
            </g>
            <g transform="translate(71.374 121.906)">
                <mask id="t" fill="#fff">
                    <use xlink:href="#s"/>
                </mask>
                <path fill="#181718" d="M-4.073 7.817H6.432V-4.754H-4.073z" mask="url(#t)"/>
            </g>
            <g transform="translate(71.374 125.906)">
                <mask id="v" fill="#fff">
                    <use xlink:href="#u"/>
                </mask>
                <path fill="#181718" d="M-4.785 7.81h10.66V-4.051h-10.66z" mask="url(#v)"/>
            </g>
            <g transform="translate(65.374 125.906)">
                <mask id="x" fill="#fff">
                    <use xlink:href="#w"/>
                </mask>
                <path fill="#181718" d="M-4.203 8.661H6.714V-4.34H-4.203z" mask="url(#x)"/>
            </g>
            <g transform="translate(62.374 124.906)">
                <mask id="z" fill="#fff">
                    <use xlink:href="#y"/>
                </mask>
                <path fill="#181718" d="M-4.057 9.089H6.437V-4.72H-4.057z" mask="url(#z)"/>
            </g>
            <g transform="translate(60.374 135.906)">
                <mask id="B" fill="#fff">
                    <use xlink:href="#A"/>
                </mask>
                <path fill="#181718" d="M-3.908 11.061H6.524V-4.072H-3.908z" mask="url(#B)"/>
            </g>
            <g transform="translate(64.374 137.906)">
                <mask id="D" fill="#fff">
                    <use xlink:href="#C"/>
                </mask>
                <path fill="#181718" d="M-4.771 9.352H5.784v-13.57H-4.771z" mask="url(#D)"/>
            </g>
            <g transform="translate(64.374 149.906)">
                <mask id="F" fill="#fff">
                    <use xlink:href="#E"/>
                </mask>
                <path fill="#181718" d="M-4.485 7.615H6.007V-4.107H-4.485z" mask="url(#F)"/>
            </g>
            <g transform="translate(70.374 139.906)">
                <mask id="H" fill="#fff">
                    <use xlink:href="#G"/>
                </mask>
                <path fill="#181718" d="M-4.643 8.914H5.788V-4.222H-4.643z" mask="url(#H)"/>
            </g>
            <g transform="translate(74.374 139.906)">
                <mask id="J" fill="#fff">
                    <use xlink:href="#I"/>
                </mask>
                <path fill="#181718" d="M-4.364 7.637H6.139V-4.081H-4.364z" mask="url(#J)"/>
            </g>
            <g transform="translate(71.374 131.906)">
                <mask id="L" fill="#fff">
                    <use xlink:href="#K"/>
                </mask>
                <path fill="#181718" d="M-4.358 9.786H6.066v-13.85H-4.358z" mask="url(#L)"/>
            </g>
            <g transform="translate(76.374 129.906)">
                <mask id="N" fill="#fff">
                    <use xlink:href="#M"/>
                </mask>
                <path fill="#181718" d="M-4.245 8.365H6.123V-4.913H-4.245z" mask="url(#N)"/>
            </g>
            <g transform="translate(76.374 124.906)">
                <mask id="P" fill="#fff">
                    <use xlink:href="#O"/>
                </mask>
                <path fill="#181718" d="M-4.103 6.95H6.265V-4.76H-4.103z" mask="url(#P)"/>
            </g>
            <g transform="translate(83.374 125.906)">
                <mask id="R" fill="#fff">
                    <use xlink:href="#Q"/>
                </mask>
                <path fill="#181718" d="M-4.384 7.523H6.271v-12.43H-4.384z" mask="url(#R)"/>
            </g>
            <g transform="translate(93.374 125.906)">
                <mask id="T" fill="#fff">
                    <use xlink:href="#S"/>
                </mask>
                <path fill="#181718" d="M-4.566 8.231H5.801V-4.478H-4.566z" mask="url(#T)"/>
            </g>
            <g transform="translate(89.374 127.906)">
                <mask id="V" fill="#fff">
                    <use xlink:href="#U"/>
                </mask>
                <path fill="#181718" d="M-3.969 8.66H6.547V-4.196H-3.969z" mask="url(#V)"/>
            </g>
            <g transform="translate(82.374 131.906)">
                <mask id="X" fill="#fff">
                    <use xlink:href="#W"/>
                </mask>
                <path fill="#181718" d="M-4.667 7.934H6.006V-4.635H-4.667z" mask="url(#X)"/>
            </g>
            <g transform="translate(79.374 135.906)">
                <mask id="Z" fill="#fff">
                    <use xlink:href="#Y"/>
                </mask>
                <path fill="#181718" d="M-4.376 7.505h10.65V-4.359h-10.65z" mask="url(#Z)"/>
            </g>
            <g transform="translate(87.374 133.906)">
                <mask id="ab" fill="#fff">
                    <use xlink:href="#aa"/>
                </mask>
                <path fill="#181718" d="M-4.536 8.501H6.592V-4.495H-4.536z" mask="url(#ab)"/>
            </g>
            <g transform="translate(91.374 135.906)">
                <mask id="ad" fill="#fff">
                    <use xlink:href="#ac"/>
                </mask>
                <path fill="#181718" d="M-4.26 7.358H6.31V-4.926H-4.26z" mask="url(#ad)"/>
            </g>
            <g transform="translate(85.374 142.906)">
                <mask id="af" fill="#fff">
                    <use xlink:href="#ae"/>
                </mask>
                <path fill="#181718" d="M-4.108 7.49H6.403V-4.515H-4.108z" mask="url(#af)"/>
            </g>
            <g transform="translate(81.374 144.906)">
                <mask id="ah" fill="#fff">
                    <use xlink:href="#ag"/>
                </mask>
                <path fill="#181718" d="M-4.106 7.624h10.38V-4.661h-10.38z" mask="url(#ah)"/>
            </g>
            <g transform="translate(77.374 149.906)">
                <mask id="aj" fill="#fff">
                    <use xlink:href="#ai"/>
                </mask>
                <path fill="#181718" d="M-4.515 7.611H6.042V-4.107H-4.515z" mask="url(#aj)"/>
            </g>
            <g transform="translate(71.374 61.906)">
                <mask id="al" fill="#fff">
                    <use xlink:href="#ak"/>
                </mask>
                <path fill="#181718" d="M-4.37 6.372H5.925V-4.911H-4.37z" mask="url(#al)"/>
            </g>
            <g transform="translate(73.374 60.906)">
                <mask id="an" fill="#fff">
                    <use xlink:href="#am"/>
                </mask>
                <path fill="#181718" d="M-4.358 7.235H6.163V-4.342H-4.358z" mask="url(#an)"/>
            </g>
            <g transform="translate(77.374 60.906)">
                <mask id="ap" fill="#fff">
                    <use xlink:href="#ao"/>
                </mask>
                <path fill="#181718" d="M-3.94 7.516H6.414v-11.57H-3.94z" mask="url(#ap)"/>
            </g>
            <g transform="translate(80.374 63.906)">
                <mask id="ar" fill="#fff">
                    <use xlink:href="#aq"/>
                </mask>
                <path fill="#181718" d="M-4.56 6.513H5.747V-4.779H-4.56z" mask="url(#ar)"/>
            </g>
            <g transform="translate(75.374 63.906)">
                <mask id="at" fill="#fff">
                    <use xlink:href="#as"/>
                </mask>
                <path fill="#181718" d="M-3.666 8.507H6.629V-4.487H-3.666z" mask="url(#at)"/>
            </g>
            <g transform="translate(76.374 68.906)">
                <mask id="av" fill="#fff">
                    <use xlink:href="#au"/>
                </mask>
                <path fill="#181718" d="M-4.364 5.936H6.055V-4.647H-4.364z" mask="url(#av)"/>
            </g>
            <g transform="translate(73.374 65.906)">
                <mask id="ax" fill="#fff">
                    <use xlink:href="#aw"/>
                </mask>
                <path fill="#181718" d="M-4.074 6.794H6.279V-4.208H-4.074z" mask="url(#ax)"/>
            </g>
            <g transform="translate(41.374 64.906)">
                <mask id="aA" fill="#fff">
                    <use xlink:href="#az"/>
                </mask>
                <path fill="#989CA5" d="M-2.769 7.044l-3.42-9.397 9.924-3.612 3.42 9.397z" mask="url(#aA)"/>
            </g>
            <g transform="translate(41.374 61.906)">
                <mask id="aC" fill="#fff">
                    <use xlink:href="#aB"/>
                </mask>
                <path fill="#989CA5" d="M-2.253 7.543l-3.42-9.396 9.891-3.6 3.42 9.396z" mask="url(#aC)"/>
            </g>
            <g transform="translate(42.374 59.906)">
                <mask id="aE" fill="#fff">
                    <use xlink:href="#aD"/>
                </mask>
                <path fill="#989CA5" d="M-2.046 7.479l-3.42-9.397 9.43-3.432 3.42 9.397z" mask="url(#aE)"/>
            </g>
            <path fill="#989CA5" d="M44.197 64.143h.001z"/>
            <g transform="translate(104.374 62.906)">
                <mask id="aG" fill="#fff">
                    <use xlink:href="#aF"/>
                </mask>
                <path fill="#989CA5" d="M-2.701 6.953l-3.42-9.397 9.924-3.612 3.42 9.397z" mask="url(#aG)"/>
            </g>
            <g transform="translate(104.374 59.906)">
                <mask id="aI" fill="#fff">
                    <use xlink:href="#aH"/>
                </mask>
                <path fill="#989CA5" d="M-2.185 7.452l-3.42-9.397 9.891-3.6 3.42 9.397z" mask="url(#aI)"/>
            </g>
            <path fill="#989CA5" d="M107.266 62.051z"/>
            <g stroke="#231F20">
                <path d="M101.033 82.167c-.284-3.956-3.436-7.44-7.271-8.45-1.91-.502-3.992-.44-5.807.335-1.817.776-3.336 2.298-3.951 4.174-.63 1.913-.294 4.046.56 5.87.854 1.823 2.189 3.378 3.603 4.811 1.38 1.401 3.063 2.88 5.148 2.913 1.363.021 2.124-.87 3.198-1.574 2.782-1.825 4.77-4.59 4.52-8.079zM59.44 75.053c-3.957.284-7.442 3.435-8.45 7.27-.503 1.91-.443 3.992.334 5.808.775 1.816 2.298 3.336 4.174 3.952 1.913.628 4.046.293 5.87-.561 1.823-.854 3.378-2.19 4.811-3.603 1.401-1.381 2.88-3.063 2.912-5.15.017-1.016-.476-1.7-1.02-2.426-.185-.247-.375-.498-.553-.77-1.825-2.782-4.59-4.77-8.079-4.52z"/>
                <path d="M68.071 80.343s5.979 1 7.914.936c2.5-.084 7.467-1.084 7.483-1.227M103.203 67.812l-2.17 14.355M46.429 69.747l4.138 14.435"/>
            </g>
        </g>
    </g>
</svg>
