<svg xmlns="http://www.w3.org/2000/svg" xmlns:xlink="http://www.w3.org/1999/xlink" width="127" height="127" viewBox="0 0 127 127">
    <defs>
        <ellipse id="a" cx="60.986" cy="61.5" rx="60.986" ry="61.5"/>
    </defs>
    <g fill="none" fill-rule="evenodd" transform="translate(2.199 2)">
        <mask id="b" fill="#fff">
            <use xlink:href="#a"/>
        </mask>
        <ellipse cx="60.986" cy="61.5" stroke="#54637A" stroke-width="2" rx="61.986" ry="62.5"/>
        <g mask="url(#b)">
            <path fill="#FFF" stroke="#181818" stroke-width=".8" d="M30.884 28.015l-1.596 1.313-.34 2.285-.23 2.118-.654 1.975-1.05 2.86.371 1.571 1.903.991h2.893l3.716-.99h.362l.233.384-2.162 3.98-2.39 7.78-1.988 6.53-1.422 7.75-1.328 15.283V98.56c.652 17.187 2.845 29.016 6.58 35.485.074.127.157.254.25.382l-1.92 7.799c-2.7 4.79-3.948 7.844-3.744 9.162.307 1.976 9.214 2.877 11.393 3.064 2.179.187 6.634-2.25 8.265-3.996.67-.717.933-3.54.79-8.47 5.34 1.596 11.145 2.693 15.791 2.813a33.63 33.63 0 0 0 8.174-.808c-.05 3.985.225 6.297.82 6.935 1.632 1.747 6.087 4.183 8.266 3.996 2.18-.187 11.086-1.087 11.393-3.064.204-1.318-1.044-4.372-3.744-9.162l-1.3-5.28c5.44-3.327 7.738-15.719 6.894-37.175l-1.208-8.77-1.779-9.237-1.423-6.85v-5.856l-.525-10.716-1.637-6.926-1.606-4.99-1.88-3.8-.96-1.483.187-.33 3.022.788 3.897.324 2.326-.782.986-1.682-1.366-4.66L89.742 31l-1.923-1.148h-1.721l-2.435.936-1.283 1.464-1.296 2.32-.31.951-.94-.25-4.714-1.224-4.988-1.231-5.527-1.204-5.466-.35H53.43l-5.582.988-5.378 1.48-3.136 2.064-.47-.089-.975-3.843-1.992-2.885-2.62-.963h-2.393z"/>
            <path fill="#231F20" d="M52.443 73.46c1.194 1.78 3.058 3.134 5.225 3.37 2.278.25 4.503-.685 6.34-1.962.902-.628 1.79-1.343 2.441-2.237a7.715 7.715 0 0 0 1.224-2.665c.484-1.918.353-3.957-.022-5.882a25.634 25.634 0 0 0-2.233-6.54c-.522-1.042-1.081-2.063-2.064-2.737-.81-.556-1.764-.847-2.731-.976a11.718 11.718 0 0 0-1.505-.09c-2.19.035-4.44 1.237-5.948 2.785-1.457 1.495-2.112 3.687-2.52 5.684-.764 3.731-.371 8.025 1.793 11.25m-2.483-9.936c.28-2.155.85-4.449 2.05-6.288 1.21-1.853 3.372-3.196 5.49-3.738a6.982 6.982 0 0 1 1.618-.223c2.066.008 4.233.474 5.59 2.163.8.998 1.336 2.261 1.826 3.434a27.666 27.666 0 0 1 1.231 3.63c1.037 3.946 1.233 8.758-2.124 11.677-1.776 1.544-3.94 2.815-6.311 3.1-2.303.278-4.555-.574-6.179-2.216-2.875-2.907-3.701-7.612-3.191-11.539M69.546 52.834c.184-.214.468-.316.745-.315.039 0 .077.009.114.021a.402.402 0 0 1 .138.078c.007.006.016.008.022.015.006.006.01.013.015.02.019.02.035.043.05.067a1.82 1.82 0 0 1-.082 2.341.388.388 0 0 1-.378.1c-.458-.123-.754-.557-.864-.997-.114-.451-.073-.967.24-1.33M48.11 52.332c.01-.005.02-.005.031-.01a.451.451 0 0 1 .116-.035c.1-.015.202.003.282.068l.006.005c.012.01.025.02.035.032.014.016.023.034.036.05.007.01.018.017.025.029l.004.011c.515.68.615 1.692.125 2.413a.4.4 0 0 1-.53.14c-.49-.24-.735-.807-.79-1.322-.059-.539.161-1.122.66-1.381"/>
            <path fill="#E4E7EB" d="M31.793 33.54c.307-.556.816-1.04 1.44-1.208.656-.177 1.37.032 1.871.478.476.423.713 1.059.923 1.643.197.547.361 1.175.78 1.601a.388.388 0 0 1 .093.147c.062.126.052.28-.093.402-.805.678-1.782 1.186-2.845 1.265-.872.065-1.762-.26-2.227-1.032-.261-.434-.359-.952-.362-1.453-.003-.632.111-1.286.42-1.843M84.454 34.232c1.089-.78 2.474-.625 3.424.296.602.583 1.01 1.373 1.274 2.16.178.532.29 1.15.065 1.684-.408.964-1.629.986-2.513.874-1.219-.155-2.402-.55-3.541-1a.427.427 0 0 1-.28-.316.424.424 0 0 1-.02-.103c-.092-1.364.462-2.785 1.591-3.595"/>
            <path fill="#231F20" d="M56.226 56.3a4.7 4.7 0 0 1 1.207-.083c.547.02 1.091 0 1.638-.02 1.074-.035 2.14-.006 3.14.417l.014.004c2.398.866-1.042 3.624-2.065 4.159a2.673 2.673 0 0 1-1.244.315c.016.818.05 1.636.049 2.456-.02.873-.084 1.75-.257 2.609.024.003.048.007.072.008a1.13 1.13 0 0 0 .23-.014c.164-.017.368-.076.565-.146.206-.057.4-.15.605-.224.2-.087.4-.176.582-.288.188-.111.36-.228.488-.452h.062c-.005.259-.145.485-.304.67a2.77 2.77 0 0 1-.56.479c-.41.266-.856.486-1.35.574-.252.03-.506.004-.743-.083a1.73 1.73 0 0 1-.622-.406c-.351-.352-.58-.792-.804-1.22l.054-.029c.42.325.755.685 1.09.899.172.1.319.18.475.206l.014.002c-.083-.419-.13-.815-.161-1.208-.03-.233-.027-.462-.045-.692l-.011-.692.028-.697c.028-.234.034-.469.08-.705.051-.35.123-.705.247-1.058-1.16-.089-2.23-.91-2.956-1.857-.404-.526-.857-1.233-.697-1.933.128-.561.652-.873 1.18-.99z"/>
            <path fill="#181818" d="M62.106 85.704c-.11.18-.171.358-.214.54-.045.18-.06.364-.06.552.008.186.028.376.09.561.06.185.15.367.305.514l.03-.008a4.28 4.28 0 0 1-.115-1.073c-.012-.36 0-.723-.005-1.086h-.03zM62.467 89.67a.89.89 0 0 0-.158.433c-.02.145-.002.287.026.424.038.135.086.268.167.388.078.12.177.233.326.32l.03-.01a6.555 6.555 0 0 1-.222-.77 4.732 4.732 0 0 1-.138-.787l-.031.002zM66.672 89.433a2.17 2.17 0 0 0 .014.69c.032.222.092.43.153.636.07.204.142.404.234.6.088.197.185.391.32.594l.03-.003a6.993 6.993 0 0 0-.288-1.285l-.433-1.241-.03.01zM69.706 88.588c.028-.074.053-.148.073-.222l.016-.055.006-.027.004-.014.001-.007c-.103 0 .233 0-.232-.001l-.001.004-.028.11c-.03.148-.058.295-.076.443-.042.294-.053.589-.058.884.005.294.017.589.059.884.038.294.096.59.205.884h.03l.016-1.768-.007-.884-.004-.443-.001-.11v-.004c-.074 0-.02 0-.037.001V88.366l.003.222h.03zM71.237 98.078c-.11.361-.16.725-.188 1.089a9.54 9.54 0 0 0-.017 1.085c.02.36.046.719.1 1.077.05.358.115.714.225 1.074h.03c.004-.722-.02-1.443-.045-2.164-.035-.72-.07-1.44-.074-2.16h-.031zM68.594 99.64c-.11.25-.18.495-.23.744-.054.25-.078.504-.087.761 0 .258.016.521.083.78.063.258.167.519.355.723l.029-.01c-.158-.477-.168-.987-.157-1.488.002-.502.041-1.005.038-1.51h-.031zM66.644 110.797c-.11.25-.18.495-.23.745-.054.249-.078.503-.087.76.001.259.016.521.083.78.063.258.167.519.355.724l.029-.01c-.158-.478-.168-.988-.157-1.488.003-.503.041-1.006.038-1.51h-.031zM68.234 109.856a1.397 1.397 0 0 0-.14.744c.018.12.042.246.102.367a.76.76 0 0 0 .278.33l.03-.008a4.118 4.118 0 0 1-.102-.72 3.78 3.78 0 0 0-.138-.722l-.03.01zM66.284 121.013a1.397 1.397 0 0 0-.14.745c.018.12.042.245.102.367a.76.76 0 0 0 .278.33l.03-.009a4.118 4.118 0 0 1-.101-.72 3.78 3.78 0 0 0-.14-.722l-.029.01zM63.548 101.322c-.11.22-.176.433-.226.65a3.711 3.711 0 0 0-.081 1.321c.028.224.077.451.187.672h.03c.005-.44.04-.88.075-1.32.025-.44.05-.881.046-1.323h-.031zM61.73 112.48a2.35 2.35 0 0 0-.316.649c-.074.216-.11.433-.138.653-.013.22-.018.443.025.668.038.224.108.451.26.672h.044c.007-.44.055-.88.104-1.32.035-.44.069-.88.064-1.323h-.043zM59.824 101.44a.8.8 0 0 0-.227.362c-.043.128-.05.258-.045.388.015.13.042.258.107.378.06.12.145.235.286.32l.03-.009a3.346 3.346 0 0 1-.114-.713 4.195 4.195 0 0 1-.006-.722l-.031-.003zM57.874 112.598a.8.8 0 0 0-.226.362c-.044.127-.051.258-.046.387.015.13.042.258.107.379.06.12.146.234.286.32l.03-.01a3.346 3.346 0 0 1-.114-.712 4.195 4.195 0 0 1-.006-.723l-.031-.003zM62.346 94.715c-.1.275-.147.546-.175.817-.032.27-.033.54-.028.81.015.269.037.538.089.807.048.27.115.539.235.81h.03l-.044-1.623-.075-1.622h-.032zM60.397 105.872c-.1.275-.148.546-.176.817-.032.27-.033.54-.028.81.016.27.037.538.089.808.048.269.116.538.235.808h.03l-.044-1.622-.075-1.622-.031.001zM58.142 92.312c-.11.23-.167.46-.206.69a4.32 4.32 0 0 0-.058.691c.005.23.017.461.059.691.039.23.095.46.205.69h.03l.016-1.38-.015-1.382h-.031zM56.192 103.469c-.11.23-.167.46-.206.69a4.32 4.32 0 0 0-.058.691c.005.23.017.461.059.691.039.23.095.46.205.691h.031l.015-1.382-.015-1.381h-.031zM58.022 88.227a.936.936 0 0 0-.206.36c-.042.12-.053.241-.058.36.005.121.017.241.059.361.039.12.095.24.205.36h.03l.016-.72-.015-.72h-.031zM56.072 99.384a.936.936 0 0 0-.206.36c-.042.12-.053.241-.058.361.005.12.017.24.059.36.039.12.095.24.205.361h.031l.015-.72-.015-.722h-.031zM52.015 88.949c-.1.18-.139.364-.154.545a2.053 2.053 0 0 0 .192 1.04c.077.163.174.32.323.46l.03-.008a15.177 15.177 0 0 1-.213-1.014 8.514 8.514 0 0 1-.147-1.025l-.031.002zM44.086 89.308c-.11.19-.167.38-.206.571-.042.19-.053.38-.058.57.006.19.017.381.059.572.039.19.095.38.205.57h.031l.015-1.141-.015-1.142h-.031zM46.849 91.23c-.11.201-.173.397-.217.598-.048.2-.064.404-.067.612.006.207.026.418.09.624.06.205.154.408.315.574l.03-.009c-.104-.388-.128-.79-.125-1.191-.008-.402.01-.804.005-1.208h-.031zM53.457 94.232a2.26 2.26 0 0 0-.304.493 2.73 2.73 0 0 0-.18.522 2.096 2.096 0 0 0-.048.571c.012.196.055.398.17.58l.032-.002c-.008-.365.063-.726.148-1.08.075-.358.166-.715.212-1.08l-.03-.004zM55.74 97.835c-.136.11-.221.23-.29.351-.072.12-.116.245-.157.37a1.901 1.901 0 0 0-.067.39 1.44 1.44 0 0 0 .034.447l.028.013c.123-.245.22-.502.302-.764.073-.264.129-.532.18-.8l-.03-.007zM49.132 96.035l-.341.574a7.54 7.54 0 0 0-.318.565 2.752 2.752 0 0 0-.228.657c-.047.235-.051.494.046.727l.03.002c.03-.446.232-.854.43-1.25.19-.4.39-.818.412-1.273l-.031-.002zM45.527 97.357c-.109.163-.18.308-.24.456a3.071 3.071 0 0 0-.148.45c-.031.156-.06.316-.06.485a1.3 1.3 0 0 0 .088.529l.03.006c.07-.32.164-.632.244-.95.07-.32.124-.646.118-.976h-.032zM50.453 103.605c-.105.148-.167.281-.218.413-.054.13-.086.259-.12.388-.023.132-.049.263-.054.406-.008.142-.006.292.033.468l.029.013c.125-.262.228-.536.296-.82a3.48 3.48 0 0 0 .065-.87l-.03.002zM53.817 105.167a1.534 1.534 0 0 0-.205.478c-.045.158-.06.314-.074.47a2.63 2.63 0 0 0 .02.472c.022.16.058.323.139.5l.03.004c.059-.316.097-.637.12-.96.014-.321.011-.643.001-.965h-.031zM43.986 106.554a1.534 1.534 0 0 0-.205.478c-.045.158-.061.314-.074.47a2.63 2.63 0 0 0 .02.472c.022.16.058.323.139.5l.03.004c.059-.316.097-.637.12-.96.013-.321.01-.643 0-.965h-.03zM53.842 114.167a1.534 1.534 0 0 0-.206.479c-.044.158-.06.314-.073.47a2.63 2.63 0 0 0 .02.472c.022.16.058.323.139.499l.03.005c.059-.317.097-.638.12-.96.013-.322.01-.644 0-.965h-.03zM48.319 116.176a1.534 1.534 0 0 0-.205.479c-.045.158-.06.314-.074.47a2.63 2.63 0 0 0 .02.472c.022.16.058.323.139.499l.03.005c.059-.317.097-.638.12-.96.014-.321.011-.644 0-.965h-.03zM57.181 109.856c-.064.153-.078.29-.077.418-.002.129.023.247.05.362.036.113.075.223.138.329.06.108.132.214.25.33l.03-.003a3.634 3.634 0 0 0-.12-.739c-.07-.24-.158-.473-.241-.706l-.03.01zM47.35 111.243c-.064.153-.079.29-.077.418-.003.129.023.247.05.362.036.113.075.223.138.329.06.108.132.214.249.33l.03-.003a3.634 3.634 0 0 0-.119-.739c-.071-.24-.158-.472-.241-.706l-.03.01zM57.206 118.857c-.064.153-.079.29-.077.418-.003.129.022.247.05.362.036.113.075.222.138.329.06.108.132.213.249.33l.03-.003a3.634 3.634 0 0 0-.119-.739c-.071-.24-.158-.473-.241-.706l-.03.01zM51.683 120.866c-.064.153-.078.29-.077.418-.002.129.023.247.05.362.036.113.075.222.138.329.06.108.132.213.25.33l.03-.003a3.634 3.634 0 0 0-.12-.739c-.07-.24-.158-.473-.241-.706l-.03.01zM66.398 95.683c-.065.153-.08.29-.078.417-.002.13.023.248.05.363.037.112.075.222.138.329.06.107.132.213.25.329l.03-.002a3.634 3.634 0 0 0-.12-.74c-.07-.238-.157-.472-.241-.706l-.03.01zM62.47 35.007a.772.772 0 0 0-.211.54.78.78 0 0 0 .21.541h.026l.012-.54-.012-.541h-.025zM60.788 34.643c-.225.174-.315.396-.375.614-.048.223-.064.438.015.707l.024.008c.082-.214.143-.435.202-.656.05-.223.098-.446.158-.666l-.024-.007zM57.064 34.886c-.187.203-.245.424-.27.646-.014.223.004.45.15.676h.024l.073-.659.047-.661-.024-.002zM54.902 36.814a1.156 1.156 0 0 0 .12 1.074l.024.004c.034-.182.044-.369.03-.554a1.754 1.754 0 0 0-.151-.534l-.023.01zM58.505 37.05c-.167.42-.205.84-.21 1.26.006.421.044.842.21 1.262h.025l.012-1.262-.012-1.26h-.025zM58.266 41.128c-.189.006-.263.069-.308.146-.034.083-.04.18.068.335l.022.01.132-.234.108-.246-.022-.01zM60.548 38.97a.556.556 0 0 0-.27.39.563.563 0 0 0 .15.45l.024.005.072-.42.048-.423-.024-.002z"/>
            <path fill="#D6EAFF" d="M74.883 59.734c0 1.891 1.219 3.425 2.723 3.425 1.504 0 2.723-1.534 2.723-3.425 0-1.89-1.219-3.423-2.723-3.423-1.504 0-2.723 1.533-2.723 3.423M37.597 59.913c0 1.891 1.22 3.424 2.723 3.424 1.505 0 2.724-1.533 2.724-3.424 0-1.89-1.22-3.423-2.724-3.423-1.504 0-2.723 1.532-2.723 3.423"/>
            <g fill="#999DA6">
                <path d="M86.127 38.74l-.012-.004-.012-.005.012.005.012.004zM88.136 37.996a10115.81 10115.81 0 0 0-.441-.161l-.003-.001.219.08.223.08.002.002zM87.7 35.888l-.203-.074-.212-.077.207.075.208.076zM86.683 34.148l-.014-.005-.013-.005.014.005.013.005zM84.576 37.341l-.014-.005-.013-.004.014.005.013.004zM85.037 35.054zM85.941 36.816z"/>
            </g>
            <g fill="#999DA6">
                <path d="M32.976 36.978l-.012-.005-.012-.004.012.004.012.005zM34.985 36.233a10115.81 10115.81 0 0 0-.441-.16l-.003-.002.219.08.223.081.002.001zM34.55 34.125l-.204-.074-.212-.077.207.075.208.076zM33.532 32.385l-.013-.005-.014-.004.014.005.013.004zM31.425 35.579l-.014-.005-.013-.005.014.005.013.005zM31.886 33.291zM32.79 35.054z"/>
            </g>
            <path stroke="#000" stroke-linejoin="round" stroke-width=".6" d="M65.162 82.579H56.41a13.744 13.744 0 0 0-12.455 7.932l-.77 1.649a24.479 24.479 0 0 0-.56 19.404l.93 2.334a21.827 21.827 0 0 0 10.76 11.57 13.313 13.313 0 0 0 14.202-1.65l1.78-1.446a21.275 21.275 0 0 0 7.81-15.09l.036-.555a31.094 31.094 0 0 0-3.438-16.42L71.96 85.03a4.548 4.548 0 0 0-4.035-2.45h-2.762z"/>
            <g stroke="#000" transform="matrix(-1 0 0 1 69.32 100.494)">
                <rect width="16.8" height="27.853" x="-.2" y="-.2" fill="#E4E7EB" stroke-width=".4" rx=".8"/>
                <g fill="#FFF" stroke-width=".5">
                    <path d="M8.2 14c2.444 0 2.684-2.083 2.133-2.912-.408-.615-1.071-.714-1.989-.295-1.132-.5-1.873-.383-2.22.353C5.603 12.249 5.756 14 8.2 14z"/>
                    <path stroke-linejoin="round" d="M8.49 9.985c-.147-.249-.146-.47.004-.666.149-.195.417-.326.805-.392.162.242.162.47 0 .682-.162.212-.431.337-.808.376z"/>
                </g>
                <circle cx="14.124" cy="2.68" r="1.083" fill="#FFF" stroke-width=".5"/>
            </g>
            <path fill="#FFF" stroke="#000" stroke-linecap="round" stroke-linejoin="round" stroke-width=".6" d="M36.183 92.812c.177 4.678.177 8.48 0 11.407-.63 10.435 18.2 15.007 16.052 20.484-4.403 11.231-20.275-6.75-22.791-11.834-1.678-3.39-2.434-8.434-2.268-15.133M85.634 92.812c-.177 4.678-.177 8.48 0 11.407.63 10.435-18.2 15.007-16.052 20.484 4.403 11.231 20.275-6.75 22.791-11.834 1.678-3.39 2.434-8.434 2.268-15.133"/>
        </g>
    </g>
</svg>
