<svg xmlns="http://www.w3.org/2000/svg" xmlns:xlink="http://www.w3.org/1999/xlink" width="126" height="127" viewBox="0 0 126 127">
    <defs>
        <ellipse id="a" cx="61.241" cy="61.5" rx="60.986" ry="61.5"/>
    </defs>
    <g fill="none" fill-rule="evenodd" transform="translate(1.76 2)">
        <mask id="b" fill="#fff">
            <use xlink:href="#a"/>
        </mask>
        <ellipse cx="61.241" cy="61.5" stroke="#54637A" stroke-width="2" rx="61.986" ry="62.5"/>
        <g mask="url(#b)">
            <path fill="#FFF" stroke="#000" stroke-width=".7" d="M28.4 26.623c-.907.298-1.254.561-1.707 1.403-.453.842-.218 1.32-.364 2.444-.097.749-.179 1.504-.246 2.264l-.7 2.112c-.666 1.51-1.04 2.53-1.12 3.058-.122.791-.416.765.395 1.68.541.61 1.22.963 2.035 1.06h3.092l3.973-1.06h.388l.249.411-2.312 4.256-2.554 8.318-2.126 6.982-1.52 8.286-1.42 16.34v17.871c.696 18.377 3.041 31.023 7.035 37.94.078.136.167.272.266.409l-2.052 8.338c-2.887 5.122-4.22 8.387-4.002 9.796.327 2.113 9.85 3.076 12.18 3.276 2.33.2 7.094-2.405 8.837-4.273.716-.766.997-3.784.845-9.055 5.71 1.707 11.916 2.88 16.884 3.007 3.128.08 6.05-.266 8.737-.863-.051 4.26.242 6.732.88 7.414 1.743 1.868 6.507 4.472 8.837 4.273 2.33-.2 11.852-1.163 12.18-3.276.218-1.41-1.116-4.674-4.003-9.796l-1.39-5.644c5.818-3.558 8.274-16.807 7.371-39.749l-1.292-9.376-1.9-9.876-1.523-7.325v-6.26l-.561-11.457-1.75-7.405-1.718-5.337-2.01-4.062-1.027-1.585.201-.353c.771.339 1.848.62 3.23.842 2.075.333 2.91.44 4.168.347 1.257-.092 1.832-.349 2.487-.836s1.194.529 1.054-1.798c-.093-1.552-.58-3.213-1.46-4.983-1.808-2.416-3.02-3.939-3.638-4.568-.927-.943-1.164-.946-2.056-1.227-.892-.28-.525-.296-1.84 0s-1.844.51-2.603 1c-.506.327-.963.85-1.372 1.566l-1.386 2.481-.331 1.017-1.006-.269-5.04-1.307-5.332-1.317-5.91-1.287-5.844-.374h-6.104l-5.968 1.056-5.75 1.582-3.353 2.207-.504-.095-1.04-4.11c-.589-1.36-1.299-2.389-2.132-3.083-1.249-1.042-1.537-.787-2.8-1.03-1.264-.243-1.651-.299-2.558 0z"/>
            <path fill="#231F20" d="M51.45 75.212c1.276 1.902 3.27 3.35 5.587 3.604 2.435.266 4.814-.734 6.778-2.1.964-.67 1.913-1.434 2.61-2.39a8.248 8.248 0 0 0 1.309-2.85c.517-2.05.376-4.231-.025-6.289a27.408 27.408 0 0 0-2.387-6.992c-.558-1.114-1.156-2.205-2.206-2.926-.866-.595-1.886-.906-2.92-1.044a12.528 12.528 0 0 0-1.61-.097c-2.342.038-4.747 1.323-6.36 2.978-1.557 1.6-2.257 3.942-2.694 6.077-.816 3.99-.396 8.58 1.918 12.03m-2.656-10.624c.3-2.305.91-4.757 2.193-6.724 1.293-1.981 3.604-3.416 5.87-3.996a7.465 7.465 0 0 1 1.73-.238c2.208.008 4.526.507 5.976 2.312.856 1.068 1.429 2.418 1.953 3.672a29.58 29.58 0 0 1 1.316 3.881c1.109 4.219 1.318 9.364-2.27 12.485-1.9 1.651-4.213 3.01-6.75 3.315-2.46.296-4.869-.615-6.605-2.37-3.074-3.109-3.958-8.139-3.413-12.337M69.736 53.159c.196-.229.5-.338.796-.337.042 0 .083.01.122.023a.43.43 0 0 1 .148.083c.008.007.017.009.024.016l.015.02c.02.023.038.047.053.073.58.733.55 1.808-.087 2.503a.415.415 0 0 1-.404.107c-.49-.131-.806-.596-.924-1.066-.122-.482-.078-1.034.257-1.422M46.817 52.622c.01-.005.022-.005.033-.01a.482.482 0 0 1 .12-.037h.004a.379.379 0 0 1 .301.071l.007.006c.013.012.026.022.038.035.014.016.024.036.037.053.008.011.02.018.028.03.002.004.002.01.004.013.55.726.657 1.808.134 2.58a.427.427 0 0 1-.568.149c-.523-.257-.785-.863-.845-1.413-.062-.576.174-1.2.707-1.477"/>
            <path fill="#E4E7EB" d="M29.37 32.53c.33-.594.874-1.11 1.54-1.291.702-.19 1.465.034 2.001.51.51.453.763 1.133.987 1.757.21.585.386 1.257.834 1.712.049.05.08.103.1.157.066.135.054.3-.1.43-.86.725-1.905 1.268-3.042 1.353-.932.069-1.884-.278-2.381-1.104-.28-.464-.384-1.018-.387-1.554-.003-.675.12-1.374.449-1.97M85.676 33.27c1.163-.834 2.644-.669 3.66.316.644.624 1.08 1.468 1.362 2.31.19.568.311 1.23.07 1.8-.436 1.031-1.742 1.054-2.687.935-1.303-.165-2.568-.588-3.786-1.069a.457.457 0 0 1-.3-.338.454.454 0 0 1-.021-.11c-.098-1.459.494-2.978 1.702-3.844"/>
            <path fill="#231F20" d="M55.495 56.865c.423-.094.859-.106 1.29-.09.585.023 1.167 0 1.75-.02 1.15-.038 2.289-.007 3.358.445l.015.004c2.564.927-1.114 3.875-2.208 4.448a2.858 2.858 0 0 1-1.33.337c.018.874.054 1.749.053 2.626-.022.933-.09 1.87-.275 2.788.026.004.05.008.077.01.09.002.178-.003.245-.016.176-.018.394-.081.605-.156.22-.06.427-.16.647-.24.213-.092.427-.188.622-.307.2-.119.385-.244.522-.484h.066c-.005.277-.155.52-.325.717-.174.199-.38.367-.598.512-.439.285-.916.52-1.444.614-.27.032-.541.004-.795-.089a1.849 1.849 0 0 1-.664-.435c-.376-.376-.62-.846-.86-1.303l.058-.031c.448.347.807.732 1.165.96.184.107.341.194.508.22l.015.003a11.266 11.266 0 0 1-.173-1.292c-.032-.248-.028-.493-.048-.74l-.011-.74.03-.745c.03-.25.036-.5.085-.753.055-.375.132-.754.264-1.131-1.24-.096-2.384-.973-3.16-1.986-.431-.563-.916-1.319-.745-2.066.137-.6.697-.934 1.26-1.06z"/>
            <path fill="#181818" d="M61.781 88.303a1.91 1.91 0 0 0-.228.577 2.5 2.5 0 0 0-.066.59c.01.2.031.403.098.6.064.198.16.393.325.55l.032-.009a4.575 4.575 0 0 1-.123-1.146c-.012-.386 0-.774-.004-1.162h-.034zM62.167 92.543a.952.952 0 0 0-.17.464c-.02.155-.001.306.029.453.04.144.092.286.179.415.083.129.188.25.348.343l.031-.012a7.009 7.009 0 0 1-.236-.823 5.06 5.06 0 0 1-.148-.842l-.033.002zM66.663 92.29a2.32 2.32 0 0 0 .015.739c.034.236.098.459.164.68.075.217.151.43.25.64.094.21.198.418.341.636l.033-.004a7.477 7.477 0 0 0-.308-1.374l-.463-1.327-.032.01zM69.907 91.386c.03-.079.056-.158.078-.236l.017-.06.007-.029.003-.015.002-.007-.248-.001v-.001l-.001.001v.004l-.03.118a5.727 5.727 0 0 0-.081.473 7.47 7.47 0 0 0-.062.945 7.6 7.6 0 0 0 .062.945c.042.316.103.63.22.946h.033l.016-1.89-.008-.946-.004-.473-.001-.118v-.005.001c-.079 0-.022 0-.04.001v.052l.002.059.002.236h.033zM71.543 101.533a5.356 5.356 0 0 0-.2 1.164 10.2 10.2 0 0 0-.019 1.16c.022.386.05.77.107 1.152.054.382.123.764.24 1.149h.034c.004-.772-.023-1.543-.05-2.314a55.92 55.92 0 0 1-.078-2.31h-.034zM68.717 103.203a3.83 3.83 0 0 0-.245.796 4.584 4.584 0 0 0-.093.814c.001.276.017.557.089.834.067.275.178.554.379.773l.031-.011c-.168-.51-.18-1.056-.168-1.59.003-.538.044-1.076.04-1.616h-.033zM66.633 115.132a3.83 3.83 0 0 0-.246.796 4.584 4.584 0 0 0-.093.814c.001.276.017.557.089.834.067.275.179.554.38.773l.03-.011c-.168-.51-.18-1.056-.167-1.59.002-.538.044-1.076.04-1.616h-.033zM68.333 114.126a1.494 1.494 0 0 0-.15.796c.02.128.045.262.11.392.06.13.148.258.297.353l.032-.009a4.403 4.403 0 0 1-.109-.77 4.04 4.04 0 0 0-.148-.772l-.032.01zM63.323 105.002a3.028 3.028 0 0 0-.242.694c-.056.23-.084.463-.105.698-.01.236-.014.474.019.715.03.24.082.482.2.718h.033c.005-.47.041-.94.079-1.41.026-.471.053-.943.049-1.415h-.033zM61.379 116.93a2.512 2.512 0 0 0-.338.695c-.079.23-.118.463-.147.698-.014.236-.02.474.026.715.041.24.116.482.28.718h.046c.007-.47.058-.94.11-1.41.038-.471.074-.943.07-1.415h-.047zM59.34 105.128a.855.855 0 0 0-.241.387 1.125 1.125 0 0 0-.049.415c.016.138.046.276.114.404.065.129.156.25.306.342l.032-.01a3.578 3.578 0 0 1-.121-.762 4.485 4.485 0 0 1-.007-.772l-.033-.004zM57.256 117.057a.855.855 0 0 0-.242.387 1.125 1.125 0 0 0-.049.415c.017.138.046.276.115.404.064.129.156.25.306.342l.031-.01a3.578 3.578 0 0 1-.12-.762 4.485 4.485 0 0 1-.008-.772l-.033-.004zM62.038 97.937a3.637 3.637 0 0 0-.188.874 6.3 6.3 0 0 0-.03.866c.017.287.04.575.095.863.053.288.124.576.252.865h.033l-.048-1.735-.08-1.734-.034.001zM59.953 109.866a3.637 3.637 0 0 0-.187.874 6.3 6.3 0 0 0-.03.866c.016.288.039.576.095.863.052.288.123.576.25.865h.034l-.047-1.734-.081-1.735-.034.001zM57.543 95.368a2.725 2.725 0 0 0-.22.739 4.618 4.618 0 0 0-.062.738c.005.246.017.493.062.739.042.246.103.492.22.738h.033l.016-1.477-.016-1.477h-.033zM55.458 107.297a2.725 2.725 0 0 0-.22.739 4.618 4.618 0 0 0-.062.738c.006.246.017.493.063.739.041.246.102.492.219.738h.033l.016-1.477-.016-1.477h-.033zM57.414 91a1 1 0 0 0-.22.386 1.31 1.31 0 0 0-.062.385c.006.129.018.257.063.386.042.128.102.257.22.385h.033l.016-.77-.016-.771h-.034zM55.33 102.93a1 1 0 0 0-.22.385 1.31 1.31 0 0 0-.063.385c.006.129.018.258.063.386.042.128.103.257.22.385h.033l.016-.77-.016-.771h-.034zM50.992 91.772a1.426 1.426 0 0 0-.164.583 2.195 2.195 0 0 0 .205 1.113c.082.174.185.341.345.491l.032-.008c-.087-.36-.166-.72-.228-1.085a9.103 9.103 0 0 1-.157-1.096l-.033.002zM42.514 92.157a1.974 1.974 0 0 0-.22.61 3.17 3.17 0 0 0-.062.61c.006.203.018.407.063.61.042.203.102.407.22.61h.033l.016-1.22-.016-1.22h-.034zM45.468 94.212a2.348 2.348 0 0 0-.231.639 3.03 3.03 0 0 0-.072.654 2.5 2.5 0 0 0 .096.667c.065.219.165.436.337.613l.031-.009c-.11-.414-.135-.845-.133-1.273-.008-.43.012-.86.006-1.291h-.034zM52.533 97.42a2.416 2.416 0 0 0-.324.528 2.92 2.92 0 0 0-.193.559c-.039.196-.068.4-.051.61.013.209.059.425.183.619l.033-.001c-.008-.39.068-.776.158-1.155.08-.383.178-.764.227-1.155l-.033-.004zM54.974 101.273a1.28 1.28 0 0 0-.31.376 1.901 1.901 0 0 0-.167.394 2.033 2.033 0 0 0-.072.418c-.01.146-.006.297.036.478l.03.014a5.51 5.51 0 0 0 .324-.817c.077-.283.137-.569.192-.856l-.033-.007zM47.91 99.349l-.365.613a8.06 8.06 0 0 0-.34.605c-.1.217-.198.448-.244.702-.05.252-.055.528.049.777l.033.002c.032-.477.248-.912.46-1.336.202-.428.417-.875.44-1.361l-.034-.002zM44.056 100.763a2.623 2.623 0 0 0-.258.487 3.284 3.284 0 0 0-.158.48 2.559 2.559 0 0 0-.064.52c-.003.18.014.37.095.565l.032.006c.073-.34.175-.675.26-1.015.074-.342.133-.691.126-1.043h-.033zM49.322 107.443a1.91 1.91 0 0 0-.233.44c-.058.14-.092.278-.128.416-.025.14-.052.281-.058.434-.008.152-.007.312.035.5l.03.014a4.42 4.42 0 0 0 .317-.876c.063-.306.086-.62.07-.93l-.033.002zM52.919 109.112a1.64 1.64 0 0 0-.22.512 2.657 2.657 0 0 0-.079.502c-.003.167-.005.334.022.505.023.171.062.345.148.533l.033.006c.062-.339.104-.682.128-1.026.014-.344.012-.689 0-1.033l-.032.001zM42.407 110.595a1.64 1.64 0 0 0-.22.512 2.657 2.657 0 0 0-.078.502c-.004.167-.005.334.022.505.023.171.061.345.148.533l.033.006c.062-.339.103-.682.128-1.026.014-.344.011-.689 0-1.033l-.033.001zM52.945 118.736a1.64 1.64 0 0 0-.22.511 2.657 2.657 0 0 0-.078.502c-.004.168-.005.334.022.505.023.172.061.345.148.534l.032.005c.063-.338.104-.681.129-1.025.014-.345.011-.69 0-1.033h-.033zM47.04 120.884a1.64 1.64 0 0 0-.22.511 2.657 2.657 0 0 0-.078.502c-.004.168-.005.335.022.505.023.172.062.345.148.534l.033.005c.062-.338.103-.681.128-1.025.014-.345.011-.69 0-1.033h-.033zM56.516 114.126c-.07.164-.084.31-.083.447-.002.138.024.264.053.387.04.12.08.238.148.352.064.115.141.228.266.352l.034-.003a3.885 3.885 0 0 0-.128-.79c-.076-.256-.17-.505-.259-.755l-.031.01zM46.004 115.61c-.069.163-.084.309-.083.446-.002.138.025.264.054.387.039.12.08.238.148.352.064.115.14.228.266.352l.033-.003a3.885 3.885 0 0 0-.128-.79c-.076-.256-.169-.505-.258-.755l-.032.01zM56.542 123.75c-.069.163-.084.31-.083.446-.002.138.025.264.054.387.039.12.08.238.147.352.064.115.142.228.267.352l.033-.002a3.885 3.885 0 0 0-.128-.79c-.076-.256-.169-.506-.258-.755l-.032.01zM66.37 98.972c-.07.164-.085.31-.083.447-.003.138.024.264.053.387.04.12.08.238.148.352.064.115.141.228.266.352l.033-.003a3.885 3.885 0 0 0-.127-.79c-.077-.255-.17-.505-.259-.755l-.031.01zM62.17 34.099a.826.826 0 0 0-.226.578.835.835 0 0 0 .226.578h.027l.013-.578-.013-.578h-.027zM60.372 33.71c-.24.186-.337.423-.4.656-.053.238-.07.469.015.755l.025.01c.088-.23.154-.466.216-.702.055-.238.106-.477.17-.712l-.026-.007zM56.39 33.969c-.2.217-.261.454-.29.691-.013.239.006.48.161.723h.027l.078-.704.05-.708-.026-.002zM54.079 36.03a1.236 1.236 0 0 0 .127 1.148l.027.005c.036-.194.047-.394.031-.592a1.875 1.875 0 0 0-.16-.571l-.025.01zM57.931 36.282c-.178.45-.219.9-.225 1.349.007.45.048.899.225 1.349h.027l.013-1.35-.013-1.348h-.027zM57.676 40.643c-.202.006-.282.074-.33.156-.036.09-.043.193.073.358l.024.012.14-.25.116-.264-.023-.012zM60.115 38.336a.595.595 0 0 0-.287.417.601.601 0 0 0 .159.481l.025.005.078-.448.051-.453-.026-.002z"/>
            <path fill="#FFDBD6" d="M75.442 60.537c0 2.021 1.303 3.66 2.912 3.66 1.608 0 2.911-1.639 2.911-3.66 0-2.022-1.303-3.66-2.911-3.66-1.609 0-2.912 1.638-2.912 3.66M35.577 60.728c0 2.022 1.303 3.66 2.911 3.66 1.609 0 2.912-1.638 2.912-3.66 0-2.022-1.303-3.66-2.912-3.66-1.608 0-2.911 1.638-2.911 3.66"/>
            <g fill="#999DA6">
                <path d="M87.464 38.09l-.013-.005-.013-.005.013.005.013.005zM89.612 37.294l-.22-.08-.252-.092h-.003l.234.084.238.087.003.001zM89.146 35.04l-.217-.079-.227-.082.221.08.223.081zM88.059 33.18l-.015-.005-.014-.005.015.005.014.005zM85.806 36.594l-.015-.005-.014-.005.015.005.014.006zM86.298 34.149zM87.265 36.033z"/>
            </g>
            <g fill="#999DA6">
                <path d="M30.636 36.206l-.013-.005-.013-.005.013.005.013.005zM32.784 35.41l-.22-.08-.252-.092-.003-.001.234.085.238.087h.003zM32.318 33.156l-.217-.079-.227-.083.221.08.223.082zM31.23 31.296l-.014-.006-.014-.005.015.006.014.005zM28.978 34.71l-.015-.005-.014-.005.015.005.014.005zM29.47 32.264zM30.437 34.149z"/>
            </g>
            <path stroke="#000" stroke-linejoin="round" stroke-width=".7" d="M65.049 84.961H55.69a14.695 14.695 0 0 0-13.316 8.482l-.823 1.762a26.172 26.172 0 0 0-.6 20.747l.994 2.495a23.337 23.337 0 0 0 11.505 12.37 14.234 14.234 0 0 0 15.185-1.763l1.903-1.547a22.746 22.746 0 0 0 8.35-16.134l.039-.592a33.245 33.245 0 0 0-3.676-17.556l-2.935-5.644A4.863 4.863 0 0 0 68 84.96H65.05z"/>
            <path fill="#FFF" stroke="#000" stroke-linecap="round" stroke-linejoin="round" stroke-width=".7" d="M33.893 95.499c.189 5.001.189 9.066 0 12.196-.674 11.157 19.458 16.045 17.162 21.9-4.708 12.009-21.678-7.216-24.368-12.652-1.794-3.624-2.602-9.018-2.425-16.18"/>
            <g stroke="#000" stroke-width=".7">
                <path fill="#E0E0E0" d="M72.007 110.532c5.275 13.898 7.898 21.277 7.87 22.138-.043 1.354-2.184 2.59-3.597.143-1.413-2.447-2.88-10.474-3.141-11.815-.261-1.34-4.73-16.697-4.73-16.697l2.03-.298 1.568 6.53z"/>
                <path fill="#FFAFAF" d="M68.41 104.3c-1.83.223-2.754-.53-2.773-2.257-.027-2.592 2.57-4.628 2.63-6.051.06-1.424 1.314 1.17 1.878 2.146.564.977 2.778 2.683 2.235 3.87-.544 1.188-1.745 1.882-1.94 1.995-.131.075-.808.175-2.03.298z"/>
                <path d="M72.038 110.364l-1.95.236"/>
            </g>
            <g stroke="#000" stroke-width=".7">
                <path fill="#E0E0E0" d="M78.302 111.928c1.498 14.79 2.122 22.596 1.872 23.42-.392 1.297-2.78 1.937-3.511-.792-.732-2.73-.072-10.863.023-12.225.095-1.363-.246-17.353-.246-17.353l2.037.238-.175 6.712z"/>
                <path fill="#BAAEEA" d="M76.44 104.978c-1.825-.259-2.523-1.225-2.094-2.899.644-2.51 3.68-3.804 4.107-5.164.426-1.36.966 1.47 1.258 2.56.292 1.089 1.989 3.31 1.156 4.317-.832 1.006-2.171 1.365-2.39 1.424-.145.039-.825-.04-2.037-.238z"/>
                <path d="M78.375 111.773l-1.945-.277"/>
            </g>
            <path fill="#FFF" stroke="#000" stroke-linecap="round" stroke-linejoin="round" stroke-width=".7" d="M86.937 95.903c-.19 5.001-.19 9.067 0 12.196.673 11.157-19.458 16.045-17.163 21.901 4.708 12.008 21.678-7.216 24.369-12.653 1.793-3.624 2.601-9.018 2.424-16.18"/>
        </g>
    </g>
</svg>
