<svg xmlns="http://www.w3.org/2000/svg" xmlns:xlink="http://www.w3.org/1999/xlink" width="159" height="161" viewBox="0 0 159 161">
    <defs>
        <ellipse id="a" cx="77.348" cy="78" rx="77.348" ry="78"/>
        <path id="c" d="M.291.218h42.01v36.24H.292z"/>
    </defs>
    <g fill="none" fill-rule="evenodd" transform="translate(2.084 2.5)">
        <mask id="b" fill="#fff">
            <use xlink:href="#a"/>
        </mask>
        <ellipse cx="77.348" cy="78" stroke="#54637A" stroke-width="2" rx="78.348" ry="79"/>
        <g mask="url(#b)">
            <path fill="#FFF" stroke="#FFF" stroke-width=".5" d="M36.38 155.516l1.024-16.393 1.433-10.407 2.11-10.96 1.69-8.129v-6.947l.623-12.716 1.942-8.218 1.906-5.922 2.231-4.509 1.14-1.759-.224-.392-3.585.935-4.625.385-2.76-.928-1.17-1.995 1.62-5.53 4.039-5.07 2.281-1.361h2.042l2.889 1.11 1.522 1.737 1.539 2.754.367 1.128 1.116-.298 5.594-1.451 5.918-1.462L73.6 57.69l6.486-.414h6.774l6.624 1.171 6.382 1.756 3.72 2.45.559-.106 1.155-4.56 2.365-3.423 3.109-1.144h2.838l1.894 1.558.404 2.712.273 2.513.776 2.344 1.245 3.393-.44 1.865-2.258 1.176h-3.432l-4.409-1.176h-.43l-.276.456 2.565 4.724 2.835 9.23 2.36 7.749 1.687 9.197 1.576 18.134v19.833l.3 18.388z"/>
            <path fill="#231F20" d="M118.795 137.188c-.082-5.904 0-11.808-.147-17.713-.148-5.872-.455-11.744-1.111-17.583-.632-5.62-1.6-11.2-3.271-16.611-.46-1.49-1.006-2.945-1.507-4.42-.526-1.55-.951-3.131-1.405-4.704-.434-1.502-.9-2.972-1.582-4.383-.455-.942-.96-1.859-1.436-2.79 1.263.522 2.611.81 3.988.859 1.625.058 3.506-.113 4.971-.875.946-.493 1.534-1.335 1.592-2.406.063-1.17-.391-2.352-.778-3.433-.624-1.74-1.288-3.467-1.413-5.329-.095-1.427-.143-2.994-1.335-3.976-1.999-1.646-5.252-1.238-7.41-.142-1.422.722-2.52 2.051-3.148 3.5-.606 1.395-.86 2.904-1.28 4.36-1.532-1.512-3.87-2.258-5.85-2.867-2.851-.877-5.783-1.6-8.747-1.946-3.81-.444-7.66-.316-11.476-.035-1.91.14-3.844.25-5.74.529-1.776.262-3.507.748-5.23 1.247-1.958.568-3.911 1.068-5.914 1.456-1.93.374-3.869.755-5.697 1.494-1.045-2.764-2.818-5.435-5.786-6.326-2.527-.758-4.932.438-6.693 2.225-1.878 1.907-3.217 4.376-4.097 6.888-.74 2.117-1.451 5.085 1.049 6.308 1.455.712 3.236.723 4.817.637 1.64-.088 3.283-.35 4.875-.776-2.675 3.981-4.05 8.65-5 13.324-.535 2.639-1.034 5.304-1.4 7.973-.404 2.94-.596 5.905-.684 8.871a185.7 185.7 0 0 0-.071 4.53c-.007 1.456.02 2.912-.1 4.365-.242 2.909-.926 5.755-1.611 8.584-.686 2.831-1.272 5.674-1.82 8.535-.56 2.92-1.082 5.848-1.42 8.802-.34 2.957-.401 5.937-.677 8.9-.279 3-.622 5.994-.744 9.005-.03.75-.046 1.5-.047 2.251-.002.593.92.593.92 0 .005-2.97.273-5.927.562-8.88.147-1.498.296-2.996.412-4.495.114-1.471.157-2.946.268-4.417.223-2.966.688-5.907 1.22-8.83.527-2.885 1.063-5.776 1.735-8.632.65-2.764 1.386-5.514 1.82-8.324.448-2.903.381-5.8.419-8.727.037-2.961.14-5.925.426-8.873.271-2.8.773-5.567 1.283-8.33.934-5.067 2.133-10.218 4.932-14.618.35-.548.723-1.081 1.115-1.6.15-.197.096-.391-.041-.518a.393.393 0 0 0-.478-.158c-1.578.52-3.219.87-4.871 1.038-1.457.148-3.006.218-4.443-.12-.925-.217-1.859-.667-2.146-1.647-.308-1.051.052-2.234.363-3.247.695-2.271 1.816-4.5 3.334-6.334 1.38-1.666 3.311-3.227 5.605-3.016 3.298.302 5.27 3.514 6.255 6.337.093.267.347.349.563.301a.424.424 0 0 0 .193-.036c3.243-1.368 6.838-1.621 10.207-2.568 1.677-.472 3.34-.997 5.04-1.375 1.822-.404 3.67-.538 5.526-.693 3.7-.309 7.422-.535 11.133-.294 3.153.205 6.198.866 9.236 1.702 1.395.384 2.79.808 4.118 1.386 1.116.487 2.37 1.097 3.122 2.094.254.337.74.19.857-.095a.475.475 0 0 0 .073-.137c.878-2.635 1.034-5.61 3.405-7.446.85-.657 1.943-1.005 2.99-1.185 1.122-.193 2.395-.182 3.446.305.495.23.973.577 1.24 1.064.317.58.378 1.29.428 1.935.054.692.083 1.383.204 2.068.154.87.407 1.72.693 2.555.43 1.253.973 2.489 1.244 3.79.163.78.193 1.65-.417 2.247-.446.438-1.077.656-1.669.81-.894.236-1.823.353-2.747.374-1.885.043-3.73-.382-5.383-1.293a.36.36 0 0 0-.363-.1c-.32.043-.53.458-.33.727.554 1.206 1.21 2.36 1.805 3.546.636 1.266 1.103 2.565 1.505 3.922.399 1.345.762 2.7 1.173 4.04.426 1.391.949 2.747 1.41 4.125 1.788 5.331 2.888 10.848 3.578 16.421 1.431 11.569 1.378 23.223 1.426 34.858.027 6.784.422 13.56.426 20.343 0 .593.92.594.92 0-.003-6.112-.323-12.218-.407-18.328"/>
            <path fill="#231F20" d="M88.031 107.346c-1.416 2.11-3.628 3.718-6.2 3.999-2.702.295-5.343-.814-7.522-2.33-1.07-.744-2.124-1.592-2.897-2.654-.69-.947-1.166-2.028-1.453-3.162-.574-2.275-.418-4.696.027-6.98a30.417 30.417 0 0 1 2.65-7.76c.619-1.236 1.282-2.447 2.448-3.247.961-.66 2.094-1.005 3.241-1.158a13.904 13.904 0 0 1 1.785-.108c2.6.042 5.27 1.468 7.059 3.305 1.729 1.775 2.506 4.375 2.99 6.745.906 4.427.44 9.522-2.128 13.35m2.947-11.79c-.332-2.558-1.01-5.28-2.434-7.463-1.434-2.198-4-3.791-6.513-4.435a8.285 8.285 0 0 0-1.92-.264c-2.452.01-5.023.563-6.632 2.567-.951 1.184-1.587 2.683-2.168 4.074a32.828 32.828 0 0 0-1.46 4.308c-1.231 4.681-1.464 10.392 2.52 13.855 2.107 1.833 4.674 3.34 7.489 3.68 2.732.328 5.404-.683 7.331-2.63 3.412-3.45 4.392-9.033 3.787-13.692"/>
            <g transform="translate(58.291 120.17)">
                <mask id="d" fill="#fff">
                    <use xlink:href="#c"/>
                </mask>
                <path fill="#231F20" d="M2.243 36.062c-.887-1.17-1.175-2.601-1.278-4.038a56.494 56.494 0 0 1-.14-4.501c.03-3.357.843-6.576 1.364-9.872.251-1.588.535-3.202 1.213-4.673.646-1.397 1.495-2.707 2.463-3.903 1.794-2.218 4.04-4.252 6.5-5.71 2.547-1.51 5.482-1.93 8.373-2.302 2.955-.38 6.098-.598 8.89.63 4.601 2.025 7.8 6.755 9.35 11.393 1.053 3.149 1.764 6.45 2.265 9.728.263 1.725.446 3.453.491 5.198.046 1.766-.011 3.532-.053 5.298-.02.869-.037 1.737-.038 2.606 0 .356.552.356.552 0 .005-3.676.304-7.365-.12-11.03a65.084 65.084 0 0 0-2.091-10.389c-1.42-4.963-4.224-9.931-8.793-12.62A11.79 11.79 0 0 0 27.697.49c-1.54-.33-3.151-.309-4.715-.204-1.714.116-3.416.374-5.11.658-1.438.24-2.844.554-4.189 1.13C11.098 3.183 8.79 5.122 6.851 7.13c-2.177 2.255-4.028 4.956-4.757 8.04-.39 1.647-.547 3.338-.89 4.995C.86 21.837.538 23.5.387 25.205c-.148 1.677-.09 3.339-.046 5.018.036 1.445.06 2.935.506 4.325.208.646.51 1.251.92 1.793.212.28.692.005.477-.279" mask="url(#d)"/>
            </g>
            <path fill="#231F20" d="M67.738 82.87c-.219-.253-.556-.375-.885-.373a.448.448 0 0 0-.135.025.477.477 0 0 0-.164.092c-.008.008-.019.01-.026.018-.007.007-.01.016-.017.023a.46.46 0 0 0-.059.08 2.159 2.159 0 0 0 .097 2.778c.11.12.294.16.448.119.543-.146.894-.662 1.025-1.183.135-.536.087-1.148-.284-1.579M93.173 82.275c-.011-.006-.025-.006-.037-.011a.535.535 0 0 0-.132-.041l-.006-.001a.42.42 0 0 0-.334.08l-.007.006c-.014.013-.03.024-.042.039-.016.018-.027.04-.042.058-.009.013-.022.02-.03.035-.002.004-.002.009-.005.013-.61.806-.73 2.007-.148 2.864a.474.474 0 0 0 .63.165c.58-.285.871-.958.937-1.568.069-.64-.192-1.332-.784-1.64"/>
            <path fill="#E4E7EB" d="M112.535 59.977c-.365-.66-.969-1.233-1.71-1.434-.777-.21-1.624.039-2.22.567-.565.503-.846 1.257-1.095 1.95-.233.65-.428 1.394-.925 1.9a.46.46 0 0 0-.11.174c-.075.15-.062.332.11.477.955.805 2.114 1.408 3.376 1.501 1.034.077 2.09-.308 2.643-1.225.31-.514.425-1.13.428-1.724.004-.75-.131-1.525-.497-2.186M50.047 60.798c-1.291-.925-2.934-.742-4.062.35-.714.693-1.198 1.63-1.511 2.564-.212.63-.346 1.364-.078 1.999.484 1.143 1.933 1.169 2.981 1.036 1.447-.183 2.851-.652 4.203-1.186a.507.507 0 0 0 .331-.375.503.503 0 0 0 .025-.122c.109-1.619-.548-3.306-1.889-4.266"/>
            <path fill="#231F20" d="M83.542 86.984c-.47-.105-.953-.118-1.432-.1-.649.025-1.295 0-1.943-.022-1.275-.042-2.539-.008-3.725.494l-.018.004c-2.845 1.028 1.237 4.3 2.45 4.936.494.258.99.372 1.476.374-.019.97-.059 1.94-.057 2.914.024 1.036.1 2.077.304 3.095-.028.004-.056.009-.085.01a1.34 1.34 0 0 1-.272-.017 3.165 3.165 0 0 1-.671-.173c-.244-.067-.474-.177-.718-.266a5.464 5.464 0 0 1-.69-.342c-.223-.131-.428-.27-.58-.536h-.073c.005.307.172.576.36.795.194.221.422.408.664.568.487.316 1.017.578 1.603.682.3.035.6.005.882-.098.28-.102.53-.276.737-.483.417-.418.689-.939.955-1.447l-.065-.034c-.498.385-.896.812-1.293 1.066-.204.118-.378.214-.564.245l-.016.002c.098-.497.153-.967.191-1.434.036-.275.032-.547.054-.82l.013-.822-.034-.827c-.033-.277-.04-.556-.094-.836a6.718 6.718 0 0 0-.294-1.255c1.376-.106 2.647-1.08 3.508-2.204.478-.625 1.016-1.464.827-2.293-.152-.666-.774-1.036-1.4-1.176z"/>
            <path fill="#181818" d="M76.565 121.874c.13.214.204.424.254.64.054.214.07.433.072.655a2.39 2.39 0 0 1-.108.666c-.07.22-.178.435-.361.61l-.035-.01c.108-.415.135-.845.136-1.272.013-.429 0-.859.005-1.289h.037zM76.138 126.58c.12.167.168.342.187.514.023.172.003.34-.03.503-.046.16-.103.317-.2.46-.092.143-.209.277-.386.38l-.035-.012c.106-.3.194-.605.262-.914.079-.306.139-.618.165-.934l.037.002zM71.147 126.299c.046.287.025.559-.017.819-.037.262-.108.51-.18.754-.085.242-.169.48-.278.711-.105.234-.22.465-.38.706l-.036-.005c.057-.52.19-1.026.343-1.524l.513-1.472.035.01zM67.548 125.295a3 3 0 0 1-.087-.262l-.019-.066-.008-.032-.003-.017-.003-.008.276-.001v-.001.001l.002.004.032.131c.036.175.07.35.09.525.05.35.064.7.07 1.05-.007.349-.02.698-.07 1.048-.046.35-.114.7-.243 1.05h-.037l-.019-2.099.01-1.049.004-.525.001-.13v-.006.001c.088 0 .024 0 .044.001v.057l-.001.066-.002.262h-.037zM65.731 136.557c.13.428.19.86.223 1.291.037.431.032.86.02 1.288-.024.428-.055.853-.118 1.278-.06.424-.137.848-.267 1.275h-.037c-.004-.857.026-1.713.055-2.568.041-.854.081-1.709.087-2.564h.037zM68.868 138.41c.13.297.212.587.272.883.064.296.093.597.104.903-.002.306-.02.618-.1.926-.074.305-.198.615-.42.858l-.035-.012c.187-.567.2-1.172.186-1.766-.003-.596-.048-1.193-.044-1.792h.037zM69.294 150.532a1.658 1.658 0 0 1 .166.883c-.02.143-.049.291-.12.436a.902.902 0 0 1-.33.392l-.036-.01c.073-.28.097-.567.12-.855.035-.287.074-.579.165-.857l.035.011zM74.855 140.406c.13.26.208.514.268.77.062.256.093.514.116.775.012.262.016.526-.02.793a2.428 2.428 0 0 1-.222.798h-.037a22.71 22.71 0 0 0-.088-1.566 24.541 24.541 0 0 1-.054-1.57h.037zM79.274 140.546c.143.131.22.28.268.43.052.15.06.306.054.46-.018.153-.05.306-.126.449a.9.9 0 0 1-.34.38l-.035-.011a3.97 3.97 0 0 0 .134-.846c.028-.285.03-.572.008-.858l.037-.004zM76.28 132.566c.118.326.175.648.209.97.038.32.039.64.033.96a7.18 7.18 0 0 1-.106.958c-.057.32-.137.64-.278.96H76.1l.052-1.925.09-1.925.037.002zM81.27 129.714c.13.273.198.546.244.82.05.273.063.546.068.82-.006.273-.02.546-.07.82a3.042 3.042 0 0 1-.243.819h-.037l-.018-1.64.018-1.639h.037zM81.412 124.868c.13.142.198.284.244.427.05.143.063.286.07.428-.008.142-.02.285-.07.427a1.117 1.117 0 0 1-.244.428h-.037l-.018-.855.018-.855h.037zM88.54 125.724c.117.214.164.432.182.646.022.216 0 .427-.032.635-.045.206-.1.409-.196.6a1.743 1.743 0 0 1-.383.546l-.035-.01c.096-.399.183-.8.252-1.203.08-.402.143-.807.175-1.216l.037.002zM97.948 126.15c.13.226.198.452.244.678.05.225.063.45.069.677-.007.225-.02.451-.07.677a2.202 2.202 0 0 1-.243.677h-.037l-.018-1.354.018-1.355h.037zM94.67 128.431c.13.238.204.471.257.71.056.237.076.479.08.725a2.774 2.774 0 0 1-.107.74 1.616 1.616 0 0 1-.374.681l-.035-.01c.123-.46.15-.938.147-1.413.01-.476-.012-.954-.006-1.433h.037zM86.829 131.993c.159.195.268.386.36.584.095.198.16.406.214.62.043.218.075.445.057.678a1.417 1.417 0 0 1-.203.687l-.037-.002c.01-.433-.075-.86-.176-1.281-.089-.425-.197-.848-.252-1.281l.037-.005zM84.12 136.268c.161.131.262.273.343.417.086.142.138.29.187.438.038.15.073.3.08.463.01.162.007.33-.041.53l-.033.017a6.115 6.115 0 0 1-.36-.907 12.28 12.28 0 0 1-.212-.95l.036-.008zM91.96 134.132l.405.68c.133.215.256.436.377.672.11.241.22.497.27.78.056.279.062.586-.053.862l-.037.002c-.036-.53-.275-1.013-.51-1.483-.225-.475-.463-.97-.488-1.51l.037-.003zM96.237 135.701c.13.193.214.365.286.541.076.174.127.351.175.534.038.185.073.375.072.576.003.2-.016.41-.105.627l-.037.007c-.08-.378-.193-.75-.288-1.126-.082-.38-.148-.768-.14-1.159h.037zM90.393 143.115c.125.175.198.333.258.49.065.154.102.307.142.46.028.156.059.313.064.482.01.169.008.346-.038.555l-.034.015a4.906 4.906 0 0 1-.351-.972 4.13 4.13 0 0 1-.078-1.032l.037.002zM86.401 144.968c.128.192.195.38.244.567.052.188.071.373.087.558.004.186.006.37-.024.56-.026.19-.069.383-.164.592l-.037.006c-.069-.375-.115-.756-.142-1.138a15.856 15.856 0 0 1 0-1.146h.036zM82.409 150.532c.077.182.093.344.092.496.003.153-.027.293-.06.43a1.89 1.89 0 0 1-.163.39 1.659 1.659 0 0 1-.296.39l-.037-.002c.013-.296.069-.59.142-.877.085-.284.188-.56.287-.838l.035.011z"/>
            <path fill="#FFDBD6" d="M61.405 91.059c0 2.243-1.447 4.063-3.232 4.063-1.785 0-3.231-1.82-3.231-4.063 0-2.244 1.446-4.063 3.231-4.063s3.232 1.819 3.232 4.063M105.647 91.27c0 2.244-1.446 4.063-3.231 4.063s-3.232-1.819-3.232-4.062c0-2.244 1.447-4.063 3.232-4.063 1.785 0 3.231 1.819 3.231 4.063"/>
            <g fill="#999DA6">
                <path d="M48.062 66.147l.015-.005.014-.006-.014.006-.015.005zM45.679 65.264l.243-.089.28-.102.004-.001-.26.094-.264.097h-.003zM46.195 62.763l.242-.088.252-.092-.246.09-.247.09zM47.403 60.698l.016-.006.015-.006-.016.006-.016.006zM49.903 64.487l.016-.006.016-.005-.017.006-.015.005zM49.356 61.773zM48.283 63.864h.001z"/>
            </g>
            <g fill="#999DA6">
                <path d="M111.13 64.056l.015-.006.014-.005-.014.005-.015.006zM108.747 63.172l.243-.088.28-.102.004-.002-.26.095-.264.096-.003.001zM109.263 60.671l.242-.087.252-.092-.246.09-.247.089zM110.47 58.607l.017-.006.015-.006-.016.006-.016.006zM112.971 62.396l.016-.006.016-.006-.017.006-.015.006zM112.424 59.682zM111.351 61.773h.001z"/>
            </g>
        </g>
        <path stroke="#0D0D0D" stroke-width=".6" d="M48.284 72.778c3.09-2.512 5.52-4.17 7.287-4.973 2.65-1.205 6.689-4.063 15.602-5.391 8.913-1.328 6.309-.048 15.9-.665 6.395-.411 13.115 1.607 20.162 6.056l3.892 8.983c-5.972-5.185-11.692-7.778-17.16-7.778-8.2 0-15.699-1.875-30.428 2.507-9.82 2.922-16.25 7.596-19.292 14.022l4.037-12.761z" mask="url(#b)"/>
        <path fill="#FFE3E3" stroke="#070707" stroke-width=".6" d="M62.164 64.05l4.878-.974 1.924 7.603-5.427.838z" mask="url(#b)"/>
        <path fill="#FFE3E3" stroke="#000" stroke-width=".6" d="M67.042 63.031c2.194-4.42 4.08-5.684 5.657-3.79 2.366 2.842 3.209 11.306 2.549 13.644-.44 1.558-2.368.828-5.782-2.192l-2.424-7.662z" mask="url(#b)"/>
        <path fill="#FFE3E3" stroke="#000" stroke-width=".6" d="M55.44 65.56c2.171-4.448 4.057-5.71 5.656-3.79 2.4 2.882 3.21 11.305 2.55 13.643-.44 1.559-2.368.828-5.782-2.191l-2.425-7.662z" mask="url(#b)" transform="rotate(-180 59.653 68.555)"/>
    </g>
</svg>
