<svg xmlns="http://www.w3.org/2000/svg" width="83" height="84" viewBox="0 0 83 84">
    <g fill="none" fill-rule="evenodd" transform="translate(.787 1.5)">
        <path stroke="#414D5E" d="M13.865 53.416c2.874.41 13.14.821 15.192.821 2.053 0 20.53-.41 20.53-.41s14.372-1.232 15.604-.821c1.231.41 1.231 2.463.82 4.106-.41 1.642-2.463.41-4.105.82-1.643.411-41.06 0-41.06 0s-5.75.822-6.57 0c-.822-.82-.41-4.516-.41-4.516z"/>
        <path stroke="#414D5E" d="M16.123 53.21c-.164-2.048-.43-4.11-.248-6.167.21-2.38 1.705-4.12 3.852-5.073.722-.32 1.54-.481 2.31-.299 1.363.323 2.146 1.71 2.974 2.723 1.109 1.355 2.233 2.726 3.02 4.3.821 1.643 3.695 5.338 4.106 5.338M64.985 53.21s0-9.443-3.695-10.675c-3.696-1.232-4.484-1.025-5.338 0-2.022 2.427-5.63 11.312-5.63 11.312"/>
        <path stroke="#414D5E" stroke-width=".944" d="M19.408 41.803c.24-2.65.515-5.297.818-7.941.403-3.51.574-7.292 1.694-10.696.406-1.235 1.93-2.08 3.127-2.682 1.833-.921 3.788-1.729 5.858-2.097 4.106-.732 18.888-1.098 20.941 0 2.053 1.097 4.927 2.927 6.16 5.854 1.23 2.926 3.284 18.294 3.284 18.294"/>
        <path stroke="#414D5E" stroke-width=".899" d="M22.083 34.88l35.922-.146s-.41-5.644-1.232-7.636c-.821-1.992-1.642-5.644-4.516-5.976-3.688-.426-7.404-.341-11.112-.459-4.726-.149-10.958-.443-14.9 2.016-.589.367-1.142.783-1.557 1.282a6.935 6.935 0 0 0-1.584 3.801c-.08.82-1.021 6.122-1.021 7.118z"/>
        <path stroke="#414D5E" d="M17.156 58.35c-.276 1.044-.88 3.234.236 3.945.39.25.868.314 1.33.354 1.628.142 3.282.067 4.894-.194.326-.053.677-.128.895-.378.45-.518.235-1.438.235-2.053v-2.297M55.13 58.138c0 1.232-.666 3.78.448 4.773.346.309.869.314 1.33.354 1.628.142 3.282.066 4.894-.194.326-.053.677-.128.895-.378.45-.518.235-1.438.235-2.053v-2.707M20.024 34.528s-1.527-4.106-3.054-2.053-2.908 4.658-.764 5.338c.885.281 3.818-.821 3.818-.821M60.064 34.118s1.527-4.106 3.054-2.053 2.908 4.658.764 5.338c-.885.28-3.818-.822-3.818-.822"/>
        <path fill="#414D5E" fill-rule="nonzero" d="M21.26 46.279c-1.045 0-1.891.58-1.891 1.296v2.856c0 .716.846 1.297 1.892 1.297 1.044 0 1.892-.58 1.892-1.297v-2.856c0-.716-.848-1.296-1.892-1.296zM59.271 45.726c-.964 0-1.744.58-1.744 1.296v2.856c0 .716.78 1.297 1.744 1.297.963 0 1.745-.58 1.745-1.297v-2.856c0-.716-.782-1.296-1.745-1.296zM43.67 46.208a.907.907 0 0 0-1.28.086c-.498.57-1.241.896-2.04.896-.8 0-1.544-.327-2.041-.896a.907.907 0 0 0-1.366 1.194c.842.963 2.083 1.515 3.406 1.515s2.564-.552 3.406-1.515a.907.907 0 0 0-.086-1.28z"/>
        <circle cx="40.5" cy="40.5" r="40.5" stroke="#54637A" stroke-width="1.5"/>
    </g>
</svg>
