<?xml version="1.0" encoding="UTF-8"?>
<svg width="104px" height="108px" viewBox="0 0 104 108" version="1.1" xmlns="http://www.w3.org/2000/svg" xmlns:xlink="http://www.w3.org/1999/xlink">
    <!-- Generator: Sketch 56.3 (81716) - https://sketch.com -->
    <title>ic_cart</title>
    <desc>Created with Sketch.</desc>
    <g id="ic_cart" stroke="none" stroke-width="1" fill="none" fill-rule="evenodd">
        <path d="M35.2301877,21.3916759 C35.0784796,22.4586958 35,23.5492966 35,24.6582273 C35,25.0637036 35.0104925,25.4667293 35.0312208,25.8670476 L21.5762452,25.8670476 L28.6576905,64.9027857 L82.1929286,64.9027857 L92.2989357,25.8670476 L80.9687792,25.8670476 C80.9895075,25.4667293 81,25.0637036 81,24.6582273 C81,23.5501893 80.9216467,22.4604516 80.7701785,21.3942527 L98.087881,21.3952326 L85.6642143,69.3788755 L24.9211905,69.3788755 L13.6646905,7.32880405 L0.393904762,7.32880405 L0.393904762,2.85261357 L17.4023095,2.8482381 L20.7594524,21.3908571 L35.2301877,21.3916759 Z M45.4568333,85.2549048 L45.4568333,85.2550167 C45.4479929,90.7103738 41.02865,95.1297055 35.5732929,95.1384486 C31.5779571,95.1384486 27.9760786,92.729919 26.4461167,89.0361667 C24.9162667,85.3467786 25.7599167,81.0935024 28.5880857,78.2696976 C31.4118905,75.4458033 35.6651667,74.5977667 39.3545548,76.1277286 C43.0483071,77.6575786 45.4568333,81.259569 45.4568333,85.2549048 Z M30.2142857,85.2549048 L30.2143976,85.2550167 C30.2187619,88.2405238 32.6360167,90.653515 35.6172714,90.6622548 C37.8072476,90.6622548 39.7743095,89.3464786 40.6135952,87.3269333 C41.4485167,85.3073881 40.985119,82.9818952 39.4420643,81.4344762 C37.8946452,79.8870124 35.5691524,79.428035 33.5496071,80.2629452 C31.5300619,81.0978667 30.2142857,83.0692929 30.2142857,85.2549048 Z M82.5869452,85.2549048 C82.5782167,90.6970571 78.1806952,95.1121085 72.738431,95.13839 C68.738731,95.1514295 65.1236476,92.7516286 63.5849571,89.0622405 C62.0462667,85.3684881 62.8811881,81.1152119 65.7049929,78.2826786 C68.5287976,75.4500781 72.7820738,74.5976548 76.4801905,76.1232524 C80.1739429,77.6532143 82.5869452,81.2552048 82.5869452,85.2549048 Z M67.3006429,85.2549048 C67.3050071,86.6931048 67.8776686,88.0744012 68.896181,89.0885381 C69.9191024,90.102619 71.3003429,90.6665183 72.7385429,90.6621681 C74.9197905,90.64905 76.8825105,89.3245452 77.708681,87.3006357 C78.5348738,85.2810905 78.0627476,82.959906 76.5153286,81.4212714 C74.9679095,79.8826369 72.6424167,79.4280238 70.6272357,80.2673095 C68.6120548,81.1065952 67.3006429,83.0736571 67.3006429,85.2549048 Z" id="Combined-Shape" fill="#0255A4"></path>
        <circle id="Oval" stroke="#0255A4" stroke-width="4" cx="58" cy="24.6582273" r="23"></circle>
        <text id="0" font-family="Assistant-SemiBold, Assistant" font-size="35" font-weight="500" letter-spacing="-0.000944879" fill="#0255A4">
            <tspan x="66" y="36">0</tspan>
        </text>
    </g>
</svg>