<svg xmlns="http://www.w3.org/2000/svg" width="178" height="177" viewBox="0 0 178 177">
    <g fill="none" fill-rule="evenodd" stroke="#54637A" transform="translate(2.333 1.581)">
        <circle cx="86.919" cy="86.919" r="86.919" stroke-width="3"/>
        <path fill="#54637A" d="M118.475 112.649l-.006-.035c-.404.079-.821.123-1.243.153-.066.006-.127.007-.191.012-1.346.076-2.708-.04-3.693-.091-7.102-.366-14.17-.563-21.286-.45-7.312.117-14.62.389-21.934.38-3.648-.004-7.292-.142-10.937-.352a194.504 194.504 0 0 1-4.362-.336c-1.528-.127-2.458-.498-3.019-1.041.818-1.654 3.12-3.621 3.982-4.537 2.391-2.544 4.921-4.96 7.444-7.368 5.267-5.029 10.166-10.405 15.28-15.588 3.463 2.533 6.811 5.184 9.772 8.11.39.386.914.117 1.24-.21 3.07-3.066 6.23-6.038 9.439-8.958.097-.013.166-.068.18-.16a.515.515 0 0 0 .043-.038c2.477 5.4 8.266 10.727 12.138 15.592 3.79 4.765 8.096 9.31 11.543 14.347l.018.206c-1.47.093-2.938.219-4.408.364m-67.42-6.97c-.235-13.232-.297-26.417-.959-39.627.059-1.33.112-2.656-.187-3.895-.01-.195-.022-.389-.028-.582 1.549 1.057 3.698 3.527 4.632 4.296 3.814 3.151 7.84 6.033 11.843 8.935 3.71 2.687 7.662 5.324 11.493 8.1-6.425 5.225-11.877 11.91-17.766 17.77-1.34 1.33-7.323 6.219-8.76 9.553-.565-1.169-.236-2.807-.267-4.55m1.138-44.285c.55.09 1.028.175 1.267.194 1.163.1 2.336.099 3.513.069 9.35.376 18.782.064 28.107.058 12-.01 24.002-.008 35.998.215-5.604 6.11-12.945 10.748-19.17 16.2-1.154 1.01-2.266 2.072-3.403 3.105-.232.026-.46.246-.51.468-1.683 1.533-3.386 3.047-5.044 4.605-.695.65-3.23 4.205-4.583 2.617-1.228-1.442-3.137-2.543-4.658-3.639-7.152-5.172-14.193-10.491-21.348-15.658-3.074-2.222-6.095-4.507-9.103-6.819-.574-.44-1.248-1.028-1.975-1.48l.91.065m69.949 37.81c.103 1.466.182 2.939.2 4.414.026.014.043.038.065.053-.042 2.181.106 4.366.298 6.548-3.348-4.511-7.28-8.556-10.427-13.253-3.66-5.454-7.732-10.87-12.807-15.08a377.686 377.686 0 0 1 7.762-6.868c4.695-4.032 9.897-7.443 14.179-11.924.022 12.053-.116 24.078.73 36.11m2.726 12.707c.01-1.909-.016-3.813-.132-5.713.329-3.426-.11-7.147-.29-9.618-.84-11.68-.614-23.388-.69-35.098.02-.014.032-.04.05-.061-.037-.563-.03-1.128-.039-1.692-1.165-.008-2.325-.044-3.483-.258h-.012v-.003c-.104-.017-.203-.022-.302-.044-.053-.011-.085-.04-.129-.057-.528-.001-1.058-.006-1.585-.012-8.529-.776-17.333-.334-26.004-.062-1.435.01-2.876.005-4.313.018l-12.158.11c-3.038-.005-6.075.015-9.113.044-3.95-.09-8.33-.41-12.268.09-.755-.01-1.51 0-2.266-.037-1.09-.052-1.92-.247-2.895.233-.264.129-.453.393-.54.662-.09.086-.155.19-.142.29.59 3.855-.219 8.253-.134 12.178.09 4.235.075 8.452.04 12.683-.076 8.953.655 17.876.715 26.82.001.23.088.367.206.463.077.14.193.26.352.281 12.405 1.681 24.87 1.324 37.354 1.118 6.55-.11 13.095-.111 19.641.205 3.25.157 6.564.592 9.816.344.058-.002.115 0 .173-.003 2.292-.03 4.579-.07 6.871-.047.255.15.653.031.94-.217l.266-.007c-.056-.86.005-1.737.071-2.61"/>
    </g>
</svg>
