<svg xmlns="http://www.w3.org/2000/svg" width="178" height="177" viewBox="0 0 178 177">
    <g fill="none" fill-rule="evenodd" stroke="#54637A" transform="translate(2 1.581)">
        <circle cx="86.919" cy="86.919" r="86.919" stroke-width="3"/>
        <path fill="#54637A" d="M85.13 73.554c.026 1.264 0 2.52-.004 3.781-.04 0-.08.002-.118 0l.007 1.318c.872-.002 1.743.03 2.596.117 1.954-.013 3.904-.028 5.838-.049-.285 1.404-.289 2.907-.355 4.305-.12 2.482-.251 4.965-.02 7.443-1.533-.243-3.144-.236-4.744-.205-.032.005-.051.023-.083.026-1.128.118-2.274.05-3.391.244-.009.295-.013.59-.023.888h.035c-.09 10.603.855 21.189.851 31.796 0 .008.004.01.004.02-.129.059-.25.135-.337.226-1.44 1.503-5.108.857-6.954.777-2.096-.092-4.198-.357-6.291-.178.263-9.918-.3-19.86-.555-29.783-.113-1.225-.15-2.464-.178-3.707a6.719 6.719 0 0 1-1.727-.473c-.993-.026-1.985-.037-2.973-.079-4.469-.188-4.945-.866-4.864-4.892.006-.106-.451-7.68-.5-7.645.02-.014.036-.04.028-.064l-.047-.143-.002-.001c1.496.701 3.271.976 5.09 1.097a.854.854 0 0 1 .489-.084c.752.083 1.505.13 2.255.183.165.001.33.008.492.008v.032c.665.043 1.332.074 1.997.098.02-1.092.028-2.18.008-3.26a.916.916 0 0 1 .147-.52c.018-.454.025-.908.053-1.361.302-5.038.32-10.527 2.91-14.984 4.107-7.07 13.975-9.93 21.573-9.149 7.007.72 11.908 5.49 14.522 11.508-1.343.71-2.647 1.52-3.93 2.231-2.38 1.321-4.858 2.46-7.142 3.918-.278-.998-.552-1.824-.835-2.259-2.528-3.912-9.483-3.96-12.042-.044-1.773 2.71-1.852 5.686-1.78 8.864m13.307-5.6c-.017.01-.032.025-.05.036.126.241.227.492.335.74a157 157 0 0 0 4.665-2.132 198.37 198.37 0 0 1 4.48-2.24c1.732-.909 3.441-1.868 5.126-2.871-.582-1.468-1.368-2.843-1.87-4.341-1.983-3.315-4.822-6.097-8.664-7.92-7.173-3.406-16.388-1.62-22.988 2.222-9.178 5.34-9.447 14.916-9.786 24.542-.015.482-.009.964-.02 1.447-2.888-.05-5.776-.23-8.396-.711-.183-.036-.535.292-.288.42.02.01.043.013.064.023-.111.036-.217.116-.251.197-.403.886-.326 1.616-.166 2.607.534 3.31-.267 7.075-.206 10.436.005.214.138.435.365.464 3.012.393 6.025.569 9.046.66.125 3.23.287 6.459.469 9.684.217 3.87.503 7.74.741 11.612.12 1.926.22 3.853.319 5.78.07 1.278.131 2.558.191 3.835.039.1.061.147.093.232-.062.022-.116.073-.114.129.057.44.09.88.118 1.322-.348.165-.77.76-.234.847 3.048.495 6.088.903 9.183.963 1.722.033 5.527.105 6.028-2.191a.892.892 0 0 0 .015-.243c.256-.154.464-.402.46-.673-.127-10.495-.873-20.921-.891-31.395 2.708.041 5.36.238 7.727.838.115.03.234.016.353-.016.122-4.878.413-10.037-.414-14.73-.02 0-.027-.009-.045-.009a838.034 838.034 0 0 0-7.453-.163c-.013-3.15.03-6.316.578-9.29 1.436-7.816 9.369-4.422 11.48-.111"/>
    </g>
</svg>
