<svg xmlns="http://www.w3.org/2000/svg" width="186" height="30" viewBox="0 0 186 30">
    <path fill="#54637A" fill-rule="evenodd" stroke="#54637A" stroke-width=".5" d="M19.577 24.544c3.205-2.07 6.284-4.32 9.597-6.223 1.722-.991 3.479-1.957 5.182-3-7.66.049-15.323.108-22.986.116-1.955 2.966-4.395 5.557-6.56 8.361 1.766.193 3.537.346 5.31.39 3.155.08 6.304.256 9.457.356zm9.515-14.142c-2.632-1.735-5.1-3.703-7.775-5.375h-1.225c2.042 2.393 3.906 4.94 5.941 7.336.085.101.14.215.198.328 2.295-.009 4.59-.014 6.886-.026-1.373-.697-2.736-1.413-4.025-2.263zM9.024 5.027H5.36c1.968 2.547 4.005 5.044 5.798 7.72 1.547 0 3.094-.014 4.64-.017-2.046-2.744-4.362-5.271-6.775-7.703zm3.752 0c2.286 2.414 4.437 4.949 6.324 7.691 1.253-.002 2.504-.01 3.756-.014-2.088-2.589-4.072-5.265-6.364-7.677h-3.716zm167.2 9.8l-15.937.39-.003.067a262.206 262.206 0 0 0-.097 5.996c-.005 1.317-.091 2.631-.15 3.944 2.845-1.882 5.45-4.119 8.338-5.945 2.541-1.606 5.136-3.155 7.85-4.451zM1.22 25.54a1.113 1.113 0 0 1-.134-.272c-.031-.083-.04-.166-.053-.255-.006-.054-.032-.097-.032-.155 0-.03.007-.06.01-.09a1.392 1.392 0 0 1 .13-.47c.02-.037.019-.083.043-.118 2.378-3.47 5.416-6.432 7.753-9.927-2.234-3.364-4.887-6.42-7.274-9.675-.229-.31-.234-.708-.11-1.069.068-.608.48-1.172 1.27-1.172h18.919c.347 0 .605.127.813.299.014.008.025.007.04.016C25.3 4.334 27.79 6.326 30.45 8.08c2.633 1.735 5.57 2.919 8.286 4.509.027.016.037.039.063.055 11.108-.066 22.217-.145 33.324-.207 10.17-.057 20.383-.394 30.55-.09 4.98.149 9.932-.003 14.912-.02 4.523-.015 9.049.314 13.563.528 10.081.475 20.168.932 30.26.934.161-3.825.508-7.634.793-11.452.002-.014.01-.024.011-.039.014-.17.062-.335.137-.487.034-.07.085-.12.128-.179.358-.516 1.017-.81 1.63-.51.235.076.423.23.564.432 5.54 5.565 13.26 7.932 19.832 11.917 1.045.634.742 2.07-.322 2.458-3.926 1.435-7.563 3.656-11.066 5.91-3.434 2.208-6.465 4.995-10.043 6.987a1.359 1.359 0 0 1-2.023-1.162c-.04-2.13.19-4.252.2-6.383.007-1.6.04-3.201.077-4.802-8.975-.004-17.946-.371-26.909-.783-4.533-.207-9.066-.476-13.602-.633-4.958-.173-9.914.218-14.872.091-20.405-.52-40.853.1-61.267.114-1.848.002-3.696.022-5.546.029-.047.044-.082.095-.133.136-2.626 2.02-5.603 3.564-8.465 5.21-3.416 1.963-6.578 4.296-9.891 6.418-.34.217-.67.253-.965.178-3.186-.098-6.368-.278-9.556-.36-2.597-.065-5.199-.356-7.775-.676-.027-.004-.051-.016-.077-.02a1.25 1.25 0 0 1-.6-.163c-.083-.048-.143-.126-.213-.192a1.48 1.48 0 0 1-.084-.077 1.315 1.315 0 0 1-.152-.211z"/>
</svg>
