<svg xmlns="http://www.w3.org/2000/svg" width="83" height="83" viewBox="0 0 83 83">
    <g fill="none" fill-rule="evenodd" transform="translate(1 1)">
        <circle cx="40.5" cy="40.5" r="40.5" stroke="#54637A" stroke-width="1.5"/>
        <g>
            <path stroke="#414D5E" stroke-width="1.278" d="M18.327 11.759c4.738 0 3.347-1.318 7.175-1.318 3.827 0 6.845 1.673 8.74 4.388 1.895 2.716 2.765 4.04 2.765 8.568s-4.1 14.144-4.704 15.342c-.604 1.199-2.479 5.169-4.586 5.986-2.108.817-3.632 1.003-6.357 0s-2.513-1.153-4.527-.817c-2.015.336-2.904 1.923-5.382 1.636-2.477-.288-3.521-1.632-4.663-2.803C5.646 41.571.21 32.117.21 25.095s.423-9.518 3.449-12.033c3.025-2.514 4.8-2.62 6.527-2.62 1.726 0 3.402 1.317 8.14 1.317zM17.991 9.585c-.527-1.777-.402-3.32.376-4.628 1.167-1.962 3.444-3.925 3.98-3.82.535.104 1.338.386 1.09 1.667-.167.854-1.982 3.114-5.446 6.78z" transform="translate(21.5 19)"/>
            <path fill="#181818" fill-rule="nonzero" d="M10.63 21.308a1.28 1.28 0 00-1.28 1.28v2.82a1.28 1.28 0 102.56 0v-2.82a1.28 1.28 0 00-1.28-1.28zM26.589 21.308a1.28 1.28 0 00-1.28 1.28v2.82a1.28 1.28 0 102.56 0v-2.82a1.28 1.28 0 00-1.28-1.28zM22.127 31.952a.895.895 0 00-1.263.085c-.491.562-1.225.884-2.015.884-.789 0-1.523-.322-2.014-.884a.895.895 0 00-1.348 1.179c.83.95 2.056 1.496 3.362 1.496 1.307 0 2.532-.545 3.363-1.496a.895.895 0 00-.085-1.264z" transform="translate(21.5 19)"/>
        </g>
    </g>
</svg>
