<svg xmlns="http://www.w3.org/2000/svg" width="84" height="83" viewBox="0 0 84 83">
    <g fill="none" fill-rule="evenodd" transform="translate(1.36 1)">
        <path fill="#414D5E" fill-rule="nonzero" d="M33.802 39.535c-.744 0-1.346.603-1.346 1.346v2.963a1.345 1.345 0 1 0 2.691 0V40.88c0-.743-.602-1.346-1.345-1.346zM50.574 39.535c-.743 0-1.345.603-1.345 1.346v2.963a1.345 1.345 0 1 0 2.69 0V40.88c0-.743-.602-1.346-1.345-1.346zM45.885 50.722a.94.94 0 0 0-1.328.09c-.516.59-1.287.928-2.117.928-.83 0-1.6-.339-2.117-.929a.94.94 0 0 0-1.416 1.238c.873 1 2.16 1.573 3.533 1.573 1.373 0 2.661-.573 3.534-1.573a.94.94 0 0 0-.089-1.327z"/>
        <path stroke="#414D5E" stroke-width="1.1" d="M15.657 35.246c3.494 4.067 4.835 4.577 6.68 4.177 2.863-.622 10.741-8.808 17.845-10.098 3.038-.551 13.54 5.132 19.702 8.085.898.43 2.506-1.053 4.823-4.45-4.962-2.424-12.342-6.375-22.14-11.855-5.812-3.252-16.662 8.673-24.993 13.01l-1.917 1.131z"/>
        <path stroke="#414D5E" stroke-width="1.1" d="M23.337 39.423c1.343 4.76 1.157 8.219 1.157 14.1 0 5.88-2.379 10.046 1.474 10.046 3.853 0 29.709 0 33.14-.646 4.946-.931.838-19.25.776-25.513M20.68 21.754c-.795-1.841-.795-3.056 0-3.643 1.19-.881 7.746-.42 8.937-.42 1.19 0 2.078 2.73 1.345 4.008-.25.033-1.448.052-3.594.054h1.961c.89 0 1.232 1.244 1.028 3.73l-7.693 4.56v-8.29h-1.985zM27.597 21.731h-5.75"/>
        <circle cx="40.5" cy="40.5" r="40.5" stroke="#54637A" stroke-width="1.5"/>
    </g>
</svg>
