<svg xmlns="http://www.w3.org/2000/svg" xmlns:xlink="http://www.w3.org/1999/xlink" width="91" height="91" viewBox="0 0 91 91">
    <defs>
        <circle id="b" cx="40.5" cy="40.5" r="40.5"/>
        <filter id="a" width="117.3%" height="117.3%" x="-8.6%" y="-8.6%" filterUnits="objectBoundingBox">
            <feMorphology in="SourceAlpha" operator="dilate" radius="1" result="shadowSpreadOuter1"/>
            <feOffset in="shadowSpreadOuter1" result="shadowOffsetOuter1"/>
            <feGaussianBlur in="shadowOffsetOuter1" result="shadowBlurOuter1" stdDeviation="2"/>
            <feComposite in="shadowBlurOuter1" in2="SourceAlpha" operator="out" result="shadowBlurOuter1"/>
            <feColorMatrix in="shadowBlurOuter1" values="0 0 0 0 0 0 0 0 0 0 0 0 0 0 0 0 0 0 0.3 0"/>
        </filter>
    </defs>
    <g fill="none" fill-rule="evenodd">
        <g transform="translate(5.354 5)">
            <use fill="#000" filter="url(#a)" xlink:href="#b"/>
            <use fill="#FFF" stroke="#54637A" stroke-width="2" xlink:href="#b"/>
        </g>
        <path fill="#FFF" stroke="#181818" stroke-width=".9" d="M21.702 40.202s-.44-15.86 3.396-15.86c3.833 0 13.248 7.852 13.248 7.852M69.41 40.202s2.266-16.453-2.736-16.453c-5 0-12.502 8.452-12.502 8.452"/>
        <path fill="#FFDBD6" stroke="#181818" stroke-width=".9" d="M66.482 37.13s1.095-9.873-1.029-9.873c-2.122 0-7.743 4.937-7.743 4.937M24.304 37.822s.614-9.873 2.265-9.873c1.65 0 8.367 4.937 8.367 4.937"/>
        <path fill="#FFF" stroke="#181818" stroke-width=".9" d="M19.77 49.434S18.667 41.99 23.073 38.8c3.085-2.234 6.54-3.954 10.189-5.168 5.484-1.827 11.402-2.516 17.14-2.106 4.519.325 10.458 1.158 14.31 3.668 8.98 5.85 8.027 19.555 1.932 26.76-1.694 2.003-3.775 3.794-6.297 4.666-4.213 1.457-9.764 2.076-14.144 1.954-6.58-.182-15.88-.352-21.374-4.578-3.968-3.056-4.395-10.066-5.06-14.562z"/>
        <path fill="#231F20" d="M47.79 49.134a4.236 4.236 0 0 0-1.087-.075c-.493.018-.984 0-1.476-.017-.969-.033-1.928-.007-2.83.375l-.013.003c-2.161.78.94 3.266 1.861 3.749.375.196.752.282 1.121.284.126.04.126.04.195-.01 1.045-.08 2.01-.82 2.664-1.674.364-.474.773-1.112.628-1.742-.115-.506-.587-.787-1.063-.893z"/>
        <path fill="#181818" fill-rule="nonzero" d="M35.508 41.38c-.777 0-1.406.432-1.406.965v2.122c0 .533.629.964 1.406.964.777 0 1.407-.431 1.407-.964v-2.122c0-.533-.63-.964-1.407-.964zM55.586 41.38c-.716 0-1.296.432-1.296.965v2.122c0 .533.58.964 1.296.964.716 0 1.297-.431 1.297-.964v-2.122c0-.533-.58-.964-1.297-.964zM49.022 56.978a.964.964 0 0 0-1.36.091c-.53.605-1.32.952-2.17.952-.85 0-1.64-.347-2.169-.952a.964.964 0 0 0-1.451 1.269c.895 1.023 2.214 1.61 3.62 1.61 1.407 0 2.726-.586 3.621-1.61.35-.4.31-1.01-.091-1.36z"/>
        <path stroke="#181818" stroke-linecap="round" stroke-width=".9" d="M53.13 52.729c1.596.293 3.652.215 6.17-.234 2.519-.448 4.251-1.046 5.199-1.792M38.346 53.686c-1.595.293-3.652.215-6.17-.234-2.518-.448-4.25-1.046-5.198-1.792M53.13 54.893c2.677.912 4.734 1.478 6.17 1.698 1.437.22 3.17-.007 5.199-.68M38.346 55.85c-2.677.912-4.734 1.478-6.17 1.698-1.437.22-3.17-.007-5.198-.68"/>
    </g>
</svg>
