<svg xmlns="http://www.w3.org/2000/svg" width="84" height="83" viewBox="0 0 84 83">
    <g fill="none" fill-rule="evenodd" transform="translate(1.354 1)">
        <circle cx="40.5" cy="40.5" r="40.5" stroke="#54637A" stroke-width="2"/>
        <g>
            <path stroke="#414D5E" stroke-width=".9" d="M2.101 17.445s-.44-15.86 3.396-15.86c3.833 0 13.248 7.852 13.248 7.852M49.81 17.445S52.075.992 47.073.992c-5 0-12.502 8.452-12.502 8.452" transform="translate(14.247 17.757)"/>
            <path stroke="#414D5E" stroke-width=".9" d="M46.881 14.373S47.976 4.5 45.852 4.5c-2.122 0-7.743 4.937-7.743 4.937M4.703 15.065s.614-9.873 2.265-9.873c1.65 0 8.367 4.937 8.367 4.937" transform="translate(14.247 17.757)"/>
            <path stroke="#414D5E" stroke-width=".9" d="M.168 26.677s-1.101-7.444 3.305-10.634c3.085-2.234 6.54-3.954 10.189-5.168 5.484-1.827 11.402-2.516 17.14-2.106 4.519.325 10.458 1.158 14.31 3.668 8.98 5.85 8.027 19.556 1.932 26.76-1.694 2.003-3.775 3.794-6.297 4.666-4.213 1.457-9.764 2.076-14.144 1.954-6.58-.182-15.88-.351-21.374-4.578C1.261 38.184.834 31.173.17 26.677z" transform="translate(14.247 17.757)"/>
            <path fill="#414D5E" d="M28.19 26.377a4.236 4.236 0 00-1.088-.075c-.493.018-.984 0-1.476-.017-.969-.033-1.928-.006-2.83.375l-.013.003c-2.161.781.94 3.266 1.861 3.749.375.196.752.282 1.121.284.126.04.126.04.195-.01 1.045-.08 2.01-.82 2.664-1.674.364-.474.773-1.111.628-1.742-.115-.506-.587-.786-1.063-.893z" transform="translate(14.247 17.757)"/>
            <path fill="#414D5E" fill-rule="nonzero" d="M15.907 18.624c-.777 0-1.406.431-1.406.964v2.122c0 .533.629.965 1.406.965.777 0 1.407-.432 1.407-.965v-2.122c0-.533-.63-.964-1.407-.964zM35.985 18.624c-.716 0-1.296.431-1.296.964v2.122c0 .533.58.965 1.296.965.716 0 1.297-.432 1.297-.965v-2.122c0-.533-.58-.964-1.297-.964zM29.42 34.22a.964.964 0 00-1.36.092c-.528.605-1.319.952-2.169.952-.85 0-1.64-.347-2.169-.952a.964.964 0 00-1.451 1.269c.894 1.023 2.214 1.61 3.62 1.61 1.407 0 2.726-.586 3.621-1.61.35-.4.31-1.01-.091-1.36z" transform="translate(14.247 17.757)"/>
            <path stroke="#414D5E" stroke-linecap="round" stroke-width=".9" d="M33.53 29.972c1.595.293 3.651.215 6.17-.234 2.518-.448 4.25-1.046 5.198-1.792M18.745 30.929c-1.595.293-3.652.215-6.17-.234-2.518-.448-4.25-1.046-5.198-1.792M33.53 32.136c2.676.912 4.733 1.478 6.17 1.698 1.436.22 3.169-.007 5.198-.68M18.745 33.093c-2.677.912-4.734 1.478-6.17 1.698-1.437.22-3.17-.007-5.198-.68" transform="translate(14.247 17.757)"/>
        </g>
    </g>
</svg>
