<svg xmlns="http://www.w3.org/2000/svg" xmlns:xlink="http://www.w3.org/1999/xlink" width="135" height="46" viewBox="0 0 135 46">
    <defs>
        <path id="a" d="M38.93 18.92l-.128-.367a445.169 445.169 0 0 1-.588-1.694l-.128-.367H34.74l-.845 2.428h-1.101l3.1-8.483h1.038l3.1 8.483h-1.101zm-2.564-7.113l-.134.382c-.09.254-.199.57-.329.946l-.39 1.129c-.13.376-.24.692-.33.946l-.134.383h2.728l-1.317-3.786h-.094zm9.818.776l-.236.64-.58 1.585a737.793 737.793 0 0 1-1.273 3.471l-.236.641h-1.026l-2.325-6.337h1.072l1.72 5.22h.092l1.72-5.22h1.072zm3.535 5.561c.517 0 .945-.152 1.285-.456.34-.303.51-.68.51-1.131v-.582l-1.69.111c-.917.063-1.375.408-1.375 1.035 0 .321.12.572.36.753.242.18.545.27.91.27zm-.186.888c-.61 0-1.116-.17-1.519-.509-.402-.339-.603-.798-.603-1.378 0-1.16.764-1.786 2.29-1.876l1.813-.111v-.577c0-.807-.474-1.21-1.422-1.21-.377 0-.69.068-.938.205a.938.938 0 0 0-.478.582h-1.014c.066-.51.326-.918.78-1.226.455-.307 1.017-.461 1.685-.461.765 0 1.355.187 1.769.561.414.375.62.89.62 1.55v4.338h-.955v-.935h-.093c-.203.337-.47.596-.805.776-.334.18-.71.27-1.13.27zm5.353-.112v-6.337h1.002v6.337h-1.002zm.501-7.625a.67.67 0 0 1-.492-.209.681.681 0 0 1-.207-.496c0-.196.069-.363.207-.5a.674.674 0 0 1 .492-.206c.194 0 .36.069.496.206a.683.683 0 0 1 .204.5.686.686 0 0 1-.204.496.667.667 0 0 1-.496.21zm2.964 7.625v-8.854h1.003v8.854H58.35zm5.377-.776c.517 0 .945-.152 1.285-.456.34-.303.51-.68.51-1.131v-.582l-1.69.111c-.917.063-1.376.408-1.376 1.035 0 .321.12.572.362.753.24.18.544.27.909.27zm-.187.888c-.61 0-1.116-.17-1.518-.509-.402-.339-.603-.798-.603-1.378 0-1.16.763-1.786 2.29-1.876l1.813-.111v-.577c0-.807-.474-1.21-1.422-1.21-.377 0-.69.068-.938.205a.938.938 0 0 0-.478.582H61.67c.066-.51.326-.918.78-1.226.455-.307 1.017-.461 1.685-.461.765 0 1.355.187 1.769.561.413.375.62.89.62 1.55v4.338h-.955v-.935h-.094c-.202.337-.47.596-.804.776-.334.18-.711.27-1.13.27zm8.454 0c-.435 0-.83-.1-1.186-.297a2.113 2.113 0 0 1-.83-.826h-.093v1.011h-.956v-8.854h1.002v3.516h.093c.171-.341.435-.611.79-.811.356-.2.749-.3 1.18-.3.8 0 1.44.298 1.918.893.478.596.717 1.392.717 2.387 0 .992-.24 1.786-.72 2.384-.48.598-1.118.897-1.915.897zm-.233-5.65c-.571 0-1.023.212-1.355.635-.332.423-.498 1.001-.498 1.734 0 .733.166 1.311.498 1.735.332.423.784.634 1.355.634.575 0 1.024-.21 1.346-.629.323-.419.484-.999.484-1.74 0-.74-.161-1.32-.484-1.74-.322-.42-.77-.629-1.346-.629zm4.992 5.538v-8.854h1.003v8.854h-1.003zm5.948-5.556c-.501 0-.913.17-1.235.512-.323.34-.504.792-.542 1.352h3.461c-.011-.56-.17-1.011-.478-1.352-.306-.341-.709-.512-1.206-.512zm1.655 3.916h1.003a2.216 2.216 0 0 1-.921 1.284c-.463.312-1.038.468-1.725.468-.87 0-1.56-.295-2.07-.885-.508-.59-.763-1.387-.763-2.39 0-.995.257-1.792.77-2.39.512-.597 1.2-.896 2.063-.896.847 0 1.513.285 1.999.855.485.57.728 1.347.728 2.331v.388h-4.516v.047c.027.627.203 1.125.527 1.493.324.369.753.553 1.285.553.404 0 .742-.073 1.014-.22.272-.147.474-.36.606-.638zm9.594 1.752c-.894 0-1.6-.293-2.119-.88-.518-.585-.778-1.386-.778-2.4 0-1.02.26-1.821.778-2.405.52-.584 1.225-.876 2.119-.876.894 0 1.6.292 2.118.876.52.584.778 1.385.778 2.404 0 1.015-.259 1.816-.778 2.402-.518.586-1.224.879-2.118.879zm0-.912c.594 0 1.053-.207 1.375-.623.323-.415.484-.997.484-1.746 0-.752-.161-1.335-.484-1.749-.322-.413-.78-.62-1.375-.62s-1.053.207-1.376.62c-.322.414-.483.997-.483 1.75 0 .748.161 1.33.483 1.745.323.416.781.623 1.376.623zm4.963.8v-6.337h.956v.999h.093c.16-.349.393-.621.702-.817.309-.196.704-.294 1.186-.294.707 0 1.25.203 1.63.608.378.406.567.985.567 1.738v4.103h-1.002v-3.857c0-.572-.121-.995-.364-1.27-.243-.274-.615-.41-1.116-.41-.502 0-.902.158-1.201.475-.3.318-.449.755-.449 1.311v3.751h-1.002zm11.738-7.978h1.003v1.64h1.398v.847h-1.398v3.586c0 .373.073.643.221.812.148.168.385.252.711.252.09 0 .166-.002.23-.006.064-.003.143-.01.236-.017v.852a2.99 2.99 0 0 1-.588.059c-.645 0-1.109-.131-1.39-.394-.282-.262-.423-.696-.423-1.3V13.43h-1.014v-.846h1.014v-1.64zm4.468 7.978v-8.854h1.002v3.516h.093c.16-.349.402-.621.726-.817.324-.196.728-.294 1.21-.294.664 0 1.191.205 1.582.614.39.41.585.987.585 1.732v4.103h-1.002v-3.857c0-.56-.123-.98-.37-1.26s-.607-.42-1.081-.42c-.564 0-.995.163-1.294.49-.3.327-.449.76-.449 1.296v3.751h-1.002zm10.027-5.556c-.501 0-.913.17-1.235.512-.323.34-.503.792-.542 1.352h3.462c-.012-.56-.171-1.011-.478-1.352-.307-.341-.71-.512-1.207-.512zm1.655 3.916h1.002a2.216 2.216 0 0 1-.92 1.284c-.462.312-1.037.468-1.725.468-.87 0-1.56-.295-2.07-.885-.508-.59-.763-1.387-.763-2.39 0-.995.257-1.792.77-2.39.513-.597 1.2-.896 2.063-.896.847 0 1.513.285 1.999.855.486.57.728 1.347.728 2.331v.388h-4.516v.047c.027.627.203 1.125.527 1.493.325.369.753.553 1.285.553.404 0 .742-.073 1.014-.22.272-.147.474-.36.606-.638z"/>
        <path id="b" d="M44.344 37.84l-.234-.672-.539-1.548-.538-1.548-.234-.672h-6.117l-1.546 4.44h-2.014l5.67-15.512h1.897l5.67 15.512h-2.015zm-4.69-13.008l-.244.7a436.24 436.24 0 0 0-.602 1.73l-.714 2.064a436.24 436.24 0 0 1-.602 1.73l-.246.7h4.988l-2.409-6.924h-.17zm13.898 1.215c1.463 0 2.634.545 3.511 1.634.878 1.09 1.316 2.544 1.316 4.365 0 1.813-.438 3.266-1.316 4.359-.877 1.093-2.048 1.64-3.511 1.64-.817 0-1.542-.173-2.174-.517a3.342 3.342 0 0 1-1.418-1.43h-.17v5.612h-1.833V26.251h1.747v1.935h.171c.37-.666.88-1.19 1.53-1.569a4.18 4.18 0 0 1 2.147-.57zm-.437 10.331c1.058 0 1.884-.383 2.478-1.15.593-.767.89-1.828.89-3.182 0-1.355-.297-2.415-.89-3.182-.594-.767-1.416-1.15-2.468-1.15-1.037 0-1.861.388-2.472 1.166-.611.777-.917 1.833-.917 3.166 0 1.326.306 2.38.917 3.16.611.781 1.432 1.172 2.462 1.172zm12.873-10.33c1.464 0 2.635.544 3.512 1.633.877 1.09 1.316 2.544 1.316 4.365 0 1.813-.439 3.266-1.316 4.359s-2.048 1.64-3.512 1.64c-.817 0-1.541-.173-2.174-.517a3.342 3.342 0 0 1-1.417-1.43h-.17v5.612h-1.833V26.251h1.747v1.935h.17c.37-.666.88-1.19 1.53-1.569a4.18 4.18 0 0 1 2.147-.57zm-.436 10.33c1.058 0 1.884-.383 2.477-1.15.594-.767.89-1.828.89-3.182 0-1.355-.296-2.415-.89-3.182-.593-.767-1.415-1.15-2.467-1.15-1.037 0-1.861.388-2.472 1.166-.611.777-.917 1.833-.917 3.166 0 1.326.306 2.38.917 3.16.61.781 1.431 1.172 2.462 1.172zm12.074-2.59h1.94c.12.81.536 1.454 1.246 1.934s1.613.72 2.707.72c1.038 0 1.895-.252 2.574-.757.678-.506 1.018-1.142 1.018-1.909 0-.659-.249-1.207-.746-1.644-.498-.437-1.276-.789-2.334-1.054l-1.972-.516c-1.392-.358-2.405-.869-3.037-1.532-.632-.663-.948-1.546-.948-2.65 0-1.318.499-2.384 1.497-3.198.998-.813 2.31-1.22 3.938-1.22 1.485 0 2.728.402 3.73 1.204 1.001.803 1.541 1.831 1.62 3.085h-1.93c-.134-.795-.51-1.417-1.124-1.865-.614-.448-1.401-.672-2.36-.672-1.023 0-1.846.237-2.467.71-.622.473-.933 1.104-.933 1.892 0 .61.23 1.104.687 1.483.459.38 1.217.706 2.276.979l1.609.43c1.591.401 2.734.939 3.426 1.612.693.674 1.04 1.58 1.04 2.72 0 1.426-.518 2.56-1.551 3.402-1.034.842-2.432 1.264-4.194 1.264-1.627 0-2.96-.402-4.002-1.205-1.04-.802-1.61-1.874-1.71-3.214zm14.312-10.536h1.833v3h2.558v1.547h-2.558v6.558c0 .68.135 1.175.405 1.483.27.309.704.463 1.3.463.164 0 .304-.004.421-.011.118-.007.262-.018.432-.032v1.559a5.468 5.468 0 0 1-1.076.107c-1.18 0-2.027-.24-2.542-.72-.515-.48-.773-1.272-.773-2.376V27.8h-1.854V26.25h1.854v-2.999zm10.86 14.792c-1.634 0-2.925-.535-3.874-1.607-.948-1.071-1.423-2.535-1.423-4.391 0-1.864.475-3.33 1.423-4.397.949-1.068 2.24-1.602 3.874-1.602s2.925.534 3.874 1.602c.948 1.068 1.422 2.533 1.422 4.397 0 1.856-.474 3.32-1.422 4.391-.949 1.072-2.24 1.607-3.874 1.607zm0-1.666c1.087 0 1.925-.38 2.515-1.14.59-.76.885-1.823.885-3.192 0-1.376-.295-2.442-.885-3.198-.59-.756-1.428-1.135-2.515-1.135-1.087 0-1.925.379-2.515 1.135-.59.756-.885 1.822-.885 3.198 0 1.369.295 2.433.885 3.193.59.76 1.428 1.139 2.515 1.139zm7.31 1.462V26.251h1.748v1.72h.17c.171-.566.555-1.028 1.152-1.386.597-.359 1.275-.538 2.035-.538a7.901 7.901 0 0 1 .917.054v1.849a3.423 3.423 0 0 0-.501-.07 7.238 7.238 0 0 0-.671-.038c-.874 0-1.595.266-2.164.796-.568.53-.852 1.204-.852 2.021v7.181h-1.833zm11.713-10.159c-.917 0-1.67.312-2.26.935-.59.624-.92 1.448-.99 2.473h6.33c-.022-1.025-.313-1.849-.874-2.473-.562-.623-1.297-.935-2.206-.935zm3.026 7.16h1.833a4.052 4.052 0 0 1-1.683 2.349c-.846.57-1.897.854-3.155.854-1.591 0-2.852-.539-3.783-1.618-.93-1.078-1.396-2.535-1.396-4.37 0-1.82.469-3.276 1.406-4.37.938-1.092 2.196-1.639 3.773-1.639 1.549 0 2.767.522 3.655 1.564.889 1.043 1.333 2.464 1.333 4.263v.71h-8.26v.085c.05 1.147.372 2.057.965 2.73.593.674 1.376 1.011 2.35 1.011.739 0 1.357-.134 1.854-.403a2.526 2.526 0 0 0 1.108-1.166z"/>
    </defs>
    <g fill="none" fill-rule="evenodd" transform="translate(1 1.67)">
        <rect width="134" height="44" x="-.5" y="-.5" stroke="#0255A4" rx="2"/>
        <g fill-rule="nonzero">
            <use fill="#606060" xlink:href="#a"/>
            <use fill="#0255A4" xlink:href="#a"/>
        </g>
        <g fill-rule="nonzero">
            <use fill="#606060" xlink:href="#b"/>
            <use fill="#0255A4" xlink:href="#b"/>
        </g>
        <path fill="#0255A4" d="M12.43 6.88c-1.215 0-2.2 1.12-2.2 2.507v25.946c0 1.384.984 2.507 2.2 2.507h10.948c1.215 0 2.199-1.12 2.199-2.507V9.387c0-1.384-.983-2.507-2.199-2.507H12.43zm-.76 4.06v22.84h12.468V10.94H11.67zm6.234 25.885c.53 0 .959-.455.959-1.015 0-.56-.43-1.015-.96-1.015-.529 0-.958.454-.958 1.015 0 .56.43 1.015.959 1.015zM15.986 8.91c0 .28.164.508.381.508h3.073c.211 0 .382-.236.382-.508 0-.28-.165-.507-.382-.507h-3.073c-.21 0-.381.235-.381.507z"/>
    </g>
</svg>
