<svg xmlns="http://www.w3.org/2000/svg" width="136" height="46" viewBox="0 0 136 46">
    <g fill="none" fill-rule="evenodd" transform="translate(.746 1.67)">
        <rect width="134.291" height="44" x=".354" y="-.5" stroke="#0255A4" rx="2"/>
        <path fill="#0255A4" d="M93.026 30.229l-.975.92c-.224.123-.448.267-.672.37-.677.307-1.366.384-1.978.384-.65 0-1.672-.041-2.712-.795-1.447-1.02-2.08-2.772-2.08-4.3 0-3.16 2.573-4.712 4.671-4.712.734 0 1.487.184 2.1.572 1.018.673 1.282 1.548 1.428 2.018l-4.793 1.937-1.57.122c.509 2.592 2.262 4.1 4.199 4.1.968 0 1.686-.316 2.345-.642 0 0 .132-.068.037.026zm-2.89-5.157c.389-.141.59-.264.59-.547 0-.815-.92-1.755-2.02-1.755-.815 0-2.343.634-2.343 2.837 0 .344.04.71.062 1.076l3.71-1.61z"/>
        <path fill="#0255A4" d="M83.007 30.07c0 .793.141.917.811.978.35.041.697.06 1.042.1l-.754.45h-3.592c.471-.612.552-.672.552-1.08v-.455l-.008-12.125h-1.586l1.526-.736h2.916c-.632.366-.82.59-.902 1.302l-.005 11.566z"/>
        <path fill="#0255A4" d="M77.436 23.097c.467.385 1.445 1.202 1.445 2.752 0 1.51-.852 2.222-1.71 2.896-.263.265-.57.553-.57.997 0 .451.307.696.529.878l.736.57c.896.755 1.712 1.448 1.712 2.856 0 1.92-1.856 3.853-5.363 3.853-2.954 0-4.382-1.407-4.382-2.916 0-.735.365-1.775 1.572-2.487 1.263-.773 2.976-.876 3.892-.936-.286-.37-.613-.758-.613-1.39 0-.345.104-.552.204-.794-.223.02-.447.042-.652.042-2.161 0-3.384-1.613-3.384-3.204 0-.938.428-1.978 1.306-2.732 1.162-.958 2.548-1.123 3.649-1.123h4.2l-1.305.738h-1.266zm-1.445 9.054c-.167-.022-.267-.022-.47-.022-.184 0-1.285.04-2.138.326-.451.165-1.755.653-1.755 2.102 0 1.446 1.408 2.487 3.586 2.487 1.957 0 2.997-.938 2.997-2.202-.001-1.04-.673-1.589-2.22-2.691zm.586-3.875c.471-.47.512-1.12.512-1.49 0-1.467-.874-3.752-2.568-3.752-.529 0-1.101.266-1.426.676-.345.425-.448.976-.448 1.506 0 1.366.796 3.63 2.548 3.63.51 0 1.06-.248 1.382-.57zM64.797 31.862c-3.24 0-4.973-2.525-4.973-4.81 0-2.67 2.179-4.956 5.279-4.956 2.997 0 4.874 2.348 4.874 4.812 0 2.406-1.855 4.954-5.18 4.954zm2.55-1.65c.492-.653.612-1.467.612-2.261 0-1.797-.855-5.222-3.383-5.222a2.84 2.84 0 0 0-1.838.693c-.796.713-.938 1.61-.938 2.49 0 2.014.995 5.338 3.466 5.338.798 0 1.611-.387 2.08-1.038zM53.949 31.862c-3.24 0-4.972-2.525-4.972-4.81 0-2.67 2.18-4.956 5.279-4.956 2.995 0 4.87 2.348 4.87 4.812 0 2.406-1.852 4.954-5.177 4.954zm2.55-1.65c.49-.653.611-1.467.611-2.261 0-1.797-.858-5.222-3.383-5.222-.675 0-1.345.263-1.834.693-.798.713-.939 1.61-.939 2.49 0 2.014 1 5.338 3.466 5.338.796 0 1.608-.387 2.079-1.038zM47.682 31.154l-2.733.626c-1.107.174-2.101.328-3.154.328-5.272 0-7.28-3.882-7.28-6.92 0-3.71 2.846-7.149 7.719-7.149 1.031 0 2.023.152 2.927.398 1.432.403 2.102.898 2.52 1.19l-1.587 1.508-.669.15.477-.762c-.646-.631-1.834-1.797-4.09-1.797-3.014 0-5.289 2.293-5.289 5.64 0 3.595 2.598 6.977 6.762 6.977 1.224 0 1.854-.246 2.426-.475v-3.082l-2.885.155 1.53-.822h4.048l-.494.477c-.134.113-.152.152-.19.304-.02.174-.038.728-.038.923v2.331zM98.902 30.316v5.195h-1.031V22.293h1.031v1.505c.671-.973 1.899-1.744 3.325-1.744 2.556 0 4.28 1.94 4.28 5.012 0 3.051-1.724 5.032-4.28 5.032-1.346 0-2.552-.694-3.325-1.782zm6.496-3.25c0-2.315-1.206-4.08-3.345-4.08-1.328 0-2.599 1.044-3.15 1.954v4.231c.551.913 1.822 1.995 3.15 1.995 2.139 0 3.345-1.78 3.345-4.1zM107.914 31.86V18.643h1.03V31.86h-1.03zM120.515 34.655c.22.098.596.16.835.16.631 0 1.07-.259 1.465-1.17l.752-1.705-4.063-9.647h1.15l3.485 8.36 3.45-8.36h1.167l-4.954 11.671c-.514 1.203-1.323 1.781-2.434 1.781-.334 0-.773-.06-1.03-.138l.177-.952zM117.503 31.832c-.069-.332-.12-.624-.159-.868a5.72 5.72 0 0 1-.05-.746c-.353.52-.854.951-1.494 1.292-.64.342-1.248.51-2.083.51-1.004 0-1.783-.247-2.34-.748-.555-.501-.834-1.18-.834-2.039 0-.857.404-1.553 1.21-2.086.806-.534 1.848-.8 3.136-.8h2.405v-1.19c0-.684-.234-1.222-.699-1.613-.467-.39-1.123-.588-1.975-.588-.777 0-1.408.18-1.888.532-.476.36-.715.804-.715 1.34h-1.055l-.022-.051c-.039-.723.292-1.357.995-1.904.699-.547 1.616-.822 2.743-.822 1.124 0 2.034.27 2.72.811.685.535 1.029 1.308 1.029 2.318v4.72a6.238 6.238 0 0 0 .264 1.933h-1.188zm-3.659-.752c.876 0 1.506-.195 2.15-.583.639-.385 1.073-.888 1.301-1.496v-1.837h-2.416c-.923 0-1.687.205-2.288.617-.602.411-.908.909-.908 1.487 0 .545.193.982.578 1.313.385.334.912.5 1.583.5zM34.49 7.801c0-2.031 1.508-3.337 3.384-3.337 1.257 0 2.079.6 2.592 1.335l-.919.532a2.08 2.08 0 0 0-1.673-.86c-1.275 0-2.224.967-2.224 2.33 0 1.345.948 2.331 2.224 2.331.658 0 1.238-.3 1.528-.58v-.997h-1.934V7.56h3.056v2.409a3.483 3.483 0 0 1-2.65 1.18c-1.876 0-3.384-1.325-3.384-3.347zM41.923 11.022V4.57h4.418v.996h-3.287V7.23h3.22v.997h-3.22v1.8h3.287v.995h-4.418zM49.472 11.022V5.567h-1.953V4.57h5.037v.997h-1.952v5.455zM56.488 11.022V4.57h1.13v6.452zM60.77 11.022V5.567h-1.953V4.57h5.037v.997H61.9v5.455zM67.505 7.801c0-1.925 1.364-3.337 3.298-3.337 1.923 0 3.297 1.412 3.297 3.337 0 1.925-1.374 3.337-3.297 3.337-1.935 0-3.298-1.412-3.298-3.337zm5.435 0c0-1.335-.842-2.33-2.137-2.33-1.305 0-2.137.995-2.137 2.33 0 1.325.832 2.331 2.137 2.331 1.295 0 2.137-1.006 2.137-2.33zM79.917 11.022l-3.365-4.614v4.614h-1.13V4.57h1.16l3.297 4.47V4.57h1.131v6.452zM10.013 36.307c-.372-.1-.614-.471-.614-1.044V16.337c0-.53.205-.889.53-1.019l9.266 10.547-9.182 10.442zm1.275-.402l11.154-6.344-2.717-3.092-8.437 9.436zm11.23-13.82L11.52 15.827l8.221 9.416 2.778-3.158zm.747.424l4.309 2.452c.815.464.823 1.212 0 1.68l-4.418 2.513-2.881-3.3 2.99-3.345z"/>
    </g>
</svg>
