<svg xmlns="http://www.w3.org/2000/svg" width="29" height="29" viewBox="0 0 29 29">
    <g fill="none" fill-rule="evenodd" transform="translate(1 1)">
        <circle cx="13.685" cy="13.685" r="13.685" stroke="#414D5E" stroke-width="1.19"/>
        <path fill="#414D5E" fill-rule="nonzero" d="M8.82 15.016c-.383.058-.757.154-1.136.026-.308-.104-.566-.308-.598-.651-.038-.41.235-.658.567-.814.136-.064.309-.12.447-.09 1.317.28 2.584-.305 3.885-.239.492.025 2.25-.24 2.78-.16.932.14 1.839-.055 2.74-.144.686-.068 1.376.003 2.06-.122.285-.053.668-.055.71.392.037.398-.168.705-.542.815-.214.064-.456.023-.685.041-1.413.116-2.824.257-4.238.344-.575.036-4.743.41-5.99.602z"/>
    </g>
</svg>
