<svg xmlns="http://www.w3.org/2000/svg" width="83" height="83" viewBox="0 0 83 83">
    <g fill="none" fill-rule="evenodd" transform="translate(.887 1)">
        <path fill-rule="nonzero" stroke="#414D5E" stroke-width=".9" d="M57.303 54.702a1.41 1.41 0 0 0-.913-.296c.143-3.728.106-7.497-.108-11.216l-.006-.036c.201-.163.39-.348.548-.565.455-.625.551-1.414.246-2.012-.245-.479-.697-.771-1.106-.994-1.336-.727-2.65-.94-4.043-1.166-.409-.067-.832-.135-1.254-.218a53.18 53.18 0 0 0-6.354-.842c-4.081-.296-8.394-.154-12.818.421-2.322.303-4.711.73-7.103 1.27-.71.16-1.346.323-1.924.682-.723.448-1.18 1.144-1.222 1.86-.038.627.239 1.272.748 1.772a.416.416 0 0 0-.006.076c.029 3.666.097 7.92.537 12.02l.005.043c-.418.085-.786.356-1.028.766-.347.586-.391 1.349-.114 1.944.468 1.003 1.51 1.52 2.365 1.86 2.663 1.055 5.476 1.414 8.118 1.644 2.314.2 4.539.302 6.687.302 4.866 0 9.336-.519 13.534-1.564 1.738-.432 3.53-1.006 4.864-2.26.717-.674 1.085-1.413 1.064-2.136a1.8 1.8 0 0 0-.717-1.355z"/>
        <path fill-rule="nonzero" stroke="#414D5E" stroke-width=".8" d="M22.482 39.73c-1.406.657-.92 1.349 1.461 2.074 3.571 1.088 14.492 1.482 16.972 1.482 2.479 0 10.865-.668 12.497-1.075 1.633-.407 4.609-1.676 2.573-2.481"/>
        <path fill="#414D5E" fill-rule="nonzero" stroke="#414D5E" stroke-width=".3" d="M46.701 35.553a4.5 4.5 0 0 0 1.075.893c.223.129.45.227.681.296 1.143.336 2.442-.096 3.16-1.053.33-.44.519-.973.565-1.518l6.285-2.193c2.054-.717 4.178-1.458 6.162-2.475.472-.243 1.008-.542 1.383-1.02.38-.486.602-1.266.243-1.913-.285-.515-.9-.844-1.643-.881-.835-.042-1.629.23-2.361.531-1.047.43-2.067.943-3.053 1.44l-8.006 4.035c-1.058-.893-2.746-1.049-3.953-.561-.65.263-1.156.747-1.389 1.329-.374.932-.055 2.088.851 3.09zm12.877-7.14c.971-.49 1.976-.995 2.992-1.412.643-.264 1.33-.503 2-.47.348.018.78.144.947.447.171.309.032.727-.17.985-.268.344-.692.578-1.104.79-1.93.99-4.027 1.721-6.054 2.429l-6.058 2.113a2.892 2.892 0 0 0-.361-.931l-.008-.012 7.816-3.939zm-12.023 3.502c1.12-.452 2.83-.198 3.495.888.437.714.391 1.715-.108 2.38-.503.67-1.447.986-2.246.75-.466-.138-.926-.456-1.37-.945-.528-.585-.989-1.474-.693-2.212.148-.37.484-.683.922-.86zM21.616 31.115l6.204 2.411c.027.547.196 1.086.512 1.538.684.98 1.967 1.458 3.12 1.162.234-.06.464-.151.691-.272.38-.202.75-.487 1.106-.855.94-.97 1.3-2.113.959-3.059-.213-.59-.702-1.091-1.342-1.376-1.19-.53-2.882-.433-3.97.423l-7.861-4.312c-.968-.531-1.969-1.08-3-1.546-.722-.326-1.505-.625-2.341-.613-.745.011-1.37.319-1.673.823-.382.634-.186 1.421.176 1.92.357.491.883.809 1.347 1.068 1.947 1.086 4.044 1.9 6.072 2.688zm8.149.406c.826-.44 1.955-.445 2.758-.087.432.192.756.517.891.892.27.748-.22 1.62-.77 2.186-.46.474-.932.776-1.402.897-.806.208-1.74-.14-2.219-.828-.475-.682-.486-1.683-.025-2.382.192-.289.458-.514.767-.678zm-15.021-5.648c.178-.297.614-.409.962-.414.67-.01 1.35.253 1.982.539 1.002.452 1.988.993 2.942 1.516l7.673 4.21-.008.01a2.89 2.89 0 0 0-.394.92l-5.98-2.324c-2.001-.778-4.07-1.582-5.966-2.64-.404-.225-.82-.474-1.076-.827-.193-.265-.317-.688-.135-.99z"/>
        <path stroke="#414D5E" d="M22.051 43.743c5.747 1.683 11.696 2.524 17.847 2.524 6.151 0 11.725-.994 16.722-2.981M22.53 55.501c-.687 1.173-.39 2.008.89 2.504 1.92.745 6.68 2.295 12.35 2.295s14.234-1.452 16.664-2.106c2.43-.653 3.012-.883 3.841-1.901.553-.68.591-1.308.115-1.887"/>
        <path fill="#414D5E" fill-rule="nonzero" d="M28.988 48.34c-.553 0-1 .448-1 1v2.2a.999.999 0 1 0 1.999 0v-2.2a1 1 0 0 0-1-1zM46.779 48.34c-.552 0-1 .448-1 1v2.2a.999.999 0 1 0 1.999 0v-2.2a1 1 0 0 0-1-1zM40.748 53.416a.699.699 0 0 0-.986.066c-.383.438-.955.69-1.572.69a2.078 2.078 0 0 1-1.572-.69.699.699 0 0 0-1.052.92 3.474 3.474 0 0 0 2.624 1.167c1.02 0 1.976-.425 2.624-1.167a.699.699 0 0 0-.066-.986z"/>
        <circle cx="40.5" cy="40.5" r="40.5" stroke="#54637A" stroke-width="1.5"/>
    </g>
</svg>
