<svg xmlns="http://www.w3.org/2000/svg" width="83" height="83" viewBox="0 0 83 83">
    <g fill="none" fill-rule="evenodd" transform="translate(1 1)">
        <g stroke="#414D5E">
            <path d="M26.314 28.064c2.918-2.402 6.983-3.288 10.635-4.45 5.833-1.858 15.364 1.043 19.299 5.154 4.608 4.815 4.755 12.099 1.983 17.92-1.051 2.208-2.501 4.302-4.51 5.904-6.92 5.519-17.101 3.026-24.75.08-5.79-2.23-6.952-9.43-6.626-14.561.19-2.989 1.4-7.927 3.96-10.04a.187.187 0 0 1 .009-.007z"/>
            <path stroke-linecap="round" d="M41.495 16.75v4.44M30.795 17.823l1.916 4.782M21.676 21.544l4.153 3.871M14.703 28.503l4.792 2.69M13.737 39.454l5.758-.318M16.78 51.297l4.792-2.092M27.162 55.136l-2.875 4.184M46.475 57.81l1.916 4.483M55.928 55.136l3.194 3.885M60.992 46.738l5.485 2.323M62.37 38.634h4.628M59.915 28.532l4.92-2.443M52.094 23.04l3.834-4.483M36.76 57.228l-.32 5.81"/>
        </g>
        <path fill="#414D5E" fill-rule="nonzero" d="M32.65 35.087c-.723 0-1.308.586-1.308 1.308v2.88a1.308 1.308 0 1 0 2.616 0v-2.88c0-.722-.586-1.308-1.308-1.308zM48.957 35.087c-.723 0-1.308.586-1.308 1.308v2.88a1.308 1.308 0 1 0 2.616 0v-2.88c0-.722-.586-1.308-1.308-1.308zM44.398 45.963a.915.915 0 0 0-1.29.087c-.502.573-1.252.902-2.06.902-.806 0-1.556-.329-2.057-.902a.915.915 0 0 0-1.378 1.204c.85.97 2.101 1.528 3.436 1.528 1.334 0 2.587-.557 3.436-1.528a.915.915 0 0 0-.087-1.291z"/>
        <circle cx="40.5" cy="40.5" r="40.5" stroke="#54637A" stroke-width="1.5"/>
    </g>
</svg>
