<svg xmlns="http://www.w3.org/2000/svg" width="177" height="178" viewBox="0 0 177 178">
    <g fill="none" fill-rule="evenodd" transform="translate(1.667 2)">
        <circle cx="86.919" cy="86.919" r="86.919" stroke="#54637A" stroke-width="3"/>
        <g fill="#54637A">
            <path d="M111.247 123.09c-15.597 1.74-31.353 1.022-46.978-.006-1.433-.094-4.636.16-5.695-.766-1.004-.88-.586-2.79-.591-4.089-.012-3.247-.03-6.493-.053-9.74l57.792-1.466c0 .663.002 1.327 0 1.99a601.737 601.737 0 0 1-.142 10.232c-.015.697-.28 2.152-.068 2.728l-.031.493c-.02.088-.03.159-.038.23-1.6.204-3.883.36-4.196.395m-11.174-82.13c2.405-.044 4.812-.063 7.218-.046 2.462.018 4.717-.406 5.1 2.326a617.964 617.964 0 0 1 2.943 43.944c.162 5.27.253 10.544.278 15.817l-56.395 1.467c-.045-5.56-.103-11.12-.187-16.678-.219-14.358-.59-28.713-1.24-43.06a302.206 302.206 0 0 1 26.42-3.062 301.66 301.66 0 0 1 15.863-.708m16.67-1.51c-.518-4.05-6.448-2.72-9.328-2.7a250.58 250.58 0 0 0-16.433.654c-10.714.78-21.345 2.287-31.884 4.375-1.1.218-5.244 2.053-5.178 3.558 1.173 26.966 1.43 53.966 1.488 80.955-.065.246.025.404.268.47 12.258.948 24.563 1.9 36.864 1.423 6.181-.24 12.602-.648 18.653-2.039 4.222-.97 8.196-3.32 8.355-8.038.877-26.197-.372-52.579-2.805-78.657"/>
            <path d="M88.35 110.685c-2.889.001-5.248 1.687-5.083 4.73.052.963.423 1.88.86 2.739.383.75.85 1.501 1.571 1.933.675.405 1.492.482 2.278.505 1.037.031 2.12-.025 3.027-.527 1.197-.662 1.883-2.002 2.15-3.343.689-3.453-1.486-6.04-4.804-6.037"/>
        </g>
    </g>
</svg>
