<svg xmlns="http://www.w3.org/2000/svg" width="172" height="40" viewBox="0 0 172 40">
    <g fill="none" fill-rule="evenodd" transform="translate(-1 -13)">
        <path d="M8.003 15.475l2.99-.42-.508 24.99H7.56zM35.125 25.09l3.252-.359v14.99l-3.252.324z"/>
        <circle cx="36.751" cy="16.682" r="1.626"/>
        <path d="M53.364 15.562l-2.942.762c-.98 13.279-.98 20.552 0 21.82.98 1.267 2.492 2.249 4.534 2.944l-1.131-2.944-.461-22.582zM96.125 25.09l3.252-.359v14.99l-3.252.324z"/>
        <circle cx="97.751" cy="16.682" r="1.626"/>
        <path d="M114.364 15.562l-2.942.762c-.98 13.279-.98 20.552 0 21.82.98 1.267 2.492 2.249 4.534 2.944l-1.131-2.944-.461-22.582zM68.062 24.552h3.021v25.55h-3.02zM154.062 24.552h3.021v25.55h-3.02zM135.22 23.938l3.66.398 2.64 2.799 1.493 12.91-3.01.52-1.122-11.66z"/>
        <text fill="#54637A" font-family="RibeyeMarrow-Regular, Ribeye Marrow" font-size="40" letter-spacing="-.003">
            <tspan x=".274" y="42">Pitpitap</tspan>
        </text>
    </g>
</svg>
