<svg xmlns="http://www.w3.org/2000/svg" width="29" height="29" viewBox="0 0 29 29">
    <g fill="none" fill-rule="evenodd" transform="translate(1 1)">
        <circle cx="13.685" cy="13.685" r="13.685" stroke="#414D5E" stroke-width="1.19"/>
        <path fill="#414D5E" fill-rule="nonzero" d="M12.674 14.392c-1.345.357-2.607.432-3.855.624-.382.058-.756.154-1.135.026-.308-.104-.566-.308-.598-.651-.038-.41.235-.658.567-.814.136-.064.309-.12.447-.09 1.317.28 2.584-.305 3.885-.239.492.025.716-.223.703-.71-.04-1.473.163-2.954-.117-4.418-.068-.36-.114-.713-.004-1.064.087-.28.265-.516.56-.532.336-.017.598.167.685.52.057.229.1.477.078.71-.15 1.524.233 3.024.171 4.54-.023.566.174.715.704.794.932.14 1.839-.055 2.74-.144.686-.068 1.376.003 2.06-.122.285-.053.668-.055.71.392.037.398-.168.705-.542.815-.214.064-.456.023-.685.041-1.413.116-2.824.257-4.238.344-.575.036-.806.238-.797.869.02 1.395-.032 2.791-.054 4.187-.002.12.014.242-.002.36-.052.369.1.868-.427.977-.486.1-.927-.407-.928-1.081-.003-1.357.032-2.714.051-4.071l.02-1.263z"/>
    </g>
</svg>
