<svg xmlns="http://www.w3.org/2000/svg" width="55" height="48" viewBox="0 0 55 48">
    <g fill="none" fill-rule="evenodd">
        <g stroke="#414D5E">
            <path d="M13.314 12.064c2.918-2.402 6.983-3.288 10.635-4.45 5.833-1.858 15.364 1.043 19.299 5.154 4.608 4.815 4.755 12.099 1.983 17.92-1.051 2.208-2.501 4.302-4.51 5.904-6.92 5.519-17.101 3.026-24.75.08-5.79-2.23-6.952-9.43-6.626-14.561.19-2.989 1.4-7.927 3.96-10.04a.187.187 0 0 1 .009-.007z"/>
            <path stroke-linecap="round" d="M28.495.75v4.44M17.795 1.823l1.916 4.782M8.676 5.544l4.153 3.871M1.703 12.503l4.792 2.69M.737 23.454l5.758-.318M3.78 35.297l4.792-2.092M14.162 39.136l-2.875 4.184M33.475 41.81l1.916 4.483M42.928 39.136l3.194 3.885M47.992 30.738l5.485 2.323M49.37 22.634h4.628M46.915 12.532l4.92-2.443M39.094 7.04l3.834-4.483M23.76 41.228l-.32 5.81"/>
        </g>
        <path fill="#414D5E" fill-rule="nonzero" d="M19.65 19.087c-.723 0-1.308.586-1.308 1.308v2.88a1.308 1.308 0 1 0 2.616 0v-2.88c0-.722-.586-1.308-1.308-1.308zM35.957 19.087c-.723 0-1.308.586-1.308 1.308v2.88a1.308 1.308 0 1 0 2.616 0v-2.88c0-.722-.586-1.308-1.308-1.308zM31.398 29.963a.915.915 0 0 0-1.29.087c-.502.573-1.252.902-2.06.902-.806 0-1.556-.329-2.057-.902a.915.915 0 0 0-1.378 1.204c.85.97 2.101 1.528 3.436 1.528 1.334 0 2.587-.557 3.436-1.528a.915.915 0 0 0-.087-1.291z"/>
    </g>
</svg>
