<svg xmlns="http://www.w3.org/2000/svg" width="84" height="83" viewBox="0 0 84 83">
    <g fill="none" fill-rule="evenodd" transform="translate(1.426 1)">
        <path stroke="#414D5E" d="M44.527 18.274c3.964-.085 8.602 1.293 12.085 3.052 5.335 2.693 7.619 4.396 9.043 9.592 1.425 5.196.575 21.61-.949 22.957-1.524 1.347-4.24 8.025-12.624 8.699-4.667.375-10.097 1.622-14.8 1.4-3.29-.156-8.3.131-11.158-1.4-2.827-1.516-4.489-4.158-6.24-6.564-2.7-3.708-6.255-7.887-5.006-12.574 1.538-5.777 1.698-14.118 6.177-18.782 3.856-4.016 6.577-5.594 12.211-6.38 2.425-.338 8.744.054 11.261 0z"/>
        <path stroke="#414D5E" d="M21.255 43.044s-.857-5.791 2.57-8.274c2.4-1.738 5.09-3.076 7.928-4.02 4.267-1.422 8.872-1.958 13.336-1.639 3.516.253 8.136.901 11.134 2.854 6.986 4.551 6.872 15.71 2.13 21.315-1.318 1.558-2.652 3.853-4.614 4.532-3.278 1.133-8.65 1.937-13.239 1.937-5.12 0-11.48-1.545-15.754-4.833-3.088-2.377-2.974-8.374-3.491-11.872z"/>
        <path fill="#414D5E" d="M43.613 43.787a3.922 3.922 0 0 0-1.007-.07c-.457.017-.91 0-1.367-.016-.897-.03-1.786-.006-2.62.348l-.012.003c-2.002.723.87 3.024 1.723 3.47a2.23 2.23 0 0 0 1.038.264c.117.036.117.036.18-.01.968-.074 1.862-.759 2.468-1.549.336-.44.715-1.03.581-1.613-.107-.469-.544-.729-.984-.827z"/>
        <path stroke="#414D5E" stroke-linecap="round" d="M47.05 47.754c1.15.211 2.635.155 4.451-.169 1.817-.323 3.067-.754 3.75-1.293M35.935 48.007c-1.151.211-2.635.155-4.452-.169-1.816-.323-3.067-.754-3.75-1.293M47.462 50.388c1.93.658 3.415 1.067 4.451 1.225 1.037.159 2.287-.005 3.75-.49M36.553 50.21c-1.931.658-3.415 1.066-4.451 1.225-1.037.158-2.287-.005-3.75-.491"/>
        <path fill="#414D5E" fill-rule="nonzero" d="M32.995 38.113c-.642 0-1.161.356-1.161.796v1.751c0 .44.52.796 1.16.796.641 0 1.161-.356 1.161-.796V38.91c0-.44-.52-.796-1.16-.796zM49.632 38c-.59 0-1.07.357-1.07.796v1.752c0 .439.48.795 1.07.795.591 0 1.07-.356 1.07-.795v-1.752c0-.44-.479-.796-1.07-.796z"/>
        <g stroke="#414D5E">
            <path d="M59.38 35.412s1.42-8.728-2.83-10.054c-4.25-1.326-8.529 3.664-8.529 3.664"/>
            <path d="M57.307 32.735s.84-3.594-1.625-4.363c-2.465-.769-5.055 1.36-5.055 1.36"/>
        </g>
        <g stroke="#414D5E">
            <path d="M35.153 29.483s-4.351-4.958-7.787-3.156-2.997 7.512-2.997 7.512"/>
            <path d="M32.255 30.61s-1.697-2.732-3.69-1.687c-1.992 1.045-2.276 3.953-2.276 3.953"/>
        </g>
        <path fill="#414D5E" fill-rule="nonzero" d="M44.57 50.421a.855.855 0 0 0-1.207.081c-.469.537-1.17.844-1.924.844s-1.455-.307-1.924-.844a.855.855 0 0 0-1.288 1.126c.794.907 1.965 1.429 3.212 1.429s2.418-.521 3.212-1.43a.855.855 0 0 0-.082-1.206z"/>
        <path stroke="#414D5E" d="M60.8 47.339h4.619M61.767 39.672h4.618M59.458 33.23l5.96-2.788M58.354 26.002l2.127-2.421M48.563 29.023l5.177-8.794M43.442 29.023l1.183-10.887M35.935 29.023l-.301-10.778M35.935 64v-4.251M43.216 63.773v-4.024M53.74 62.263l-2.59-4.223M28.976 26.002l-2.89-4.79M24.623 30.442l-3.256-5.364M23.073 36.2l-5.243-5.243M21.367 39.672h-4.991M21.367 46.546l-6.608-.506M23.073 54.096l-2.621 1.75M28.976 58.04l-2.89 4.223M41.269 29.31l2.765 15.464M39.14 29.31l-.624 15.464"/>
        <path stroke="#414D5E" stroke-linecap="round" d="M41.439 47.432v3.598"/>
        <circle cx="40.5" cy="40.5" r="40.5" stroke="#54637A" stroke-width="1.5"/>
    </g>
</svg>
